<?xml version="1.0" encoding="utf-8"?>
<!-- Generator: Adobe Illustrator 17.0.0, SVG Export Plug-In . SVG Version: 6.00 Build 0)  -->
<!DOCTYPE svg PUBLIC "-//W3C//DTD SVG 1.1//EN" "http://www.w3.org/Graphics/SVG/1.1/DTD/svg11.dtd">
<svg version="1.1" xmlns="http://www.w3.org/2000/svg" xmlns:xlink="http://www.w3.org/1999/xlink" x="0px" y="0px"
	 width="392.576px" height="412.11px" viewBox="0 0 392.576 412.11" enable-background="new 0 0 392.576 412.11"
	 xml:space="preserve">
<g id="Слой_1">
	<polygon points="360.087,309.196 183.566,411.11 7.045,309.196 7.045,105.367 183.566,3.452 360.087,105.367 	"/>
</g>
<g id="Слой_4" display="none">
	<path display="inline" fill="#D24A43" d="M392.576,400.11c0,6.627-5.373,12-12,12H12c-6.627,0-12-5.373-12-12V18.452
		c0-6.627,5.373-12,12-12h368.576c6.627,0,12,5.373,12,12V400.11z"/>
</g>
<g id="Слой_2" display="none">
	<circle display="inline" fill="#FFFFFF" cx="196.453" cy="125.924" r="26.525"/>
	<path display="inline" fill="#FFFFFF" d="M262.263,193.916c0-37.551-30.441-67.992-67.992-67.992s-67.992,30.441-67.992,67.992
		c0,6.504,0.915,12.793,2.62,18.749h-0.001c0,0,0.001,0.003,0.003,0.008c0.821,2.868,1.829,5.656,3.004,8.355
		c1.231,3.951,2.372,8.553,2.372,12.038c0,19.99-26.32,35.209-49.686,41.131c-2.111,0.535-58.899,8.434-58.899,8.434
		s96.049,0,118.574,0c37.619,0,71.122-14.009,92.729-35.826C252.406,234.34,262.263,215.28,262.263,193.916z"/>
	<path display="inline" fill="#FFFFFF" stroke="#000000" stroke-miterlimit="10" d="M222.292,131.946
		c-2.727,11.748-13.261,20.503-25.839,20.503c-13.166,0-24.092-9.592-26.169-22.17"/>
	<circle display="inline" stroke="#FFFFFF" stroke-miterlimit="10" cx="196.453" cy="125.924" r="15.613"/>
	<polygon display="inline" fill="#FFFFFF" stroke="#000000" stroke-miterlimit="10" points="254.704,190.365 249.809,182.573 
		245.181,190.293 243.278,193.468 242.768,192.973 237.253,188.396 234.868,192.973 234.813,193.178 234.601,192.973 
		229.458,188.704 227.233,192.973 227.129,193.356 223.036,189.323 214.584,182.457 213.494,191.46 212.749,194.81 208.295,190.146 
		202.005,183.559 202.732,191.46 203.459,199.361 209.022,198.047 212.01,198.13 212.01,198.13 220.287,198.361 226.287,199.361 
		226.147,197.946 232.537,197.782 233.63,197.549 233.63,197.549 240.554,197.549 240.831,197.549 240.554,198.013 249.809,198.013 
		259.537,197.49 	"/>
	<rect x="259.007" y="201.834" display="inline" fill="#FFFFFF" width="9.332" height="4.015"/>
	<path display="inline" fill="#FFFFFF" d="M286.012,247.203l27.723-14.396c0.006-0.336-0.001-0.673-0.027-1.011
		c-0.051-0.662-0.166-1.309-0.338-1.94l-31.304-7.057l-15.15,4.159c-1.588,1.767-2.714,3.701-3.27,5.722
		c-6.856,0.521-14.872,1.137-23.687,1.827c-4.57,1.726-11.135,3.14-18.494,3.806c-8.06,0.729-15.322,0.402-20.134-0.699
		c-46.594,3.853-99.775,8.667-126.442,12.537c-1.191,0.368-3.064,1.715-2.253,4.261c0.812,2.546,2.111,2.656,2.833,3.232
		c2.916,0.03,6.718-0.067,11.23-0.269c0.084-2.056,3.075-3.949,6.894-4.294c3.976-0.36,7.335,1.094,7.502,3.246
		c0.006,0.074-0.002,0.147-0.003,0.221c37.552-2.515,99.794-8.808,142.235-13.291c1.549-1.047,3.529-1.772,5.73-1.971
		c2.054-0.186,3.99,0.113,5.612,0.767c3.585-0.383,6.955-0.745,10.086-1.082c1.228,2.106,3.156,3.948,5.61,5.425L286.012,247.203z"
		/>
	<path display="inline" d="M268.771,247.3l16.653,1.019l29.359-15.412c0.004-0.365-0.007-0.732-0.038-1.1
		c-0.061-0.721-0.189-1.426-0.377-2.113l-33.365-7.959l-16.079,4.388c-2.668,3.042-4.084,6.559-3.779,10.194
		C261.517,240.74,264.369,244.567,268.771,247.3z"/>
	<path display="inline" fill="none" stroke="#000000" stroke-miterlimit="10" d="M249.351,233.777"/>
	<path display="inline" fill="none" stroke="#000000" stroke-miterlimit="10" d="M264.755,240.971
		c1.228,2.106,3.156,3.948,5.61,5.425l15.648,0.807l27.723-14.396c0.006-0.336-0.001-0.673-0.027-1.011
		c-0.051-0.662-0.166-1.309-0.338-1.94l-31.304-7.057l-15.15,4.159c-1.588,1.767-2.714,3.701-3.27,5.722"/>
	<path display="inline" fill="none" stroke="#000000" stroke-miterlimit="10" d="M122.497,254.873
		c44.907-3.824,118.254-11.344,118.254-11.344"/>
	<path display="inline" fill="none" stroke="#000000" stroke-miterlimit="10" d="M131.695,243.775
		c-22.883,2.203-43.263,4.412-56.805,6.377c-1.191,0.368-3.064,1.715-2.253,4.261c0.812,2.546,2.111,2.656,2.833,3.232
		c2.916,0.03,6.718-0.067,11.23-0.269c0.084-2.056,3.075-3.949,6.894-4.294c3.976-0.36,7.335,1.094,7.502,3.246
		c0.006,0.074-0.002,0.147-0.003,0.221c5.723-0.383,13.075-0.965,21.405-1.675"/>
	<path display="inline" fill="none" stroke="#000000" stroke-miterlimit="10" d="M249.351,233.777
		c-3.01,0.233-6.146,0.477-9.391,0.731c-4.57,1.726-11.135,3.14-18.494,3.806c-8.06,0.729-15.322,0.402-20.134-0.699
		c-22.932,1.896-47.459,4.025-69.636,6.16"/>
	<path display="inline" fill="#FFFFFF" d="M191.811,240.103c0.465,4.949-3.17,9.337-8.119,9.802l-8.961,0.841
		c-4.949,0.465-9.337-3.17-9.802-8.119l0,0c-0.465-4.949,3.17-9.337,8.119-9.802l8.961-0.841
		C186.958,231.519,191.347,235.154,191.811,240.103L191.811,240.103z"/>
	<path display="inline" fill="none" stroke="#000000" stroke-miterlimit="10" d="M191.319,237.89c0.251,0.698,0.42,1.44,0.492,2.213
		l0,0c0.465,4.949-3.17,9.337-8.119,9.802l-8.961,0.841c-4.949,0.465-9.337-3.17-9.802-8.119l0,0
		c-0.111-1.184,0.094-1.916,0.094-1.916"/>
	<rect x="203.487" y="196.953" display="inline" width="65.804" height="12.929"/>
	<g display="inline">
		<polygon fill="#FFFFFF" points="269.315,198.361 200.939,198.361 200.939,205.867 200.121,205.867 200.121,211.615 
			249.262,212.615 248.572,208.032 269.315,208.146 		"/>
	</g>
	
		<line display="inline" fill="#FFFFFF" stroke="#000000" stroke-miterlimit="10" x1="252.702" y1="228.208" x2="252.464" y2="227.255"/>
	
		<rect x="243.243" y="225.496" transform="matrix(0.8419 -0.5397 0.5397 0.8419 -84.7043 168.4724)" display="inline" fill="#FFFFFF" width="3.75" height="6.548"/>
	
		<line display="inline" fill="#FFFFFF" stroke="#000000" stroke-miterlimit="10" x1="252.702" y1="228.208" x2="252.464" y2="227.255"/>
	
		<rect x="243.243" y="225.496" transform="matrix(0.8419 -0.5397 0.5397 0.8419 -84.7043 168.4724)" display="inline" fill="#FFFFFF" width="3.75" height="6.548"/>
</g>
<g id="Слой_3" display="none">
	<polyline display="inline" fill="#FFFFFF" stroke="#000000" stroke-miterlimit="10" points="262.464,191.255 260.541,183.53 
		258.379,191.462 254.902,183.682 253.651,189.539 	"/>
	
		<line display="inline" fill="#FFFFFF" stroke="#000000" stroke-miterlimit="10" x1="262.702" y1="192.208" x2="262.464" y2="191.255"/>
	<polyline display="inline" fill="#FFFFFF" stroke="#000000" stroke-miterlimit="10" points="253.722,197.49 257.984,197.24 
		263.964,197.115 267.911,196.953 267.991,196.365 	"/>
	<polyline display="inline" fill="#FFFFFF" points="254.12,196.953 258.382,196.703 264.362,196.578 268.309,196.416 
		270.406,181.051 263.099,191.671 	"/>
	
		<rect x="253.243" y="189.496" transform="matrix(0.8419 -0.5397 0.5397 0.8419 -63.6933 168.1761)" display="inline" fill="#FFFFFF" width="3.75" height="6.548"/>
</g>
<g id="Слой_5" display="none">
	<g display="inline">
		<path fill="#FFFFFF" d="M49.2,309.365h1.169c-0.392,0-0.779-0.025-1.169-0.035V309.365z"/>
		<path fill="#FFFFFF" d="M308.274,309.365h1.169v-0.035C309.053,309.34,308.666,309.365,308.274,309.365z"/>
		<path fill="#FFFFFF" d="M253.728,244.289c0-4.835,0.468-10.674,1.3-14.071c3.213-13.112,11.956-33.509,11.956-52.749
			c0-57.762-39.248-104.587-87.662-104.587s-87.662,46.825-87.662,104.587c0,19.239,8.743,39.636,11.956,52.749
			c0.832,3.397,1.3,9.237,1.3,14.071c0,35.941-24.421,65.077-54.546,65.077h257.905C278.149,309.365,253.728,280.23,253.728,244.289
			z"/>
	</g>
	<circle display="inline" fill="#FFFFFF" cx="131.051" cy="90.327" r="24.15"/>
	<path display="inline" stroke="#FFFFFF" stroke-miterlimit="10" d="M141.099,80.273c-2.572,2.571-6.124,4.16-10.048,4.16
		c-3.924,0-7.476-1.59-10.048-4.16c-2.574,2.573-4.167,6.128-4.167,10.054c0,4.134,1.775,7.844,4.592,10.441
		c2.533-2.336,5.906-3.774,9.623-3.774c3.717,0,7.09,1.438,9.623,3.774c2.817-2.597,4.592-6.307,4.592-10.441
		C145.266,86.4,143.673,82.846,141.099,80.273z"/>
	<polygon display="inline" fill="#FFFFFF" stroke="#000000" stroke-miterlimit="10" points="106.148,189.308 109.993,185.047 
		113.535,187.262 116.836,189.308 119.954,187.262 123.716,183.277 127.257,187.262 129.193,185.786 130.799,187.262 
		134.685,184.713 137.621,187.262 138.954,189.308 145.195,181.524 156.679,173.934 158.161,183.886 159.173,187.589 
		165.226,182.434 173.772,175.153 172.784,183.886 171.795,192.62 164.237,191.167 160.177,191.259 160.177,191.259 148.93,191.514 
		140.777,192.62 140.967,191.056 132.285,190.875 130.8,190.618 130.8,190.618 121.392,190.618 121.014,190.618 121.392,191.13 
		108.816,191.13 95.597,190.552 	"/>
	<rect x="83.638" y="195.354" display="inline" fill="#FFFFFF" width="12.68" height="4.438"/>
	<rect x="83.343" y="189.959" display="inline" width="89.415" height="11.907"/>
	
		<line display="inline" fill="#FFFFFF" stroke="#000000" stroke-miterlimit="10" x1="91.297" y1="184.713" x2="91.62" y2="183.659"/>
	<polyline display="inline" fill="#FFFFFF" stroke="#000000" stroke-miterlimit="10" points="103.498,190.552 97.707,190.276 
		89.582,190.138 84.219,189.959 84.11,189.308 	"/>
	<polyline display="inline" fill="#FFFFFF" points="102.958,189.959 97.167,189.682 89.042,189.544 83.679,189.365 80.829,172.38 
		90.757,184.12 	"/>
	<polyline display="inline" fill="#FFFFFF" stroke="#000000" stroke-miterlimit="10" points="91.297,184.713 93.804,172.38 
		103.498,190.552 	"/>
	<g display="inline">
		<ellipse stroke="#000000" stroke-miterlimit="10" cx="109.993" cy="151.597" rx="3.542" ry="5.291"/>
		<ellipse stroke="#000000" stroke-miterlimit="10" cx="127.257" cy="151.811" rx="3.542" ry="5.291"/>
	</g>
	<path display="inline" fill="#FFFFFF" d="M221.528,207.467c3.063-7.759,17.149-24.19,17.149-24.19l37.626-70.701l-7.484-3.755
		l-71.661,133.803c0,0,9.69,5.479,11.589,4.599c2.207-3.511,4.057-13.442,4.057-13.442S218.84,214.278,221.528,207.467z"/>
	<polygon display="inline" points="287.5,123.859 249.719,102.13 234.917,105.493 230.578,113.038 233.448,133.329 245.292,142.856 
		266.908,155.289 291.089,149.794 294.023,144.692 	"/>
	<rect x="95.498" y="200.531" display="inline" width="18" height="3.5"/>
	<g display="inline">
		<polygon fill="#FFFFFF" points="83.311,191.514 176.221,191.514 176.221,199.812 177.332,199.812 177.332,206.166 
			110.559,207.271 111.496,202.205 83.311,202.331 		"/>
	</g>
	<path display="inline" fill="none" stroke="#000000" stroke-miterlimit="10" d="M221.061,208.397
		c2.971-7.577,16.827-23.548,16.827-23.548l36.745-68.946l-7.484-3.755l-69.992,130.478c0,0,9.696,5.467,11.577,4.623
		c2.162-3.421,3.905-13.139,3.905-13.139S218.453,215.049,221.061,208.397z"/>
	<g display="inline">
		<path fill="#FFFFFF" d="M215.74,219.664c-5.862-2.782-8.887-8.677-6.756-13.168l3.858-8.131c2.131-4.491,8.611-5.876,14.473-3.094
			l0,0c5.862,2.782,8.887,8.677,6.756,13.168l-3.858,8.131C228.082,221.06,221.602,222.445,215.74,219.664L215.74,219.664z"/>
		<path fill="none" stroke="#000000" stroke-miterlimit="10" d="M218.514,220.666c-0.927-0.235-1.858-0.568-2.774-1.003l0,0
			c-5.862-2.782-8.887-8.677-6.756-13.168l3.858-8.131c2.131-4.491,8.611-5.876,14.473-3.094l0,0
			c1.403,0.666,2.123,1.309,2.123,1.309"/>
	</g>
	<path display="inline" fill="none" stroke="#000000" stroke-miterlimit="10" d="M151.931,78.184
		c2.079,3.567,3.27,7.716,3.27,12.143c0,13.338-10.812,24.15-24.15,24.15c-6.46,0-12.328-2.537-16.662-6.669"/>
</g>
</svg>
