<?xml version="1.0" standalone="no"?>
<!DOCTYPE svg PUBLIC "-//W3C//DTD SVG 1.1//EN" "http://www.w3.org/Graphics/SVG/1.1/DTD/svg11.dtd" >
<svg xmlns="http://www.w3.org/2000/svg" xmlns:xlink="http://www.w3.org/1999/xlink" version="1.1">
<metadata>
Created by FontForge 20150913 at Sat Apr  9 20:27:31 2016
 By Jimmy Wärting
Copyright (c) 2008 by Ivan Philipov. All rights reserved.
</metadata>
<defs>
<font id="RedOctober" horiz-adv-x="732" >
  <font-face 
    font-family="Red October"
    font-weight="400"
    font-stretch="normal"
    units-per-em="1000"
    panose-1="4 0 0 0 0 0 0 0 0 0"
    ascent="800"
    descent="-200"
    x-height="795"
    cap-height="799"
    bbox="-102 -193 1341 1031"
    underline-thickness="20"
    underline-position="-153"
    unicode-range="U+0020-2030"
  />
<missing-glyph horiz-adv-x="500" 
d="M63 0v800h375v-800h-375zM125 63h250v675h-250v-675z" />
    <glyph glyph-name=".notdef" horiz-adv-x="500" 
d="M63 0v800h375v-800h-375zM125 63h250v675h-250v-675z" />
    <glyph glyph-name=".null" horiz-adv-x="0" 
 />
    <glyph glyph-name="nonmarkingreturn" horiz-adv-x="506" 
 />
    <glyph glyph-name="space" unicode=" " horiz-adv-x="375" 
 />
    <glyph glyph-name="numbersign" unicode="#" horiz-adv-x="510" 
d="M339 0h-87l31 221h-84l-31 -221h-87l31 221h-97v92h110l12 87h-95v92h107l29 208h87l-29 -208h84l30 208h87l-30 -208h88v-92h-100l-12 -87h87v-92h-100zM296 313l12 87h-84l-12 -87h84z" />
    <glyph glyph-name="dollar" unicode="$" horiz-adv-x="558" 
d="M-1 786h185v95h135v-95h186v-169h-337v-137h337v-481h-186v-96h-135v96h-185v169h337v143h-337v475z" />
    <glyph glyph-name="percent" unicode="%" horiz-adv-x="733" 
d="M306 700v-352h-266v352h266zM204 610h-62v-172h62v172zM708 352v-352h-266v352h266zM606 262h-62v-172h62v172zM542 752l68 -36l-398 -760l-68 36z" />
    <glyph glyph-name="ampersand" unicode="&#x26;" horiz-adv-x="680" 
d="M0 799h489v-172h-310v-158h203v67h179v-67h64v-161h-64v-308h-561v307l100 80l-100 80v332zM179 166h203v136h-203v-136z" />
    <glyph glyph-name="parenleft" unicode="(" horiz-adv-x="271" 
d="M271 -127q-68 26 -128 87q-59 59 -90 128q-43 93 -43 206t43 206q31 69 91 129q59 60 127 86v-137q-123 -86 -123 -284q0 -199 123 -284v-137z" />
    <glyph glyph-name="parenright" unicode=")" horiz-adv-x="271" 
d="M0 715q68 -26 127 -86q60 -60 91 -129q43 -93 43 -206t-43 -206q-31 -69 -90 -128q-60 -61 -128 -87v137q123 85 123 284q0 198 -123 284v137z" />
    <glyph glyph-name="asterisk" unicode="*" horiz-adv-x="432" 
d="M129 548l-133 94h162l48 152l51 -152h158l-128 -94l51 -153l-132 95l-128 -95l51 153v0z" />
    <glyph glyph-name="plus" unicode="+" horiz-adv-x="420" 
d="M5 309v90h160v160h90v-160h160v-90h-160v-160h-90v160h-160z" />
    <glyph glyph-name="comma" unicode="," horiz-adv-x="266" 
d="M0 -130v192h171v-113z" />
    <glyph glyph-name="hyphen" unicode="-" horiz-adv-x="358" 
d="M25 370h219v-130h-219v130z" />
    <glyph glyph-name="period" unicode="." horiz-adv-x="266" 
d="M0 2v171h171v-171h-171z" />
    <glyph glyph-name="slash" unicode="/" horiz-adv-x="589" 
d="M515 760l-398 -760l-117 42l398 760z" />
    <glyph glyph-name="zero" unicode="0" horiz-adv-x="734" 
d="M12 0v800h600v-800h-600zM433 179v442h-242v-442h242z" />
    <glyph glyph-name="two" unicode="2" horiz-adv-x="709" 
d="M0 799h616v-353l-438 -212v-57h438v-178h-616v350l437 207v65h-258v-104h-179v282z" />
    <glyph glyph-name="three" unicode="3" horiz-adv-x="656" 
d="M-1 -1v178h411v126h-205v176l145 143h-351v177h590v-176l-159 -144h159v-480h-590z" />
    <glyph glyph-name="four" unicode="4" horiz-adv-x="747" 
d="M643 799v-800h-179v253h-459l119 547h179l-70 -368h231v368h179z" />
    <glyph glyph-name="five" unicode="5" horiz-adv-x="679" 
d="M608 0h-609v237h165v-72h278v193h-443v440h609v-165h-444v-115h444v-518z" />
    <glyph glyph-name="six" unicode="6" horiz-adv-x="747" 
d="M644 -1h-639v800h179v-253h460v-547zM465 367h-281v-188h281v188z" />
    <glyph glyph-name="seven" unicode="7" horiz-adv-x="654" 
d="M585 800v-168l-263 -632h-195l266 626h-215v-74h-178v248h585z" />
    <glyph glyph-name="eight" unicode="8" horiz-adv-x="627" 
d="M376 636h-196v-94l64 -66h68l64 66v94zM0 2v308l106 92l-106 91v309h554v-309l-110 -91l110 -92v-308h-554zM376 256l-64 66h-68l-64 -66v-88h196v88z" />
    <glyph glyph-name="nine" unicode="9" horiz-adv-x="747" 
d="M-11 799h639v-800h-179v253h-460v547zM168 431h281v189h-281v-189z" />
    <glyph glyph-name="colon" unicode=":" horiz-adv-x="266" 
d="M0 436v171h171v-171h-171zM0 2v171h171v-171h-171z" />
    <glyph glyph-name="semicolon" unicode=";" horiz-adv-x="266" 
d="M0 436v171h171v-171h-171zM0 -18v192h171v-113z" />
    <glyph glyph-name="less" unicode="&#x3c;" horiz-adv-x="392" 
d="M118 353l264 -111v-93l-387 173v74l387 173v-93z" />
    <glyph glyph-name="equal" unicode="=" horiz-adv-x="430" 
d="M420 480v-90h-410v90h410zM420 318v-90h-410v90h410z" />
    <glyph glyph-name="greater" unicode="&#x3e;" horiz-adv-x="392" 
d="M274 353l-264 117v93l387 -173v-74l-387 -173v93z" />
    <glyph glyph-name="question" unicode="?" horiz-adv-x="697" 
d="M159 160h178v-160h-178v160zM159 221v210l277 127v65h-258v-104h-179v282h616v-353l-278 -132v-95h-178z" />
    <glyph glyph-name="at" unicode="@" horiz-adv-x="817" 
d="M176 566l67 -39h-14l-29 16l-27 -28l42 -20l28 13h20l26 -47l-53 22l-51 -29l-40 19l-25 25v31zM193 447l25 14l16 -12l1 -12zM462 329l33 114l44 24l22 -22v-22l-26 4l14 -14l-14 -30l-26 9l-14 -49zM506 348l10 31l18 -7l-8 -17zM38 307l45 20l87 -33l49 -7l20 -50
l-20 -20l-26 27l-39 -28h-15l-42 21l-23 -12zM88 270h16l43 -9l-43 25l-22 -11zM37 360l26 40l39 -13h17v18l30 -11l-11 -35l-15 -15l-41 12l-27 -11zM88 497l-6 -17l-27 27l19 19zM734 531l-7 -180l-22 -85l-59 -60l-69 -206h-104l14 22l-34 14l-12 -36h-53l70 229l-17 17
l-16 -48l-61 -26l-15 -42l12 -28l-38 -102h-90l-33 61l-37 12l-50 -25l-113 49l16 15l66 36l13 75l20 -20l3 -31l36 -18l32 -4l11 41l28 13l37 -37l139 73l11 47l44 18l4 -20l92 48l34 107l-33 65l-75 -38l-13 -44l-31 15l-33 -8l-22 49l16 64l22 8l10 -29l38 -17l8 26
l-13 41l104 47l85 -32l34 12q-23 50 -38.5 85.5t-25.5 57.5q-32 21 -57 39q-80 21 -152 21q-70 0 -161 -19q-71 -14 -118 -100l-55 -148l-13 -9l56 162q49 97 125 112q53 10 96.5 15t78.5 5q70 0 150 -20l68 -43l86 -198v-6z" />
    <glyph glyph-name="A" unicode="A" horiz-adv-x="719" 
d="M142 620h-125v179h600v-800h-179v136h-238l-36 -136h-184zM438 314v306h-112l-80 -306h192z" />
    <glyph glyph-name="B" unicode="B" horiz-adv-x="739" 
d="M648 477l-88 -79l88 -61v-337h-648v799h649zM403 318h-224v-140h276v91zM403 497l52 51v72h-276v-123h224z" />
    <glyph glyph-name="C" unicode="C" horiz-adv-x="721" 
d="M0 -1v800h626v-179h-447v-442h447v-179h-626z" />
    <glyph glyph-name="D" unicode="D" horiz-adv-x="781" 
d="M697 799v-179l-163 -621h-459v621h-75v179h697zM511 620h-257v-442h142z" />
    <glyph glyph-name="E" unicode="E" horiz-adv-x="701" 
d="M0 -1v800h627v-179h-448v-123h350v-179h-350v-140h448v-179h-627z" />
    <glyph glyph-name="F" unicode="F" horiz-adv-x="671" 
d="M0 -1v800h627v-179h-448v-123h350v-179h-350v-319h-179z" />
    <glyph glyph-name="G" unicode="G" horiz-adv-x="752" 
d="M668 -1h-668v800h668v-179h-489v-442h310v153h-187v179h366v-511z" />
    <glyph glyph-name="H" unicode="H" 
d="M637 799v-800h-179v394h-279v-394h-179v800h179v-227h279v227h179z" />
    <glyph glyph-name="I" unicode="I" horiz-adv-x="293" 
d="M5 -1v800h179v-800h-179z" />
    <glyph glyph-name="J" unicode="J" horiz-adv-x="566" 
d="M433 0h-429v179h249v621h180v-800z" />
    <glyph glyph-name="K" unicode="K" horiz-adv-x="725" 
d="M522 396l84 -396h-188l-84 396h-155v-396h-179v800h179v-225h281v225h179v-404h-117z" />
    <glyph glyph-name="L" unicode="L" horiz-adv-x="658" 
d="M579 292v-293h-579v800h179v-621h222v114h178z" />
    <glyph glyph-name="M" unicode="M" horiz-adv-x="895" 
d="M0 800h180l220 -208l221 208h179v-800h-179v558l-221 -223l-220 223v-558h-180v800z" />
    <glyph glyph-name="N" unicode="N" horiz-adv-x="717" 
d="M179 800v-96l264 -157v253h179v-800h-179v329l-264 157v-486h-179v800h179z" />
    <glyph glyph-name="O" unicode="O" horiz-adv-x="775" 
d="M0 0v800h680v-800h-680zM501 179v442h-322v-442h322z" />
    <glyph glyph-name="P" unicode="P" horiz-adv-x="704" 
d="M639 253h-460v-253h-179v800h639v-547zM460 621h-281v-189h281v189z" />
    <glyph glyph-name="Q" unicode="Q" horiz-adv-x="773" 
d="M678 3h-249v-122h-179v122h-249v796h677v-796zM500 621h-321v-440h71l1 112h178v-112h71v440z" />
    <glyph glyph-name="R" unicode="R" horiz-adv-x="779" 
d="M669 800v-479h-105l72 -321h-188l-72 321h-197v-321h-179v800h669zM490 498v123h-311v-123h311z" />
    <glyph glyph-name="S" unicode="S" horiz-adv-x="721" 
d="M638 0h-638v178h461v136h-461v486h638v-179h-459v-131h459v-490z" />
    <glyph glyph-name="T" unicode="T" horiz-adv-x="701" 
d="M620 621h-224v-621h-195v621h-221v179h640v-179z" />
    <glyph glyph-name="U" unicode="U" horiz-adv-x="742" 
d="M0 0v800h179v-620h294v620h178v-800h-651z" />
    <glyph glyph-name="V" unicode="V" horiz-adv-x="659" 
d="M429 0h-429v800h179v-621h112l162 621h184z" />
    <glyph glyph-name="W" unicode="W" horiz-adv-x="895" 
d="M800 0h-180l-220 208l-221 -208h-179v800h179v-559l221 224l220 -224v559h180v-800z" />
    <glyph glyph-name="X" unicode="X" horiz-adv-x="691" 
d="M601 1h-178v233l-64 66h-115l-64 -66v-233h-180v303l106 107l-106 91v299h180v-233l64 -66h115l64 66v233h178v-299l-110 -91l110 -107v-303v0z" />
    <glyph glyph-name="Y" unicode="Y" horiz-adv-x="740" 
d="M238 -1v296h-238v504h179v-325h280v325h180v-504h-222v-296h-179z" />
    <glyph glyph-name="Z" unicode="Z" horiz-adv-x="718" 
d="M0 349l460 207v65h-460v179h638v-353l-460 -212v-57h460v-178h-638v349z" />
    <glyph glyph-name="bracketleft" unicode="[" horiz-adv-x="237" 
d="M30 824h204v-82h-43v-673h43v-82h-204v837z" />
    <glyph glyph-name="backslash" unicode="\" horiz-adv-x="386" 
d="M-40 746l68 36l398 -760l-68 -36z" />
    <glyph glyph-name="bracketright" unicode="]" horiz-adv-x="203" 
d="M163 814v-837h-204v82h43v673h-43v82h204z" />
    <glyph glyph-name="asciicircum" unicode="^" horiz-adv-x="409" 
d="M204 696l-128 -294h-86l176 398h77l176 -398h-86z" />
    <glyph glyph-name="underscore" unicode="_" horiz-adv-x="500" 
d="M500 -122h-500v50h500v-50z" />
    <glyph glyph-name="a" unicode="a" 
d="M20 315l105 306h-125v179h616v-800h-179v136h-238v-136h-179v315zM209 315h228v306h-139z" />
    <glyph glyph-name="b" unicode="b" horiz-adv-x="721" 
d="M648 477l-88 -79l88 -61v-337h-648v799h649zM403 318h-224v-140h276v91zM403 497l52 51v72h-276v-123h224z" />
    <glyph glyph-name="c" unicode="c" horiz-adv-x="698" 
d="M0 0v799h626v-179h-447v-442h447v-178h-626z" />
    <glyph glyph-name="d" unicode="d" horiz-adv-x="764" 
d="M87 -1l-3 621h-83v179h539l163 -621v-179h-616zM400 620h-146v-442h263z" />
    <glyph glyph-name="e" unicode="e" horiz-adv-x="727" 
d="M0 0v799h670l-83 -498h-408v-123h448v-178h-627zM179 480h250l23 140h-273v-140z" />
    <glyph glyph-name="f" unicode="f" horiz-adv-x="698" 
d="M0 0v799h627v-179h-448v-123h350v-179h-350v-318h-179z" />
    <glyph glyph-name="g" unicode="g" horiz-adv-x="761" 
d="M668 0h-668v799h668v-179h-489v-442h310v153h-187v179h366v-510z" />
    <glyph glyph-name="h" unicode="h" 
d="M637 572v-573h-179v394h-279v-394h-179v800h179v-227h458z" />
    <glyph glyph-name="i" unicode="i" horiz-adv-x="271" 
d="M180 800v-180h-180v180h180zM180 517v-517h-180v517h180z" />
    <glyph glyph-name="j" unicode="j" horiz-adv-x="531" 
d="M433 0h-429v179h249v621h180v-800z" />
    <glyph glyph-name="k" unicode="k" horiz-adv-x="727" 
d="M639 404v-404h-179v225h-281v-225h-179v800h179v-396h155l84 395h188l-84 -395h117z" />
    <glyph glyph-name="l" unicode="l" horiz-adv-x="616" 
d="M0 800h179v-621h400v-179h-579v800z" />
    <glyph glyph-name="m" unicode="m" horiz-adv-x="1003" 
d="M0 0v800h392l73 -89l67 88h387v-799h-178v606h-141l-49 -52v-554h-179v554l-51 52h-142v-606h-179z" />
    <glyph glyph-name="n" unicode="n" horiz-adv-x="727" 
d="M179 800v-96l276 -157v253h179v-800h-179v329l-276 157v-486h-179v800h179z" />
    <glyph glyph-name="o" unicode="o" horiz-adv-x="771" 
d="M0 0v800h681v-800h-681zM502 179v442h-323v-442h323z" />
    <glyph glyph-name="p" unicode="p" horiz-adv-x="705" 
d="M572 253h-393v-253h-179v800h665zM453 621h-274v-189h237z" />
    <glyph glyph-name="q" unicode="q" horiz-adv-x="761" 
d="M678 3h-250v-122h-178v122h-249v796h677v-796zM500 621h-321v-440h71v112h178v-112h72v440z" />
    <glyph glyph-name="r" unicode="r" horiz-adv-x="728" 
d="M639 800v-566h-105l72 -234h-188l-72 234h-167v-234h-179v800h639zM460 412v209h-281v-209h281z" />
    <glyph glyph-name="s" unicode="s" horiz-adv-x="721" 
d="M638 0h-638v178h461v136h-461v486h638v-179h-459v-131h459v-490z" />
    <glyph glyph-name="t" unicode="t" horiz-adv-x="719" 
d="M643 621h-220v-621h-201v621h-219v179h640v-179z" />
    <glyph glyph-name="u" unicode="u" horiz-adv-x="718" 
d="M179 0h-179v800h179v-605l265 81v524h179v-800h-179v81z" />
    <glyph glyph-name="v" unicode="v" horiz-adv-x="704" 
d="M595 485l-180 -485h-415v800h179v-621h123l113 306v315h180v-315v0z" />
    <glyph glyph-name="w" unicode="w" horiz-adv-x="1025" 
d="M179 800v-606h142l51 52v454h179v-454l49 -52h141v606h178v-799h-387l-67 88l-73 -89h-392v800h179z" />
    <glyph glyph-name="x" unicode="x" horiz-adv-x="727" 
d="M467 0l-104 316h-66l-105 -316h-198l147 401l-135 394h197l94 -309h66l93 309h202l-135 -394l146 -401h-202z" />
    <glyph glyph-name="y" unicode="y" horiz-adv-x="734" 
d="M639 799v-800h-638v179h459v116h-460v505h180v-325h280v325h179z" />
    <glyph glyph-name="z" unicode="z" horiz-adv-x="730" 
d="M0 349l460 207v65h-460v179h638v-353l-460 -212v-57h460v-178h-638v349z" />
    <glyph glyph-name="braceleft" unicode="{" horiz-adv-x="231" 
d="M68 724h163v-82h-43v-277l-62 -58l62 -58v-280h43v-82h-163v353l-78 67l78 67v350z" />
    <glyph glyph-name="bar" unicode="|" horiz-adv-x="160" 
d="M40 0v700h80v-700h-80z" />
    <glyph glyph-name="braceright" unicode="}" horiz-adv-x="231" 
d="M163 724v-350l78 -67l-78 -67v-353h-163v82h43v280l62 58l-62 58v277h-43v82h163z" />
    <glyph glyph-name="asciitilde" unicode="~" horiz-adv-x="401" 
d="M336 451l70 -35l-99 -135l-192 98l-52 -71l-68 36l99 136l191 -98z" />
    <glyph glyph-name="sterling" unicode="&#xa3;" horiz-adv-x="630" 
d="M91 795h294v-170h-124v-176h124v-103h-124v-176h315v-170h-542v170h57v176h-57v103h57v346z" />
    <glyph glyph-name="section" unicode="&#xa7;" horiz-adv-x="460" 
d="M46 801h434v-132h-274v-89h274v-580h-434v132h274v89h-274v580zM320 454h-114v-107h114v107z" />
    <glyph glyph-name="quotesingle" unicode="'" horiz-adv-x="198" 
d="M35 700h128l-38 -217h-52z" />
    <glyph glyph-name="daggerdbl" unicode="&#x2021;" 
d="M162 620h-125v179h600v-800h-179v136h-238l-36 -136h-184zM458 314v306h-112l-80 -306h192z" />
    <glyph glyph-name="paragraph" unicode="&#xb6;" horiz-adv-x="465" 
d="M190 0v359h-165v341h425v-75h-45v-625h-75v625h-65v-625h-75z" />
    <glyph glyph-name="bullet" unicode="&#x2022;" horiz-adv-x="380" 
d="M40 319q0 62 44 106t106 44t106 -44t44 -106t-44 -106t-106 -44t-106 44t-44 106z" />
    <glyph glyph-name="ellipsis" unicode="&#x2026;" horiz-adv-x="266" 
d="M0 2v171h171v-171h-171zM324 0v171h171v-171h-171zM627 1v171h171v-171h-171z" />
    <glyph glyph-name="perthousand" unicode="&#x2030;" horiz-adv-x="733" 
d="M306 700v-352h-266v352h266zM204 610h-62v-172h62v172zM708 352v-352h-266v352h266zM606 262h-62v-172h62v172zM542 752l68 -36l-398 -760l-68 36zM1047 352v-352h-266v352h266zM945 262h-62v-172h62v172z" />
    <glyph glyph-name="grave" unicode="`" horiz-adv-x="197" 
d="M249 834h-183l-86 181h183z" />
    <glyph glyph-name="registered" unicode="&#xae;" horiz-adv-x="764" 
d="M679 138q-21 0 -36 3q-8 3 -21 9q3 -3 3 -12q-11 0 -17.5 8t-9.5 8l5 -4q-3 -2 -3 -7l-4 5l-9 -19l2 6q0 4 -7 10.5t-7 11.5h9q-5 5 -5 10q6 0 15 -10q9 0 9 7q25 -13 48 -19t43 -7h-15zM669 344q0 -23 -26 -23q-6 0 -18 4l-15 5q-17 -14 -17 -24q0 -4 7 -12t11 -8
q8 0 19 14q0 5 -1 6v3q-1 8 -1.5 10t-0.5 -2q6 0 10.5 -9.5t4.5 -16.5q0 -12 -15 -22q-9 -7 -11 -10q3 0 7.5 -1t6.5 -1q3 0 8 5t8 5q0 -4 -5 -15t-8 -13q-6 -10 -9 -10h-28q-2 0 -2 -3q0 -4 3.5 -11t3.5 -11q-5 6 -17 6q0 -4 5 -8.5t8 -4.5q-1 0 -5 -2q-14 0 -26 15
q-12 -23 -12 -28t3 -9q0 -16 -19 -35q-10 -10 -11 -16l-2 3l-3 -3q1 0 3 -2l2 -1q-5 -8 -7 -8q-6 0 -9 5q1 0 2 1h1q-1 1 -1 1.5t-3 0.5t-6 -9t-7 -10h-9q-2 0 -4 -5v11q-12 0 -23.5 -8t-11.5 -19l3 -3q-3 0 -11 -7.5t-8 -10.5t3 -4l-12 -12l2 -12q0 -20 -18 -20h-266
q-2 0 -2 3q0 14 7 15v1q0 2 -2 4l5 5q0 -3 -3 6q1 1 3 1l2 2v9q1 2 3.5 7.5t7.5 15.5q7 14 7 25l-9 -4q-2 0 -7.5 1t-15.5 3l3 4t7 9t7.5 9.5t3.5 7.5q7 25 7 41q0 6 -21 17q-5 5 -5 18q-3 0 -9 2q-2 0 -4 -2q0 -3 2 -5l-1 -1h-1q-2 0 -5 5t-4 5q-5 0 -5 -4q0 -3 11 -14
q-5 -8 -6 -8q-17 0 -24 28q-2 7 -2.5 11.5t-1.5 6.5q-1 4 -6 11.5t-5 13.5q0 5 16 14l2 2q0 10 -6 10t-6 -12q-4 0 -5 13q-1 4 -1.5 7t-4.5 7q-14 26 -14 61v6.5t1 12.5l1 22q1 8 1 11.5v4.5q-2 -2 -7 -2l-7 -1q10 7 10 11q0 5 -17 5l9 7l-9 2q1 6 7 10l12 6q7 3 11 12
q1 1 1 2l2 3q1 1 1 2q3 -7 7 -7q4 3 11.5 14.5t7.5 15.5q-9 0 -19 -12q0 7 6 13.5t6 7.5q0 7 -19 11q8 0 12 7q-1 5 -1.5 12.5t-0.5 15.5t9 40l2 12q1 7 14 25l7 9l13 14q0 -5 3 9q13 43 76 63q8 2 22 6t34 11q8 5 17.5 10.5t19.5 10.5l6 2q11 2 25 4t30 4q5 1 10.5 1h10.5
q51 0 117 -32q7 -7 20 -16.5t24 -17.5q6 -5 17 -28t12 -32v-23q0 3 1.5 1t3 -6t3 -8.5t1.5 -5.5q0 -2 -2 -8q0 -4 -2 -11t-4 -14.5t-4 -14.5t-2 -11q0 -35 54 -63q24 -13 38 -14q0 -2 1 -3l1 -4q-28 -3 -30 -4l-2 -6l-2 -6q-3 -3 -9 -11l11 -7l11 13h6q0 -3 -3.5 -8
t-7.5 -10.5t-7.5 -10t-3.5 -7.5q0 -6 1 -8l1 -12q1 -5 1 -8q0 -2 -1.5 -7.5t-1.5 -8.5q0 -24 20 -30q13 0 22 12zM557 136q0 -2 -2 -4l-3 2q2 2 5 2zM635 90q0 -4 -22 -19t-22 -22t6 -7q3 0 8.5 1t8.5 1q-8 -12 -52 -23q-23 -4 -32 -11h-28q1 3 30 14q6 3 20 23
q7 10 11 16.5t5 10.5q0 14 4 33q1 6 12 6q4 0 8 -6.5t8 -6.5q3 0 9.5 1t10.5 1q15 0 15 -12zM465 10h-27l9.5 9.5l13.5 13.5q0 12 7 30q8 23 15.5 25t16.5 2q6 0 6 -6zM102 76l-14 -22q-3 -5 -9 -5q-5 0 -5 11q13 16 23 16h5zM134 10h-10v4h10v-4zM112 60l-1 -1v-1
q-12 -20 -12 -48h-25q7 4 12 17q5 14 9 20q6 13 13 13h4zM71 25q0 -11 -9 -11h-2q3 11 11 11zM411 702q-1 2 -3 4t-4 5q0 2 1 4v5q0 3 1 4q-4 -5 -10 -7h-11q5 -5 5 -7v-12q3 0 6 3l4 2h5zM530 456q0 8 -1.5 19.5t-3.5 27.5t-3.5 27.5t-1.5 19.5q0 4 2.5 12.5t2.5 13.5
q-30 61 -132 61q-56 0 -110 -14q-72 -20 -72 -63v-7q4 -2 5 -2q3 0 9 2l27 13q13 -2 32.5 -4.5t45.5 -6.5q12 -4 23 -14v-6l-2 -17v-11l7 -14q0 -18 -8 -18q-7 0 -7 7l-6 -5l-2 2q2 2 2 5q0 2 -1 2h-3l-2 -1v7q-1 3 -1 6t5 11q-11 0 -21 2l-9 3q-4 -7 -15 -7q-4 0 -10.5 2
t-9.5 2q2 -8 20 -11q-1 -2 -6 -3t-18 -12q-4 -4 -8 -6q-3 0 -3 3h-34q-10 0 -10 -14q0 -4 9 -19q10 -14 10 -18q1 1 2 1.5t2 1.5q10 0 10 -21h4v4q16 -10 16 -25v-9q0 -2 -8 -2q-6 0 -8 2q-2 0 -2 -2q0 -16 25 -28q0 12 32 20q16 4 22 10q5 5 8 9t5 6q0 7 -16 8q-7 0 -15 7
q0 6 7 6v-6h5q3 21 26 21q5 0 13.5 -4t12.5 -4t12 1.5t13 1.5h7q5 -3 5 -8q0 -6 -14 -6l-4 1q-3 1 -7 1q-2 0 -7.5 -3.5t-7.5 -3.5t-8 3q-3 2 -5 3.5t-3.5 0t-2 -7.5t-0.5 -19q2 -6 2 -16l-6 -8l-2 -3q75 -13 86 -31q0 -2 -10 -2q-3 0 -12 3.5t-13 3.5h-55q-2 0 -2 -8
q0 -12 30 -15q30 -2 30 -9q0 -4 -7 -7q-55 -1 -85 -12q-5 -15 -5 -19q31 -21 35 -21h11q2 -1 7.5 -5t10.5 -4q7 0 22.5 2.5t23.5 2.5l8 2q15 5 22 15q2 3 3.5 6l3.5 7q1 1 8 1q0 -12 10 -12q7 0 7 5v23q0 5 7 9q1 1 2 1l3 1q0 22 10 22l3 -6q12 0 12 51q1 -3 3 -3t2 3
q1 4 3 14.5t6 29.5q7 25 7 45zM262 493l-4 -2l2 -3zM452 198q-3 -2 -3 -4v-3q3 1 3 5v2zM314 328q-6 2 -11 2q-2 2 -5 2q-5 0 -5 -7q21 1 21 3zM455 133q0 1 -1 1h-2q-16 -6 -16 -13v-1q0 -2 2 -2h1q8 0 17 14zM426 132q-2 6 -4 6l-25 -2q-20 -11 -39 -27v5q0 2 1 6.5t1 7.5
q0 8 -5 10q-6 -5 -18 -30q-12 -24 -12 -33q4 0 8.5 5t5.5 6l11 3q7 3 10 3q6 4 15 9t22 12q7 3 24 12q5 5 5 7zM326 130q-1 1 -2 2.5t-3 3.5l-5 -9h2q1 0 3.5 1.5t4.5 1.5zM335 136q-7 -7 -21 -34v-3q5 0 13 15q8 16 8 22zM312 111q-2 3 -3 3l-2 -8l2 -2q3 3 3 7zM312 74
q-5 -2 -5 -7v-2q5 2 5 8v1zM301 62q0 3 -11 8q-4 -4 -4 -5l-3 3q-1 1 -1.5 1t-1.5 1q-2 0 -2 -7q2 -5 12 -5t11 4zM506 535q0 -15 -9 -15q-5 0 -7 5q-6 2 -9 2h-5l-5 -1q0 -4 14 -13q15 -8 15 -19q0 -6 -3 -6h-18q-2 0 -6 8t-7 8q-2 0 -7 -2.5t-7 -2.5q-4 0 -5 1
q-6 2 -11 11q-4 0 -11 -1.5t-10 -1.5q-21 0 -21 14q0 26 19 26h71q22 0 22 -13zM500 342q0 -10 -5 -10v15q5 0 5 -5zM482 312l-2 -6l-4 2zM455 319q0 -6 -1 -9l-5 -5q-7 4 -7 18v16q-5 3 -9 9q0 6 4 6q18 0 18 -35zM424 353q0 -5 -2 -9q-5 2 -5 14l1 1l1 1q5 -2 5 -7z
M459 514q0 4 -4 4q-6 -2 -6 -4t2 -4l1 -1h2q5 2 5 5z" />
    <glyph glyph-name="copyright" unicode="&#xa9;" horiz-adv-x="870" 
d="M724 95l-99 95q-91 -61 -200 -61q-89 0 -166 50l-137 -258l-111 79l211 259q81 -48 160 -48q85 0 164 55l-116 112l-56 -67l-107 71l125 142l149 -9l-69 -88l133 -105q30 42 34 90q0 101 -39 169q-68 115 -237 117q-63 1 -125 -38q94 85 186 85q142 0 236 -92
q94 -91 94 -232q0 -29 -4.5 -56t-12 -50t-18 -40t-22.5 -26l101 -80z" />
    <glyph glyph-name="quotedbl" unicode="&#x22;" horiz-adv-x="389" 
d="M35 700h128l-38 -217h-52zM226 700h128l-38 -217h-52z" />
    <glyph glyph-name="exclam" unicode="!" horiz-adv-x="272" 
d="M0 0v179h180v-179h-180zM0 283v517h180v-517h-180z" />
    <glyph glyph-name="uni0401" unicode="&#x401;" horiz-adv-x="694" 
d="M0 -1v800h628v-179h-449v-123h350v-179h-350v-140h449v-179h-628zM93 835v171h171v-171h-171zM364 836v171h171v-171h-171z" />
    <glyph glyph-name="uni0405" unicode="&#x405;" horiz-adv-x="721" 
d="M638 0h-638v178h461v136h-461v486h638v-179h-459v-131h459v-490z" />
    <glyph glyph-name="glyph108" horiz-adv-x="300" 
d="M26 -1v800h179v-800h-179z" />
    <glyph glyph-name="uni0407" unicode="&#x407;" horiz-adv-x="1224" 
d="M580 358q0 16 -7 20h-4q-5 -9 -4 -47l5 -5q10 9 10 32zM1007 320q36 -5 47 -26q12 -22 -7 -56q-18 -33 -42 -45q-10 -5 -28.5 -10.5t-47.5 -12.5q-51 -12 -72 -28q-47 -35 -121 -57q-104 -32 -129 -42q-8 3 -37 3q-25 0 -36 11q-15 0 -22 22q-6 23 -9 26l-4 -5
q2 -30 0 -89l-12 -13q-12 -1 -30 -0.5t-41 1.5q-56 3 -61 9q0 2 3 7.5t3 6.5q0 5 -18 13q-18 7 -26 9l-9 8q5 7 5 16q0 20 -23 49q-23 30 -41 31q-5 2 -10.5 6.5t-13.5 9.5q-4 12 -23 39l-1 18l8 2q28 -54 103 -54q67 0 121 39q59 44 65 107q1 2 6 4.5t10.5 5.5t10.5 6.5
t6 7.5q6 24 6 67q0 89 -27 109q3 31 -18 45q0 5 -8.5 12.5t-8.5 12.5q-7 6 -35 10q-26 4 -31 13l-12 1l-3 -9q6 -9 21 -9q8 -8 16 -15.5t16 -15.5q26 -27 25 -31q-1 -2 -10 -5.5t-7 -8.5q24 -17 24 -22q0 -6 -6 -13q-13 -1 -37 6q-27 9 -37 9q-16 0 -29 -12q-9 0 -18 4
l-2 13q11 6 15 16q3 5 25 9q4 6 17 8q15 1 20 3q-8 14 -20 14q-10 0 -35 -15q-24 -15 -31 -14q-1 4 -2.5 9.5t-3.5 13.5l4 9q32 8 32 17t-52 28q-8 3 -24 21q-17 18 -29 21l-2 7q5 2 32 -6q25 -7 34 -7l7 5q-13 20 -32 19q-8 5 -20 13t-27 19l-13 -2q-7 -15 6 -25
q10 -7 9 -13h-13q-7 22 -59 46l-13 -6q3 -5 3 -8t-12 -24q-26 -35 -24 -49q2 -5 -15 -68q-16 -62 -20 -66q-2 -8 7 -16q0 -7 0.5 -20t1.5 -33q1 -34 0 -52q0 -7 -8 -16.5t-9 -14.5l-7 -2q-2 5 -4 30q-2 21 -10 27l-13 -3q-8 -11 -8 -21q0 -15 15 -31q14 -16 16 -21l15 -3
q15 18 19 18q9 0 9 -18v-21q1 -12 55 -72q0 -3 2.5 -7t5.5 -8.5t5 -9t1 -9.5q-3 -12 -1 -58q1 -37 -6 -56q-13 33 -26 34q-35 29 -62 51t-44 36q-53 47 -63 119q-1 7 -1.5 16.5t-0.5 23.5q0 76 22 108q13 19 13 38q0 5 -1.5 13t-3.5 16.5t-3.5 16.5t-1.5 14q0 47 57 130
q44 63 125 95q73 29 156 29q145 0 234 -77q27 -23 59 -85q15 -31 55 -63q37 -29 72 -45q16 -2 31.5 -5.5t31.5 -8.5q39 -12 52 -58q2 -7 14 -81q6 -36 38 -47q2 -1 17 -2.5t44 -5.5zM341 423q22 -16 20 -31q-2 -9 -22 -11q-28 -3 -30 -4q-2 2 -8 3t-13 2t-13 2.5t-8 4.5
q2 6 7 10q9 9 20.5 15t20.5 3q12 9 10 27q-1 12 -1.5 19.5t0.5 11.5l8 5q2 -4 6.5 -9t9.5 -12q0 -5 -4 -14.5t-4 -14.5q0 -4 1 -7zM221 571q22 0 44 -18t29 -40q-19 -52 -34 -52q-2 0 -27 11q-11 5 -19 8.5t-12 4.5q-8 2 -20 -4l-25 -11l-3 12q10 13 39 39q8 2 20.5 5
t28.5 8q-3 17 -20 9q-26 8 -36 -4l-16 -2l3 11l16 5q13 18 32 18zM145 514q0 7 7 14t14 6q1 -7 -15 -20h-6zM392 329q-49 -45 -60 -43q-47 3 -47 12q0 8 16 21q-5 8 -10 8q-3 0 -15 -8t-18 -8q-9 0 -18 10q2 5 32 16q31 10 36 9q9 -6 18 5q5 5 9 7q3 0 5 -2q10 -8 24 -13
q3 -1 9.5 -2t17.5 -3zM561 304q10 1 7 9q-1 7 -9 4t-6 -9q0 -1 8 -4zM274 511q7 -1 9 1q2 7 -0.5 8t-13.5 8q-8 5 -12 5q-1 0 -7 -2q10 -13 24 -20zM320 383q3 10 -3 21l-9 -17z" />
    <glyph glyph-name="uni0408" unicode="&#x408;" horiz-adv-x="566" 
d="M433 0h-429v179h249v621h180v-800z" />
    <glyph glyph-name="uni0455" unicode="&#x455;" horiz-adv-x="721" 
d="M638 0h-638v178h461v136h-461v486h638v-179h-459v-131h459v-490z" />
    <glyph glyph-name="uni0456" unicode="&#x456;" horiz-adv-x="271" 
d="M180 800v-180h-180v180h180zM180 517v-517h-180v517h180z" />
    <glyph glyph-name="uni0458" unicode="&#x458;" horiz-adv-x="566" 
d="M433 0h-429v179h249v621h180v-800z" />
    <glyph glyph-name="glyph114" horiz-adv-x="0" 
 />
    <glyph glyph-name="glyph115" horiz-adv-x="500" 
 />
    <glyph glyph-name="glyph116" horiz-adv-x="819" 
d="M658 799v-621h75v-179h-733v179h89l122 621h447zM479 178v442h-130l-73 -442h203z" />
    <glyph glyph-name="glyph117" horiz-adv-x="500" 
 />
    <glyph glyph-name="nonbreakingspace" unicode="&#xa0;" horiz-adv-x="506" 
 />
    <glyph glyph-name="S_T" horiz-adv-x="1422" 
d="M638 0h-638v178h461v136h-461v486h702l-63 -179h-460v-131h459v-490zM1341 621h-230v-621h-180v621h-244l58 179h596v-179z" />
    <glyph glyph-name="uni0422" unicode="&#x422;" horiz-adv-x="701" 
d="M620 621h-224v-621h-195v621h-221v179h640v-179z" />
    <glyph glyph-name="uni0442" unicode="&#x442;" horiz-adv-x="938" 
d="M819 800v-800h-179v621h-148v-519h-179v519h-134v-621h-179v800h819z" />
    <glyph glyph-name="acute" unicode="&#xb4;" horiz-adv-x="833" 
d="M355 994h158l-86 -181h-158z" />
    <glyph glyph-name="Iacute" unicode="&#xcd;" horiz-adv-x="302" 
d="M5 -1v800h179v-800h-179zM105 994h158l-86 -181h-158z" />
    <glyph glyph-name="dieresis" unicode="&#xa8;" horiz-adv-x="0" 
d="M66 896h146v-119h-146v119zM313 896h146v-119h-146v119z" />
    <glyph glyph-name="Idieresis" unicode="&#xcf;" horiz-adv-x="302" 
d="M5 -1v800h179v-800h-179zM-92 972h146v-119h-146v119zM155 972h146v-119h-146v119z" />
    <glyph glyph-name="Edieresis" unicode="&#xcb;" horiz-adv-x="701" 
d="M0 -1v800h627v-179h-448v-123h350v-179h-350v-140h448v-179h-627zM123 951h146v-119h-146v119zM370 951h146v-119h-146v119z" />
    <glyph glyph-name="Adieresis" unicode="&#xc4;" horiz-adv-x="719" 
d="M142 620h-125v179h600v-800h-179v136h-238l-36 -136h-184zM438 314v306h-112l-80 -306h192zM149 956h146v-119h-146v119zM396 956h146v-119h-146v119z" />
    <glyph glyph-name="Odieresis" unicode="&#xd6;" horiz-adv-x="775" 
d="M0 0v800h680v-800h-680zM501 179v442h-322v-442h322zM144 963h146v-119h-146v119zM391 963h146v-119h-146v119z" />
    <glyph glyph-name="Udieresis" unicode="&#xdc;" horiz-adv-x="733" 
d="M0 0v800h179v-620h294v620h178v-800h-651zM125 957h146v-119h-146v119zM372 957h146v-119h-146v119z" />
    <glyph glyph-name="Oacute" unicode="&#xd3;" horiz-adv-x="775" 
d="M0 0v800h680v-800h-680zM501 179v442h-322v-442h322zM322 1006h158l-86 -181h-158z" />
    <glyph glyph-name="Eacute" unicode="&#xc9;" horiz-adv-x="701" 
d="M0 -1v800h627v-179h-448v-123h350v-179h-350v-140h448v-179h-627zM301 1019h158l-86 -181h-158z" />
    <glyph glyph-name="eacute" unicode="&#xe9;" horiz-adv-x="693" 
d="M0 0v799h670l-83 -498h-408v-123h448v-178h-627zM179 480h250l23 140h-273v-140zM303 1023h158l-86 -181h-158z" />
    <glyph glyph-name="edieresis" unicode="&#xeb;" horiz-adv-x="693" 
d="M0 0v799h670l-83 -498h-408v-123h448v-178h-627zM179 480h250l23 140h-273v-140zM129 962h146v-119h-146v119zM376 962h146v-119h-146v119z" />
    <glyph glyph-name="AE" unicode="&#xc6;" horiz-adv-x="1194" 
d="M438 -1v136h-238l-36 -136h-184l162 621h-125v179h1059v-179h-448v-123h350v-179h-350v-140h448v-179h-638zM438 314v306h-112l-80 -306h192z" />
    <glyph glyph-name="OE" unicode="&#x152;" horiz-adv-x="1324" 
d="M501 0h-501v800l1128 -1v-179h-448v-123h350v-179h-350v-140h448v-179zM501 179v442h-322v-442h322z" />
    <glyph glyph-name="ograve" unicode="&#xf2;" horiz-adv-x="771" 
d="M0 0v800h681v-800h-681zM502 179v442h-323v-442h323zM264 974l150 -86l-32 -54l-155 73z" />
    <glyph glyph-name="uacute" unicode="&#xfa;" horiz-adv-x="718" 
d="M179 0h-179v800h179v-605l265 81v524h179v-800h-179v81zM301 994h158l-86 -181h-158z" />
    <glyph glyph-name="yacute" unicode="&#xfd;" horiz-adv-x="734" 
d="M639 799v-800h-638v179h459v116h-460v505h180v-325h280v325h179zM331 994h158l-86 -181h-158z" />
    <glyph glyph-name="Yacute" unicode="&#xdd;" horiz-adv-x="740" 
d="M238 -1v296h-238v504h179v-325h280v325h180v-504h-222v-296h-179zM305 1007h158l-86 -181h-158z" />
    <glyph glyph-name="aacute" unicode="&#xe1;" 
d="M20 315l105 306h-125v179h616v-800h-179v136h-245v-136h-172v315zM213 315h224v306h-135zM378 1009h158l-86 -181h-158z" />
    <glyph glyph-name="oacute" unicode="&#xf3;" horiz-adv-x="771" 
d="M0 0v800h681v-800h-681zM502 179v442h-323v-442h323zM304 1008h158l-86 -181h-158z" />
    <glyph glyph-name="ydieresis" unicode="&#xff;" horiz-adv-x="734" 
d="M31 960h146v-119h-146v119zM468 960h146v-119h-146v119zM639 799v-800h-638v179h459v116h-460v505h180v-325h280v325h179z" />
    <glyph glyph-name="Uacute" unicode="&#xda;" horiz-adv-x="733" 
d="M0 0v800h179v-620h294v620h178v-800h-651zM331 994h158l-86 -181h-158z" />
    <glyph glyph-name="afii10017" unicode="&#x410;" horiz-adv-x="719" 
d="M142 620h-125v179h600v-800h-179v136h-238l-36 -136h-184zM438 314v306h-112l-80 -306h192z" />
    <glyph glyph-name="afii10018" unicode="&#x411;" horiz-adv-x="725" 
d="M628 497v-497h-1v-1h-627v800h627v-179h-448v-123h449zM179 178h270v140h-270v-140z" />
    <glyph glyph-name="afii10019" unicode="&#x412;" horiz-adv-x="721" 
d="M628 477l-88 -79l88 -61v-337h-628v799h629zM383 318h-204v-140h256v91zM383 497l52 51v72h-256v-123h204z" />
    <glyph glyph-name="afii10020" unicode="&#x413;" horiz-adv-x="615" 
d="M0 800h579v-179h-400v-621h-179v800z" />
    <glyph glyph-name="afii10021" unicode="&#x414;" horiz-adv-x="819" 
d="M558 -1h-393v-110h-165v289h89l122 621h458v-621h75l-1 -289h-185v110zM490 178v442h-141l-73 -442h214z" />
    <glyph glyph-name="afii10022" unicode="&#x415;" horiz-adv-x="703" 
d="M0 -1v800h628v-179h-449v-123h350v-179h-350v-140h449v-179h-628z" />
    <glyph glyph-name="afii10024" unicode="&#x416;" horiz-adv-x="1025" 
d="M820 396l85 -396h-188l-85 396h-73v-397h-179h-1v397h-73l-85 -396h-188l85 396h-118v403h179v-225h200v225h179h1v-225h200v225h179v-403h-118z" />
    <glyph glyph-name="afii10025" unicode="&#x417;" horiz-adv-x="638" 
d="M-1 -1v178h371v126h-205v176l170 143h-336v177h550v-176l-176 -144h176v-480h-550z" />
    <glyph glyph-name="afii10026" unicode="&#x418;" horiz-adv-x="717" 
d="M622 800v-800h-179v486l-264 -157v-329h-179v800h179v-253l264 157v96h179z" />
    <glyph glyph-name="afii10027" unicode="&#x419;" horiz-adv-x="717" 
d="M622 800v-800h-179v486l-264 -157v-329h-179v800h179v-253l264 157v96h179zM228 740v96h171v-96h-171z" />
    <glyph glyph-name="afii10028" unicode="&#x41a;" horiz-adv-x="725" 
d="M522 396l84 -396h-188l-84 396h-155v-396h-179v800h179v-225h281v225h179v-404h-88h-29z" />
    <glyph glyph-name="afii10029" unicode="&#x41b;" 
d="M458 620h-112l-161 -621h-185l162 621h-124v179h599v-800h-179v621z" />
    <glyph glyph-name="afii10030" unicode="&#x41c;" horiz-adv-x="895" 
d="M0 800h180l220 -208l221 208h179v-800h-179v558l-221 -223l-220 223v-558h-180v800z" />
    <glyph glyph-name="afii10031" unicode="&#x41d;" 
d="M637 799v-800h-179v394h-279v-394h-179v800h179v-227h279v227h179z" />
    <glyph glyph-name="afii10032" unicode="&#x41e;" horiz-adv-x="775" 
d="M0 0v800h680v-800h-680zM501 179v442h-322v-442h322z" />
    <glyph glyph-name="afii10033" unicode="&#x41f;" horiz-adv-x="733" 
d="M637 799v-800h-178v621h-280v-621h-179v800h637z" />
    <glyph glyph-name="afii10034" unicode="&#x420;" horiz-adv-x="727" 
d="M639 253h-460v-253h-179v800h639v-547zM460 621h-281v-189h281v189z" />
    <glyph glyph-name="afii10035" unicode="&#x421;" horiz-adv-x="721" 
d="M0 -1v800h626v-179h-447v-442h447v-179h-626z" />
    <glyph glyph-name="afii10036" horiz-adv-x="701" 
d="M620 621h-230v-621h-180v621h-230v179h640v-179z" />
    <glyph glyph-name="afii10037" unicode="&#x423;" horiz-adv-x="734" 
d="M639 799v-800h-638v179h459v116h-460v505h180v-325h280v325h179z" />
    <glyph glyph-name="afii10038" unicode="&#x424;" horiz-adv-x="984" 
d="M892 -2h-356v-79h-180v79h-356v802h356v79h180v-79h356v-802zM356 178v443h-177v-443h177zM713 621h-177v-443h177v443z" />
    <glyph glyph-name="afii10039" unicode="&#x425;" horiz-adv-x="727" 
d="M467 0l-104 316h-66l-105 -316h-198l147 401l-135 399h197l94 -314h66l93 314h202l-135 -399l146 -401h-202z" />
    <glyph glyph-name="afii10040" unicode="&#x426;" horiz-adv-x="838" 
d="M441 178v621h179v-621h133v-179h-753v800h179v-621h262z" />
    <glyph glyph-name="afii10041" unicode="&#x427;" horiz-adv-x="734" 
d="M0 799h180v-325h280v325h179v-800h-179v295h-460v505z" />
    <glyph glyph-name="afii10042" unicode="&#x428;" horiz-adv-x="942" 
d="M0 0v800h179v-621h148v518h179v-518h134v621h179v-800h-819z" />
    <glyph glyph-name="afii10043" unicode="&#x429;" horiz-adv-x="1070" 
d="M637 180v621h179v-621h133v-179h-951v800h179v-621h148v518h179v-518h133z" />
    <glyph glyph-name="afii10044" unicode="&#x42a;" horiz-adv-x="940" 
d="M415 799v-253h459v-547h-639v621h-235v179h415zM695 367h-280v-188h280v188z" />
    <glyph glyph-name="afii10045" unicode="&#x42b;" horiz-adv-x="973" 
d="M639 -1h-639v800h179v-253h460v-547zM460 367h-281v-188h281v188zM698 -1v800h180v-800h-180z" />
    <glyph glyph-name="afii10046" unicode="&#x42c;" horiz-adv-x="705" 
d="M639 -1h-639v800h179v-253h460v-547zM460 367h-281v-188h281v188z" />
    <glyph glyph-name="afii10047" unicode="&#x42d;" horiz-adv-x="570" 
d="M518 544v-290l-223 -254h-297v171h224l125 142h-245v171h245l-125 143h-224v171h297z" />
    <glyph glyph-name="afii10048" unicode="&#x42e;" horiz-adv-x="1090" 
d="M987 798v-800h-698v377h-111v-376h-179v799h179v-244h111v244h698zM798 619h-322v-442h322v442z" />
    <glyph glyph-name="afii10049" unicode="&#x42f;" horiz-adv-x="734" 
d="M639 799v-800h-179v335h-167l-72 -334h-188l72 334h-105v465h639zM460 512v108h-281v-108h281z" />
    <glyph glyph-name="afii10065" unicode="&#x430;" 
d="M20 315l105 306h-125v179h616v-800h-179v136h-238v-136h-179v315zM209 315h228v306h-139z" />
    <glyph glyph-name="afii10066" unicode="&#x431;" horiz-adv-x="725" 
d="M628 497v-497h-1v-1h-627v800h627v-179h-448v-123h449zM179 178h270v140h-270v-140z" />
    <glyph glyph-name="afii10067" unicode="&#x432;" horiz-adv-x="721" 
d="M628 788v-311l-88 -79l88 -61v-337h-1v-1h-627v800h627v-11h1zM383 318h-204v-140h256v91zM383 497l52 51v72h-256v-123h204z" />
    <glyph glyph-name="afii10068" unicode="&#x433;" horiz-adv-x="615" 
d="M0 800h579v-179h-400v-621h-179v800z" />
    <glyph glyph-name="afii10069" unicode="&#x434;" horiz-adv-x="819" 
d="M567 -1h-374v-110h-173v289h89l-73 621h642v-621h75l-1 -289h-185v110zM499 178v442h-258l55 -442h203z" />
    <glyph glyph-name="afii10070" unicode="&#x435;" horiz-adv-x="727" 
d="M0 0v799h670l-83 -498h-408v-123h448v-178h-627zM179 480h250l23 140h-273v-140z" />
    <glyph glyph-name="afii10072" unicode="&#x436;" horiz-adv-x="1025" 
d="M938 424v-423h-179v245h-200v-245h-1h-179v245h-200v-245h-179v423h118l-85 374h188l85 -374h73v375h1h179v-375h73l85 374h188l-85 -374h118z" />
    <glyph glyph-name="afii10073" unicode="&#x437;" horiz-adv-x="620" 
d="M-1 -1v178h371v126h-205v176l170 143h-336v177h550v-176l-176 -144h176v-480h-550z" />
    <glyph glyph-name="afii10074" unicode="&#x438;" horiz-adv-x="718" 
d="M179 0h-179v800h179v-605l265 81v524h179v-800h-179v81z" />
    <glyph glyph-name="afii10075" unicode="&#x439;" horiz-adv-x="718" 
d="M179 0h-179v800h179v-605l265 81v524h179v-800h-179v81zM225 781v96h171v-96h-171z" />
    <glyph glyph-name="afii10076" unicode="&#x43a;" horiz-adv-x="727" 
d="M551 403h88v-403h-179v225h-281v-225h-179v800h179v-396h155l84 395h188l-84 -395h29v-1z" />
    <glyph glyph-name="afii10077" unicode="&#x43b;" 
d="M441 0v621h-123l-113 -306v-315h-173v315l105 306h-125v179h608v-800h-179v0z" />
    <glyph glyph-name="afii10078" unicode="&#x43c;" horiz-adv-x="895" 
d="M0 800h180l220 -208l221 208h179v-800h-179v558l-221 -223l-220 223v-558h-180v800z" />
    <glyph glyph-name="afii10079" unicode="&#x43d;" 
d="M637 799v-800h-179v394h-279v-394h-179v800h179v-227h279v227h179z" />
    <glyph glyph-name="afii10080" unicode="&#x43e;" horiz-adv-x="776" 
d="M0 0v800h681v-800h-681zM502 179v442h-323v-442h323z" />
    <glyph glyph-name="afii10081" unicode="&#x43f;" horiz-adv-x="733" 
d="M637 799v-800h-178v621h-280v-621h-179v800h637z" />
    <glyph glyph-name="afii10082" unicode="&#x440;" horiz-adv-x="705" 
d="M572 253h-393v-253h-179v800h665zM457 621h-278v-189h237z" />
    <glyph glyph-name="afii10083" unicode="&#x441;" horiz-adv-x="698" 
d="M0 0v799h626v-179h-447v-442h447v-178h-626z" />
    <glyph glyph-name="afii10084" horiz-adv-x="701" 
d="M640 621h-230v-621h-180v621h-230v179h640v-179z" />
    <glyph glyph-name="afii10085" unicode="&#x443;" horiz-adv-x="734" 
d="M639 799v-800h-638v179h459v116h-460v505h180v-325h280v325h179z" />
    <glyph glyph-name="afii10086" unicode="&#x444;" horiz-adv-x="996" 
d="M892 -2h-356v-79h-180v79h-356v802h356v79h180v-79h356v-802zM356 178v443h-177v-443h177zM713 621h-177v-443h177v443z" />
    <glyph glyph-name="afii10087" unicode="&#x445;" horiz-adv-x="727" 
d="M467 0l-104 316h-66l-105 -316h-198l147 401l-135 399h197l94 -314h66l93 314h202l-135 -399l146 -401h-202z" />
    <glyph glyph-name="afii10088" unicode="&#x446;" horiz-adv-x="876" 
d="M441 178v621h179v-621h133v-179h-753v800h179v-621h262z" />
    <glyph glyph-name="afii10089" unicode="&#x447;" horiz-adv-x="734" 
d="M0 799h180v-325h280v325h179v-800h-179v295h-460v505z" />
    <glyph glyph-name="afii10090" unicode="&#x448;" horiz-adv-x="942" 
d="M0 0v800h179v-621h148v518h179v-518h134v621h179v-800h-819z" />
    <glyph glyph-name="afii10091" unicode="&#x449;" horiz-adv-x="1070" 
d="M637 180v621h179v-621h133v-179h-951v800h179v-621h148v518h179v-518h133z" />
    <glyph glyph-name="afii10092" unicode="&#x44a;" horiz-adv-x="940" 
d="M415 799v-253h459v-547h-639v621h-235v179h415zM695 367h-280v-188h280v188z" />
    <glyph glyph-name="afii10093" unicode="&#x44b;" horiz-adv-x="973" 
d="M639 -1h-639v800h179v-253h460v-547zM460 367h-281v-188h281v188zM698 -1v800h180v-800h-180z" />
    <glyph glyph-name="afii10094" unicode="&#x44c;" horiz-adv-x="705" 
d="M639 -1h-639v800h179v-253h460v-547zM460 367h-281v-188h281v188z" />
    <glyph glyph-name="afii10095" unicode="&#x44d;" horiz-adv-x="570" 
d="M518 544v-290l-223 -254h-297v171h224l125 142h-245v171h245l-125 143h-224v171h297z" />
    <glyph glyph-name="afii10096" unicode="&#x44e;" horiz-adv-x="1097" 
d="M987 798v-800h-698v377h-111v-376h-179v799h179v-244h111v244h698zM798 619h-322v-442h322v442z" />
    <glyph glyph-name="afii10097" unicode="&#x44f;" horiz-adv-x="734" 
d="M639 799v-800h-179v335h-167l-72 -334h-188l72 334h-105v465h639zM460 512v108h-281v-108h281z" />
    <glyph glyph-name="afii10058" unicode="&#x409;" horiz-adv-x="1223" 
d="M1097 -1h-639v621h-112l-161 -621h-185l162 621h-124v179h599v-253h460v-547zM918 367h-281v-188h281v188z" />
    <glyph glyph-name="afii10054" horiz-adv-x="721" 
d="M638 0h-638v178h461v136h-461v486h638v-179h-459v-131h459v-490z" />
    <glyph glyph-name="afii10102" horiz-adv-x="721" 
d="M638 0h-638v178h461v136h-461v486h638v-179h-459v-131h459v-490z" />
    <glyph glyph-name="afii10101" unicode="&#x454;" horiz-adv-x="833" 
 />
    <glyph glyph-name="afii10071" unicode="&#x451;" horiz-adv-x="694" 
d="M105 962h146v-119h-146v119zM352 962h146v-119h-146v119z" />
    <glyph glyph-name="afii10052" unicode="&#x403;" horiz-adv-x="615" 
d="M0 800h579v-179h-400v-621h-179v800zM272 994h158l-86 -181h-158z" />
    <glyph glyph-name="afii10100" unicode="&#x453;" horiz-adv-x="615" 
d="M0 800h579v-179h-400v-621h-179v800zM272 994h158l-86 -181h-158z" />
    <glyph glyph-name="afii10061" unicode="&#x40c;" horiz-adv-x="725" 
d="M522 396l84 -396h-188l-84 396h-155v-396h-179v800h179v-225h281v225h179v-404h-88h-29zM327 994h158l-86 -181h-158z" />
    <glyph glyph-name="afii10109" unicode="&#x45c;" horiz-adv-x="727" 
d="M551 403h88v-403h-179v225h-281v-225h-179v800h179v-396h155l84 395h188l-84 -395h29v-1zM328 994h158l-86 -181h-158z" />
    <glyph glyph-name="afii10106" unicode="&#x459;" horiz-adv-x="1223" 
d="M1097 -1h-639v621h-112l-161 -621h-185l162 621h-124v179h599v-253h460v-547zM918 367h-281v-188h281v188z" />
    <glyph glyph-name="afii10056" horiz-adv-x="833" 
 />
    <glyph glyph-name="uni0406" unicode="&#x406;" horiz-adv-x="833" 
 />
    <glyph glyph-name="afii10023" horiz-adv-x="694" 
d="M0 -1v800h628v-179h-449v-123h350v-179h-350v-140h449v-179h-628zM110 962h146v-119h-146v119zM357 962h146v-119h-146v119z" />
    <glyph glyph-name="quotedblright" unicode="&#x201d;" horiz-adv-x="487" 
d="M0 686v192h171v-113zM230 686v192h171v-113z" />
    <glyph glyph-name="quotedblbase" unicode="&#x201e;" horiz-adv-x="487" 
d="M0 -193v192h171v-113zM230 -193v192h171v-113z" />
    <glyph glyph-name="endash" unicode="&#x2013;" horiz-adv-x="833" 
d="M4 370h618v-130h-618v130z" />
    <glyph glyph-name="emdash" unicode="&#x2014;" horiz-adv-x="955" 
d="M4 370h814v-130h-814v130z" />
    <glyph glyph-name="igrave" unicode="&#xec;" horiz-adv-x="271" 
d="M0 517v-517h180v517h-180zM180 619h-183l-86 181h183z" />
    <glyph glyph-name="Agrave" unicode="&#xc0;" horiz-adv-x="719" 
d="M142 620h-125v179h600v-800h-179v136h-238l-36 -136h-184zM438 314v306h-112l-80 -306h192zM477 831h-183l-86 181h183z" />
    <glyph glyph-name="egrave" unicode="&#xe8;" horiz-adv-x="727" 
d="M0 0v799h670l-83 -498h-408v-123h448v-178h-627zM179 480h250l23 140h-273v-140zM494 834h-183l-86 181h183z" />
    <glyph glyph-name="agrave" unicode="&#xe0;" 
d="M20 315l105 306h-125v179h616v-800h-179v136h-238v-136h-179v315zM209 315h228v306h-139zM471 834h-183l-86 181h183z" />
    <glyph glyph-name="Egrave" unicode="&#xc8;" horiz-adv-x="701" 
d="M0 -1v800h627v-179h-448v-123h350v-179h-350v-140h448v-179h-627zM453 834h-183l-86 181h183z" />
    <glyph glyph-name="Aacute" unicode="&#xc1;" horiz-adv-x="719" 
d="M142 620h-125v179h600v-800h-179v136h-238l-36 -136h-184zM438 314v306h-112l-80 -306h192zM353 1019h158l-86 -181h-158z" />
    <glyph glyph-name="Igrave" unicode="&#xcc;" horiz-adv-x="293" 
d="M5 -1v800h179v-800h-179zM189 850h-183l-86 181h183z" />
    <glyph glyph-name="Ograve" unicode="&#xd2;" horiz-adv-x="775" 
d="M0 0v800h680v-800h-680zM501 179v442h-322v-442h322zM479 834h-183l-86 181h183z" />
    <glyph glyph-name="ae" unicode="&#xe6;" horiz-adv-x="1194" 
d="M438 -1v136h-238l-36 -136h-184l162 621h-125v179h1059v-179h-448v-123h350v-179h-350v-140h448v-179h-638zM438 314v306h-112l-80 -306h192z" />
    <glyph glyph-name="adieresis" unicode="&#xe4;" 
d="M20 315l105 306h-125v179h616v-800h-179v136h-238v-136h-179v315zM209 315h228v306h-139zM151 962h146v-119h-146v119zM398 962h146v-119h-146v119z" />
    <glyph glyph-name="idieresis" unicode="&#xef;" horiz-adv-x="271" 
d="M180 718v-718h-180v718h180zM-102 896h146v-119h-146v119zM145 896h146v-119h-146v119z" />
    <glyph glyph-name="udieresis" unicode="&#xfc;" horiz-adv-x="718" 
d="M179 0h-179v800h179v-605l265 81v524h179v-800h-179v81zM110 964h146v-119h-146v119zM357 964h146v-119h-146v119z" />
    <glyph glyph-name="odieresis" unicode="&#xf6;" horiz-adv-x="771" 
d="M0 0v800h681v-800h-681zM502 179v442h-323v-442h323zM138 969h146v-119h-146v119zM385 969h146v-119h-146v119z" />
    <glyph glyph-name="ugrave" unicode="&#xf9;" horiz-adv-x="718" 
d="M179 0h-179v800h179v-605l265 81v524h179v-800h-179v81zM409 834h-183l-86 181h183z" />
    <glyph glyph-name="one" unicode="1" horiz-adv-x="407" 
d="M308 799v-800h-180v575l-121 -31v179l121 31v46h180z" />
    </font>
</defs>
</svg>
