<?xml version="1.0" encoding="utf-8"?>
<!-- Generator: Adobe Illustrator 17.0.0, SVG Export Plug-In . SVG Version: 6.00 Build 0)  -->
<!DOCTYPE svg PUBLIC "-//W3C//DTD SVG 1.1//EN" "http://www.w3.org/Graphics/SVG/1.1/DTD/svg11.dtd">
<svg version="1.1" id="new_x5F_game_x5F_chip2" xmlns="http://www.w3.org/2000/svg" xmlns:xlink="http://www.w3.org/1999/xlink"
	 x="0px" y="0px" width="193.178px" height="309.99px" viewBox="0 0 193.178 309.99" enable-background="new 0 0 193.178 309.99"
	 xml:space="preserve">
<g id="body">
	<path fill="#FFFFFF" stroke="#000000" stroke-miterlimit="10" d="M166.736,136.004c0,55.96-34.91,101.325-77.974,101.325
		s-77.974-45.365-77.974-101.325c0-33.304,4.215-55.738,19.455-71.325c8.85-9.051,41.085-30,58.519-30
		c24.158,0,53.75,10.276,68.052,32.69C168.007,84.911,166.736,111.436,166.736,136.004z"/>
</g>
<g id="ts1">
	<path fill="#FFFFFF" stroke="#000000" stroke-miterlimit="10" d="M17.551,178.162l3.741,13.594l4.575,14.424l4.1,14.642
		c0,0,4.027,12.743,4.584,17.008c0.543,4.159-1.033,13.844-4.065,16.742c-2.462,2.353-11.274,2.72-13.619,0.25
		c-5.442-5.731-1.753-23.694-1.308-31.585c0.191-3.383-1.679-13.524-5.009-14.147c-3.009-0.563-11.208,8.763-11.208,8.763
		s9.275-5.421,9.893-2.357c0.375,1.862-1.47,12.62-2.61,16.685c-0.557,1.986-2.118,16.919-2.091,18.982
		c0.089,6.907,6.34,11.363,12.935,13.416c6.647,2.069,21.36-1.065,27.507-4.333c4.048-2.152,8.776-8.818,11.251-12.676
		c2.174-3.388,8.616-14.681,8.616-14.681s-0.86,0.117-1.292,0.273"/>
</g>
<g id="ts2">
	<path fill="#FFFFFF" stroke="#000000" stroke-miterlimit="10" d="M75.218,235.162c-4.006,7.719-10.871,16.03-14.259,21.741
		c-1.716,2.892-4.306,12.259-2.823,15.324c1.549,3.203,9.704,3.902,13.083,3.601c6.824-0.608,22.662,0.417,26.758,5.907
		c9.409,13.426-7.604,29.056-8.374,29.709c1.807-1.853,4.347-3.261,5.942-4.599c1.631-1.369,6.257-6.701,6.257-6.701
		s5.65-8.93,6.417-12.316c0.893-3.94-0.764-12.863-3.583-15.757c-2.44-2.505-9.677-4.188-13.101-4.9
		c-4.78-0.995-14.073-4.218-15.073-8.417c-0.947-3.977,5.795-11.172,9.089-13.592c2.566-1.886,9.335-8.667,9.335-8.667"/>
</g>
<g id="ts4">
	<path fill="#FFFFFF" stroke="#000000" stroke-miterlimit="10" d="M159.635,176.329c0,0-5.781,17.062-7.194,23
		c-1.438,6.041-4.423,18.311-4.75,24.556c-0.154,2.94,1.39,11.694,1.39,11.694s3.05,8.512,5.305,9.694
		c2.22,1.164,7.073,1.365,8.194-0.999c1.28-2.699,2.512-11.879,2.306-15.945c-0.568-11.173-5.75-37.5,8.062-43.188
		c2.971-2.293,12.168-0.592,14.876,2.005c2.553,2.448,5.355,13.095,5.355,13.095s-6.775-8.335-10.043-9.412
		c-2.661-0.877-10.039,0.055-11.707,2.306c-1.748,2.358-1.489,9.552-1.043,12.694c0.413,2.904,1.494,8.624,2.319,11.5
		c0.836,2.912,3.938,11.756,3.938,11.756s2.067,8.962,2.493,11.995c0.803,5.719,1.295,17.446-5.993,22.311
		c-3.282,2.191-5.375,3.943-9.507,3.938c-4.243-0.005-9.072-0.644-11.75-1.944c-5.451-2.647-12.807-15.292-12.807-15.292
		l-14.194-21.264"/>
</g>
<g id="ts3">
	<path fill="#FFFFFF" stroke="#000000" stroke-miterlimit="10" d="M95.17,233.329l-6.25,9.987c0,0-4.299,6.492-4.514,9
		c-1.986,11.263,4.523,14.924,8.758,17.269c5.265,2.914,18.189,0.621,24.061-0.694c5.335-1.195,15.431-4.277,19.877-7.124
		c2.236-1.432,6.197-5.106,7.756-7.255c1.962-2.705,5.089-9.395,5.617-12.127c1-5.173-0.175-16.431-2.867-20.993
		c-1.669-2.829-7.35-6.619-10.126-8.375c-2.237-1.415-6.735-4.23-9.118-5.382c-4.946-2.391-15.014-7.023-19.376-10.361
		c-5.388-3.717-8.57-7.765-10.569-17.944c-0.623-2.675,0.258-8.64,1.937-10.813c3.648-3.688,16.544-4.994,16.544-4.994
		s-6.635-2.414-10.481-2.931c-3.91-0.525-6.637-0.963-9.014,0.431c-4.811,2.822-9.975,14.626-10.242,20.306
		c-0.265,5.639,3.528,16.768,6.305,21.682c1.265,2.239,4.741,6.092,6.452,8.012c1.78,1.998,11.051,9.437,16.936,12.874
		c2.185,2.068,6.786,4.981,9.118,6.882c1.713,1.396,3.699,7.793,2.513,10.113c-1.355,2.65-8.328,5.266-11.123,4.243
		c-2.135-0.781-6.944,0.444,0.743-15.811"/>
</g>
<g id="eye">
	<circle fill="#FEFDF2" stroke="#000000" stroke-miterlimit="10" cx="75.433" cy="30.331" r="29.825"/>
	<path d="M81.672,59.496c16.107-3.445,26.88-16.922,24.061-30.101l-58.33,12.477C50.222,55.051,65.564,62.941,81.672,59.496z"/>
</g>
<g id="teeth">
	<polyline fill="none" stroke="#000000" stroke-miterlimit="10" points="84.536,118.887 80.582,110.47 113.761,100.869 
		140.754,89.005 140.701,96.17 	"/>
	<path stroke="#000000" stroke-miterlimit="10" d="M130.997,93.894c1.488-8.718,5.197-15.768,6.819-24.357
		c0.122,6.792,1.712,14.016,3.851,20.294"/>
	<path stroke="#000000" stroke-miterlimit="10" d="M129.991,94.525c-1.967-4.916-5.648-11.217-8.402-16.356
		c-0.432,6.803-2.909,12.62-1.927,20.071"/>
</g>
<g id="bow-tie">
	<path stroke="#000000" stroke-miterlimit="10" d="M124.636,115.693c5.459,2.928,1.725,18.506,2.3,24.674
		c0.575,6.169,7.124,20.787,2.3,24.674c-6.19,4.987-30.307-9.62-30.307-9.62l-30.307-9.62l28.007-15.054
		C96.628,130.748,117.631,111.936,124.636,115.693z"/>
	<path stroke="#000000" stroke-miterlimit="10" d="M44.913,114.693c-5.459,2.928-1.725,18.506-2.3,24.674
		c-0.575,6.169-7.124,20.787-2.3,24.674c6.19,4.987,30.307-9.62,30.307-9.62l30.307-9.62l-28.007-15.054
		C72.921,129.748,51.918,110.936,44.913,114.693z"/>
	<rect x="76.755" y="130.829" stroke="#FFFFFF" stroke-miterlimit="10" width="15" height="22.081"/>
</g>
<g id="pupi">
	<circle cx="74.713" cy="27.367" r="12.54"/>
</g>
</svg>
