<?xml version="1.0" encoding="utf-8"?>
<!-- Generator: Adobe Illustrator 17.0.0, SVG Export Plug-In . SVG Version: 6.00 Build 0)  -->
<!DOCTYPE svg PUBLIC "-//W3C//DTD SVG 1.1//EN" "http://www.w3.org/Graphics/SVG/1.1/DTD/svg11.dtd">
<svg version="1.1" xmlns="http://www.w3.org/2000/svg" xmlns:xlink="http://www.w3.org/1999/xlink" x="0px" y="0px"
	 width="684.205px" height="595.28px" viewBox="0 0 684.205 595.28" enable-background="new 0 0 684.205 595.28"
	 xml:space="preserve">
<g id="Слой_1">
	<polygon points="342.82,639.742 46.193,469.313 45.475,127.211 341.384,-44.462 638.012,125.967 638.73,468.069 	"/>
</g>
<g id="Слой_2" display="none">
	<polygon display="inline" fill="#FFFFFF" points="187.307,434.849 213.217,451.928 163.796,498.711 	"/>
	<path display="inline" fill="#FFFFFF" d="M198.29,386.086c-19.609-86.278,44.833-170.547,112.524-185.932
		c7.5-1.705,15.037-2.511,22.539-2.486c-23.578-13.636-60.043-49.011-81.272-32.124c-30.852,9.053-108.231,114.963-89.349,198.044
		c14.82,65.207,21.125,106.737,71.388,117.26C205.935,457.599,207.993,428.779,198.29,386.086z"/>
	<ellipse display="inline" fill="#FFFFFF" cx="353.699" cy="278.81" rx="171.131" ry="143.274"/>
	
		<circle display="inline" fill="#FFFFFF" stroke="#000000" stroke-width="2" stroke-miterlimit="10" cx="487.456" cy="201.192" r="60.606"/>
	<circle display="inline" stroke="#FFFFFF" stroke-miterlimit="10" cx="489.981" cy="201.192" r="21.717"/>
	<g display="inline">
		<g>
			<polygon fill="#FFFFFF" stroke="#000000" stroke-width="2" stroke-miterlimit="10" points="400.761,326.686 419.919,326.869 
				410.561,303.679 			"/>
			<polygon fill="#FFFFFF" stroke="#000000" stroke-width="2" stroke-miterlimit="10" points="488.449,328.513 498.534,326.937 
				488.33,294.699 			"/>
			<polygon fill="#FFFFFF" stroke="#000000" stroke-width="2" stroke-miterlimit="10" points="473.24,303.979 469.223,321.37 
				466.944,306.842 456.975,323.869 449.423,308.219 443.435,320.046 436.948,301.763 421.022,326.315 446.733,329.343 
				445.703,326.439 455.416,326.532 454.553,328.006 470.745,331.071 470.114,327.05 478.123,327.127 			"/>
			<polygon fill="#FFFFFF" stroke="#000000" stroke-width="2" stroke-miterlimit="10" points="506.492,311.606 503.021,326.496 
				509.678,326.559 			"/>
			<polygon fill="#FFFFFF" stroke="#000000" stroke-width="2" stroke-miterlimit="10" points="528.661,328.335 533.468,300.145 
				522.795,318.455 519.639,303.493 516.48,317.169 511.401,303.756 509.678,327.35 515.165,326.552 523.982,326.636 			"/>
			<polygon fill="#FFFFFF" stroke="#000000" stroke-width="2" stroke-miterlimit="10" points="478.123,326.462 488.33,326.559 
				483.447,303.412 			"/>
			<polygon fill="#FFFFFF" stroke="#000000" stroke-width="2" stroke-miterlimit="10" points="498.534,326.741 503.021,326.784 
				500.926,311.247 			"/>
		</g>
		
			<line fill="none" stroke="#000000" stroke-width="2" stroke-miterlimit="10" x1="529.065" y1="346.337" x2="529.065" y2="326.707"/>
		<polyline fill="#FFFFFF" stroke="#000000" stroke-width="2" stroke-miterlimit="10" points="497.643,346.337 529.065,346.337 
			529.065,326.707 400.485,326.707 		"/>
	</g>
	<polygon display="inline" fill="#FFFFFF" points="404.703,155.711 364.916,142.585 402.665,95.022 	"/>
	<polygon display="inline" fill="#FFFFFF" points="364.299,142.311 303.856,143.13 333.293,84.831 	"/>
	<polygon display="inline" fill="#FFFFFF" points="316.444,156.642 253.349,169.381 272.516,101.69 	"/>
	<polygon display="inline" fill="#FFFFFF" points="276.67,171.949 216.485,196.387 226.831,135.535 	"/>
	<polygon display="inline" fill="#FFFFFF" points="236.198,202.585 185.82,246.682 170.274,178.097 	"/>
</g>
<g id="Слой_3">
	
		<ellipse fill="#FFFFFF" stroke="#000000" stroke-width="4" stroke-miterlimit="10" cx="344.394" cy="325.146" rx="159.622" ry="154.435"/>
	<g>
		<circle fill="#FFFFFF" stroke="#000000" stroke-width="4" stroke-miterlimit="10" cx="224.578" cy="256.65" r="60.606"/>
		<circle stroke="#FFFFFF" stroke-width="4" stroke-miterlimit="10" cx="227.103" cy="256.65" r="21.717"/>
	</g>
	<g>
		
			<line fill="none" stroke="#000000" stroke-width="4" stroke-miterlimit="10" x1="174.749" y1="384.107" x2="174.749" y2="362.413"/>
		<polygon fill="#FFFFFF" stroke="#000000" stroke-width="4" stroke-miterlimit="10" points="289.33,368.203 272.765,368.445 
			280.856,337.876 		"/>
		<polygon fill="#FFFFFF" stroke="#000000" stroke-width="4" stroke-miterlimit="10" points="213.513,370.611 204.793,368.963 
			213.616,335.256 		"/>
		<polygon fill="#FFFFFF" stroke="#000000" stroke-width="4" stroke-miterlimit="10" points="226.663,338.272 230.136,361.195 
			232.106,342.044 240.726,364.489 247.255,343.86 252.433,359.45 258.042,335.35 271.811,367.714 249.581,371.705 250.472,367.877 
			242.074,368 242.82,369.943 228.821,373.983 229.366,368.683 222.441,368.784 		"/>
		<polygon fill="#FFFFFF" stroke="#000000" stroke-width="4" stroke-miterlimit="10" points="197.913,348.325 200.914,367.952 
			195.158,368.036 		"/>
		<polygon fill="#FFFFFF" stroke="#000000" stroke-width="4" stroke-miterlimit="10" points="178.745,370.377 174.589,333.217 
			183.817,357.353 186.546,337.631 189.277,355.657 193.668,337.977 195.158,369.079 190.414,368.026 182.791,368.137 		"/>
		<polygon fill="#FFFFFF" stroke="#000000" stroke-width="4" stroke-miterlimit="10" points="222.441,367.907 213.616,368.036 
			217.837,337.523 		"/>
		<polygon fill="#FFFFFF" stroke="#000000" stroke-width="4" stroke-miterlimit="10" points="204.793,368.275 200.914,368.332 
			202.725,347.851 		"/>
		<path fill="#FFFFFF" stroke="#000000" stroke-width="4" stroke-miterlimit="10" d="M211.194,394.107c-5.243,0-35.22,0-35.22,0
			v-25.876h111.172"/>
	</g>
	<path fill="#FFFFFF" stroke="#000000" stroke-width="4" stroke-miterlimit="10" d="M457.036,381.13l0.537-108.184
		c0,0,93.556,27.511,93.422,54.557C550.861,354.549,457.036,381.13,457.036,381.13z"/>
	<rect x="449.083" y="264.798" fill="#FFFFFF" width="31.498" height="124.48"/>
	<path fill="#FFFFFF" stroke="#000000" stroke-width="4" stroke-miterlimit="10" d="M395.163,78.476
		c12.538,9.825,20.328,23.518,20.328,38.673c0,29.893-30.271,54.126-67.613,54.126s-67.613-24.233-67.613-54.126
		c0-15.155,7.79-28.848,20.328-38.673c-27.786,13.024-46.46,37.155-46.46,64.791c0,41.447,41.971,75.046,93.745,75.046
		c51.774,0,93.745-33.599,93.745-75.046C441.623,115.631,422.948,91.5,395.163,78.476z"/>
	<g>
		<path fill="#FFFFFF" stroke="#000000" stroke-width="4" stroke-miterlimit="10" d="M525.288,435.686
			c0.667-5.761,3.876-10.122,7.167-9.741c0.113,0.013,0.221,0.045,0.331,0.068c7.625-54.148,17.064-144.509,23.212-206.178
			c-1.106-2.504-1.596-5.529-1.227-8.718c0.344-2.976,1.383-5.644,2.86-7.764c2.934-29.797,4.792-49.661,4.792-49.661l-11.458-1.326
			c0,0-3.91,28.918-9.163,69.749c1.209,6.997,1.344,16.744,0.11,27.405c-1.351,11.677-4.051,21.915-7.171,28.445
			c-8.359,67.396-17.271,144.441-19.548,183.492c0.192,1.8,1.651,4.852,5.731,4.429c4.08-0.424,4.64-2.241,5.727-3.103
			c0.931-4.14,1.94-9.577,3.007-16.055C526.588,446.017,524.647,441.218,525.288,435.686z"/>
		<path fill="#FFFFFF" stroke="#000000" stroke-width="4" stroke-miterlimit="10" d="M568.94,182.27l5.971-22.03l-13.249-43.576
			c-0.504-0.106-1.013-0.191-1.53-0.251c-1.013-0.117-2.022-0.14-3.023-0.077l-20.138,42.51l1.658,22.749
			c3.472,4.412,7.943,7.278,13.048,7.869C557.89,190.183,563.959,187.414,568.94,182.27z"/>
	</g>
</g>
<g id="Слой_4" display="none">
	<path display="inline" fill="#FFFFFF" stroke="#0D0F0F" stroke-width="3" stroke-miterlimit="10" d="M265.242,116.924"/>
	<path display="inline" fill="none" stroke="#0D0F0F" stroke-width="9" stroke-miterlimit="10" d="M-526.727,200.743"/>
	<path display="inline" fill="#FFFFFF" stroke="#0D0F0F" stroke-width="3" stroke-miterlimit="10" d="M360.242,188.924"/>
	<path display="inline" fill="#FFFFFF" stroke="#0F1011" stroke-width="3" stroke-miterlimit="10" d="M249.313,480.916
		c-2.753-5.278,21.303-16.254,29.428-36.324c7.319-18.08-3.095-35.593-6.981-51.062c-9.129-36.343-15.376-73.521-18.651-111.001
		c5.173,14.488,16.565,39.25,40.516,56.885c7.072,5.207,17.837,13.134,34,18c16.798,5.058,30,3.972,30.918,8.778
		c0.637,3.332-5.119,5.919-17.97,17.883c-3.754,3.495-7.398,7.105-10.601,11.175c-10.251,13.025-15.361,30.27-15.405,47.331
		c-0.043,16.555,6.624,35.437,21.393,40.128c-10.497,1.473-19.789,10.223-22.53,21.215c-7.678-12.397-27.106-13.153-35.598-1.387
		c-0.994-6.249-3.337-13.403-9.209-17.335C260.458,479.735,251.043,484.233,249.313,480.916z"/>
	
		<polygon display="inline" fill="#FFFFFF" stroke="#0D0F0F" stroke-width="3" stroke-linecap="round" stroke-miterlimit="10" points="
		376.162,79.403 333.374,157.769 392.83,167.12 	"/>
	
		<polygon display="inline" fill="#FFFFFF" stroke="#0D0F0F" stroke-width="3" stroke-linecap="round" stroke-miterlimit="10" points="
		469.204,124.722 390.83,167.495 435.782,207.518 	"/>
	
		<polygon display="inline" fill="#FFFFFF" stroke="#0D0F0F" stroke-width="3" stroke-linecap="round" stroke-miterlimit="10" points="
		521.451,206.056 432.957,208.225 451.627,260.467 	"/>
	
		<polygon display="inline" fill="#FFFFFF" stroke="#0D0F0F" stroke-width="3" stroke-linecap="round" stroke-miterlimit="10" points="
		528.153,306.295 452.548,260.302 440.009,314.18 	"/>
	
		<polygon display="inline" fill="#FFFFFF" stroke="#0D0F0F" stroke-width="3" stroke-linecap="round" stroke-miterlimit="10" points="
		487.093,388.015 443.205,311.673 407.583,350.169 	"/>
	
		<polygon display="inline" fill="#FFFFFF" stroke="#0D0F0F" stroke-width="3" stroke-linecap="round" stroke-miterlimit="10" points="
		416.069,435.156 411.425,346.878 360.367,366.513 	"/>
	
		<polygon display="inline" fill="#FFFFFF" stroke="#0D0F0F" stroke-width="3" stroke-linecap="round" stroke-miterlimit="10" points="
		191.465,174.593 254.336,237.159 279.374,186.398 	"/>
	
		<polygon display="inline" fill="#FFFFFF" stroke="#0D0F0F" stroke-width="3" stroke-linecap="round" stroke-miterlimit="10" points="
		262.539,101.569 281.013,188.924 332.255,157.353 	"/>
	<polygon display="inline" fill="#FFFFFF" stroke="#0D0F0F" stroke-width="3" stroke-miterlimit="10" points="171.624,266.16 
		256.178,292.925 255.167,236.39 	"/>
	
		<ellipse display="inline" stroke="#0F1011" stroke-width="3" stroke-miterlimit="10" cx="349.632" cy="259.555" rx="98.946" ry="102.588"/>
	
		<circle display="inline" fill="#FFFFFF" stroke="#0D0F0F" stroke-width="3" stroke-linecap="round" stroke-miterlimit="10" cx="355.282" cy="269.479" r="97.758"/>
	
		<circle display="inline" stroke="#000000" stroke-width="3" stroke-linecap="round" stroke-miterlimit="10" cx="358.242" cy="276.011" r="38.5"/>
</g>
</svg>
