<?xml version="1.0" encoding="utf-8"?>
<!-- Generator: Adobe Illustrator 17.0.0, SVG Export Plug-In . SVG Version: 6.00 Build 0)  -->
<!DOCTYPE svg PUBLIC "-//W3C//DTD SVG 1.1//EN" "http://www.w3.org/Graphics/SVG/1.1/DTD/svg11.dtd">
<svg version="1.1" xmlns="http://www.w3.org/2000/svg" xmlns:xlink="http://www.w3.org/1999/xlink" x="0px" y="0px"
	 width="593.255px" height="684.203px" viewBox="0 0 593.255 684.203" enable-background="new 0 0 593.255 684.203"
	 xml:space="preserve">
<g id="Слой_5" display="none">
	
		<rect x="0" y="0" display="inline" fill="#D24A43" stroke="#000000" stroke-width="4" stroke-miterlimit="10" width="593.255" height="684.203"/>
</g>
<g id="Слой_1">
</g>
<g id="Слой_2" display="none">
	<polygon display="inline" fill="#FFFFFF" points="141.833,479.311 167.743,496.389 118.322,543.173 	"/>
	<path display="inline" fill="#FFFFFF" d="M152.816,430.548c-19.609-86.278,44.833-170.547,112.524-185.932
		c7.5-1.705,15.037-2.511,22.539-2.486c-23.578-13.636-60.043-49.011-81.272-32.124c-30.852,9.053-108.231,114.963-89.349,198.044
		c14.82,65.207,21.125,106.737,71.388,117.26C160.461,502.061,162.519,473.24,152.816,430.548z"/>
	<ellipse display="inline" fill="#FFFFFF" cx="308.224" cy="323.271" rx="171.131" ry="143.274"/>
	
		<circle display="inline" fill="#FFFFFF" stroke="#000000" stroke-width="2" stroke-miterlimit="10" cx="441.981" cy="245.653" r="60.606"/>
	<circle display="inline" stroke="#FFFFFF" stroke-miterlimit="10" cx="444.506" cy="245.653" r="21.717"/>
	<g display="inline">
		<g>
			<polygon fill="#FFFFFF" stroke="#000000" stroke-width="2" stroke-miterlimit="10" points="355.286,371.148 374.445,371.331 
				365.086,348.141 			"/>
			<polygon fill="#FFFFFF" stroke="#000000" stroke-width="2" stroke-miterlimit="10" points="442.974,372.974 453.06,371.398 
				442.856,339.161 			"/>
			<polygon fill="#FFFFFF" stroke="#000000" stroke-width="2" stroke-miterlimit="10" points="427.766,348.441 423.748,365.831 
				421.47,351.303 411.501,368.33 403.949,352.68 397.96,364.507 391.473,346.225 375.547,370.776 401.259,373.805 400.228,370.9 
				409.942,370.993 409.078,372.468 425.27,375.532 424.639,371.512 432.648,371.589 			"/>
			<polygon fill="#FFFFFF" stroke="#000000" stroke-width="2" stroke-miterlimit="10" points="461.017,356.068 457.546,370.957 
				464.203,371.021 			"/>
			<polygon fill="#FFFFFF" stroke="#000000" stroke-width="2" stroke-miterlimit="10" points="483.187,372.797 487.994,344.607 
				477.32,362.917 474.164,347.955 471.005,361.63 465.927,348.218 464.203,371.812 469.69,371.013 478.507,371.097 			"/>
			<polygon fill="#FFFFFF" stroke="#000000" stroke-width="2" stroke-miterlimit="10" points="432.648,370.923 442.856,371.021 
				437.973,347.873 			"/>
			<polygon fill="#FFFFFF" stroke="#000000" stroke-width="2" stroke-miterlimit="10" points="453.06,371.202 457.546,371.245 
				455.451,355.708 			"/>
		</g>
		<line fill="none" stroke="#000000" stroke-width="2" stroke-miterlimit="10" x1="483.59" y1="390.798" x2="483.59" y2="371.169"/>
		<polyline fill="#FFFFFF" stroke="#000000" stroke-width="2" stroke-miterlimit="10" points="452.169,390.798 483.59,390.798 
			483.59,371.169 355.011,371.169 		"/>
	</g>
	<polygon display="inline" fill="#FFFFFF" points="359.229,200.172 319.441,187.047 357.191,139.484 	"/>
	<polygon display="inline" fill="#FFFFFF" points="318.824,186.772 258.382,187.592 287.818,129.293 	"/>
	<polygon display="inline" fill="#FFFFFF" points="270.969,201.104 207.875,213.842 227.041,146.151 	"/>
	<polygon display="inline" fill="#FFFFFF" points="231.195,216.411 171.011,240.848 181.356,179.997 	"/>
	<polygon display="inline" fill="#FFFFFF" points="190.723,247.047 140.345,291.143 124.8,222.559 	"/>
</g>
<g id="Слой_3">
	<g>
		<path d="M592.537,170.429L295.91,0L0,171.673l0.718,342.102l296.628,170.429l295.91-171.673L592.537,170.429z M523.466,226.731
			c-2.97,3.068-6.329,5.281-9.873,6.424c-0.443,4.55-0.922,9.449-1.436,14.66c-1.477,2.12-2.515,4.788-2.86,7.764
			c-0.369,3.189,0.12,6.214,1.226,8.718c-2.809,28.172-6.305,62.33-10,96.29c3.175,3.75,5.015,7.568,4.996,11.377
			c-0.024,4.778-2.981,9.541-7.819,14.146c-3.529,31.362-7.125,61.184-10.389,84.365c-0.11-0.024-0.218-0.055-0.331-0.068
			c-3.292-0.381-6.501,3.98-7.167,9.741c-0.64,5.532,1.3,10.331,4.371,11.041c-1.067,6.478-2.076,11.915-3.007,16.055
			c-1.087,0.861-1.647,2.679-5.727,3.103c-4.08,0.424-5.539-2.628-5.731-4.429c1.438-24.672,5.527-64.515,10.45-107.504
			c-8.483,4.763-18.165,9.146-27.534,12.94c-18.823,65.01-80.511,112.689-153.715,112.689c-62.538,0-116.667-34.802-142.851-85.475
			c-10.631,0-25.568,0-25.568,0v-25.876h2.53l-3.916-35.013l9.228,24.136l2.006-14.498c-0.686-5.813-1.051-11.719-1.051-17.709
			c0-7.297,0.535-14.472,1.547-21.499c-13.635-11.113-22.347-28.035-22.347-46.996c0-33.472,27.134-60.606,60.606-60.606
			c8.736,0,17.032,1.863,24.535,5.19c7.212-5.2,14.894-9.823,22.973-13.801c-11.287-12.392-17.953-27.654-17.953-44.165
			c0-27.637,18.675-51.768,46.46-64.791c-12.538,9.825-20.328,23.518-20.328,38.673c0,27.506,25.637,50.204,58.822,53.656
			c1.763-0.056,3.531-0.094,5.308-0.094c3.357,0,6.686,0.112,9.991,0.31c34.287-2.622,61.106-25.736,61.106-53.871
			c0-15.155-7.79-28.848-20.328-38.673c27.785,13.024,46.46,37.155,46.46,64.791c0,17.596-7.568,33.776-20.237,46.573
			c38.416,20.506,67.16,55.877,77.955,98.101c11.22,4.708,22.819,10.259,32.18,16.264c1.072-8.838,2.151-17.62,3.22-26.242
			c3.121-6.53,5.82-16.768,7.171-28.445c1.234-10.66,1.099-20.407-0.11-27.405c1.639-12.741,3.148-24.321,4.447-34.225
			c-2.873-1.371-5.444-3.528-7.621-6.295l-1.658-22.749l20.138-42.51c1.001-0.063,2.01-0.041,3.023,0.077
			c0.517,0.06,1.026,0.146,1.53,0.251l13.249,43.576L523.466,226.731z"/>
		<path d="M144.939,412.487l-7.623,0.111l-0.17,0.094h8.454c-0.006-0.021-0.013-0.042-0.019-0.063L144.939,412.487z"/>
	</g>
	<circle cx="181.628" cy="301.112" r="21.717"/>
	
		<line fill="#FFFFFF" stroke="#000000" stroke-width="4" stroke-miterlimit="10" x1="126.418" y1="426.657" x2="126.418" y2="404.963"/>
	<polygon fill="none" stroke="#000000" stroke-width="4" stroke-miterlimit="10" points="241.999,410.754 224.481,410.264 
		233.526,380.426 	"/>
	<polygon fill="none" stroke="#000000" stroke-width="4" stroke-miterlimit="10" points="166.285,410.587 158.042,409.3 
		166.285,377.807 	"/>
	<polyline fill="none" stroke="#000000" stroke-width="4" stroke-miterlimit="10" points="175.11,407.154 179.332,377.518 
		182.325,396.775 184.775,381.291 193.395,403.736 199.925,383.106 205.103,398.697 210.711,374.597 224.481,406.96 	"/>
	<polygon fill="none" stroke="#000000" stroke-width="4" stroke-miterlimit="10" points="150.582,390.876 153.583,410.503 
		147.828,410.587 	"/>
	<path fill="none" stroke="#000000" stroke-width="4" stroke-miterlimit="10" d="M131.152,410.587l-3.894-34.818l9.228,24.136
		l2.729-19.722l2.731,18.026l4.391-17.68c0,0,1.49,31.101,1.49,30.059c0-1.043-4.744-0.01-4.744-0.01l-7.623,0.111L131.152,410.587z
		"/>
	<polygon fill="none" stroke="#000000" stroke-width="4" stroke-miterlimit="10" points="175.11,410.458 166.285,410.587 
		170.507,380.074 	"/>
	<polygon fill="none" stroke="#000000" stroke-width="4" stroke-miterlimit="10" points="157.462,410.826 153.583,410.883 
		155.395,390.402 	"/>
	<path fill="none" stroke="#000000" stroke-width="4" stroke-miterlimit="10" d="M163.864,436.657c-5.243,0-35.22,0-35.22,0v-25.876
		h111.172"/>
	<path fill="none" stroke="#000000" stroke-width="4" stroke-miterlimit="10" d="M350.688,122.276
		c12.538,9.825,20.328,23.518,20.328,38.673c0,29.893-30.271,54.126-67.613,54.126c-37.342,0-67.613-24.233-67.613-54.126
		c0-15.155,7.79-28.848,20.328-38.673c-27.786,13.024-46.46,37.155-46.46,64.791c0,41.447,41.971,75.046,93.745,75.046
		c51.774,0,93.745-33.599,93.745-75.046C397.148,159.431,378.473,135.3,350.688,122.276z"/>
	<circle fill="none" stroke="#000000" stroke-width="4" stroke-miterlimit="10" cx="179.628" cy="301.112" r="60.606"/>
	<path fill="none" stroke="#000000" stroke-width="4" stroke-miterlimit="10" d="M480.168,398.413
		c-27.777,15.244-67.267,26.432-67.267,26.432"/>
	<path fill="none" stroke="#000000" stroke-width="4" stroke-miterlimit="10" d="M499.078,354.582
		c8.385,6.241,10.475,10.13,10.442,16.721c-0.035,7.125-3.183,11.773-12.793,18.356"/>
	<path fill="none" stroke="#000000" stroke-width="4" stroke-miterlimit="10" d="M416.098,316.746c0,0,42.636,12.538,70.302,29.006"
		/>
	<path fill="none" stroke="#000000" stroke-width="4" stroke-miterlimit="10" d="M416.098,316.746"/>
	<path fill="none" stroke="#000000" stroke-width="4" stroke-miterlimit="10" d="M528.936,204.04l-13.249-43.576
		c-0.504-0.106-1.013-0.191-1.53-0.251c-1.013-0.117-2.022-0.14-3.023-0.077l-20.138,42.51l1.658,22.749
		c2.177,2.767,4.748,4.924,7.621,6.295c-1.3,9.904-2.808,21.484-4.447,34.225c1.209,6.997,1.344,16.744,0.11,27.405
		c-1.351,11.677-4.051,21.915-7.171,28.445c-8.359,67.396-17.271,144.441-19.548,183.492c0.192,1.8,1.651,4.852,5.731,4.429
		c4.08-0.424,4.64-2.241,5.727-3.103c0.931-4.14,1.94-9.577,3.007-16.055c-3.07-0.71-5.011-5.509-4.371-11.041
		c0.667-5.761,3.876-10.122,7.167-9.741c0.113,0.013,0.221,0.045,0.331,0.068c7.625-54.148,17.064-144.509,23.212-206.178
		c-1.106-2.504-1.596-5.529-1.226-8.718c0.344-2.976,1.383-5.644,2.86-7.764c0.513-5.211,0.992-10.11,1.436-14.66
		c3.544-1.142,6.903-3.356,9.873-6.424L528.936,204.04z"/>
	<path fill="none" stroke="#000000" stroke-width="4" stroke-miterlimit="10" d="M523.519,226.07l5.971-22.03l-13.249-43.576
		c-0.504-0.106-1.013-0.191-1.53-0.251c-1.013-0.117-2.022-0.14-3.023-0.077l-20.138,42.51l1.658,22.749
		c3.472,4.412,7.943,7.278,13.048,7.869C512.469,233.983,518.538,231.215,523.519,226.07z"/>
</g>
<g id="Слой_4" display="none">
	<path display="inline" fill="#FFFFFF" stroke="#0D0F0F" stroke-width="3" stroke-miterlimit="10" d="M219.768,161.385"/>
	<path display="inline" fill="none" stroke="#0D0F0F" stroke-width="9" stroke-miterlimit="10" d="M-572.201,245.204"/>
	<path display="inline" fill="#FFFFFF" stroke="#0D0F0F" stroke-width="3" stroke-miterlimit="10" d="M314.768,233.385"/>
	<path display="inline" fill="#FFFFFF" stroke="#0F1011" stroke-width="3" stroke-miterlimit="10" d="M203.838,525.378
		c-2.753-5.278,21.303-16.253,29.428-36.324c7.319-18.08-3.095-35.593-6.981-51.062c-9.129-36.343-15.376-73.521-18.651-111.001
		c5.173,14.488,16.565,39.25,40.516,56.885c7.072,5.207,17.837,13.134,34,18c16.798,5.058,30,3.972,30.918,8.778
		c0.637,3.332-5.119,5.919-17.97,17.883c-3.754,3.495-7.398,7.105-10.601,11.175c-10.251,13.025-15.361,30.27-15.405,47.331
		c-0.043,16.555,6.624,35.437,21.393,40.128c-10.497,1.473-19.789,10.223-22.53,21.215c-7.678-12.397-27.106-13.153-35.598-1.387
		c-0.994-6.249-3.337-13.403-9.209-17.335C214.983,524.197,205.568,528.695,203.838,525.378z"/>
	
		<polygon display="inline" fill="#FFFFFF" stroke="#0D0F0F" stroke-width="3" stroke-linecap="round" stroke-miterlimit="10" points="
		330.688,123.864 287.899,202.23 347.355,211.581 	"/>
	
		<polygon display="inline" fill="#FFFFFF" stroke="#0D0F0F" stroke-width="3" stroke-linecap="round" stroke-miterlimit="10" points="
		423.73,169.184 345.355,211.957 390.307,251.979 	"/>
	
		<polygon display="inline" fill="#FFFFFF" stroke="#0D0F0F" stroke-width="3" stroke-linecap="round" stroke-miterlimit="10" points="
		475.976,250.518 387.482,252.686 406.152,304.929 	"/>
	
		<polygon display="inline" fill="#FFFFFF" stroke="#0D0F0F" stroke-width="3" stroke-linecap="round" stroke-miterlimit="10" points="
		482.678,350.757 407.073,304.764 394.534,358.641 	"/>
	
		<polygon display="inline" fill="#FFFFFF" stroke="#0D0F0F" stroke-width="3" stroke-linecap="round" stroke-miterlimit="10" points="
		441.618,432.477 397.73,356.135 362.108,394.63 	"/>
	
		<polygon display="inline" fill="#FFFFFF" stroke="#0D0F0F" stroke-width="3" stroke-linecap="round" stroke-miterlimit="10" points="
		370.595,479.618 365.95,391.34 314.893,410.975 	"/>
	
		<polygon display="inline" fill="#FFFFFF" stroke="#0D0F0F" stroke-width="3" stroke-linecap="round" stroke-miterlimit="10" points="
		145.99,219.054 208.862,281.62 233.899,230.86 	"/>
	
		<polygon display="inline" fill="#FFFFFF" stroke="#0D0F0F" stroke-width="3" stroke-linecap="round" stroke-miterlimit="10" points="
		217.064,146.031 235.538,233.385 286.78,201.814 	"/>
	<polygon display="inline" fill="#FFFFFF" stroke="#0D0F0F" stroke-width="3" stroke-miterlimit="10" points="126.149,310.621 
		210.703,337.386 209.693,280.851 	"/>
	
		<ellipse display="inline" stroke="#0F1011" stroke-width="3" stroke-miterlimit="10" cx="304.157" cy="304.016" rx="98.946" ry="102.588"/>
	
		<circle display="inline" fill="#FFFFFF" stroke="#0D0F0F" stroke-width="3" stroke-linecap="round" stroke-miterlimit="10" cx="309.807" cy="313.94" r="97.758"/>
	
		<circle display="inline" stroke="#000000" stroke-width="3" stroke-linecap="round" stroke-miterlimit="10" cx="312.768" cy="320.472" r="38.5"/>
</g>
</svg>
