<?xml version="1.0" encoding="utf-8"?>
<!-- Generator: Adobe Illustrator 17.0.0, SVG Export Plug-In . SVG Version: 6.00 Build 0)  -->
<!DOCTYPE svg PUBLIC "-//W3C//DTD SVG 1.1//EN" "http://www.w3.org/Graphics/SVG/1.1/DTD/svg11.dtd">
<svg version="1.1" id="Слой_1" xmlns="http://www.w3.org/2000/svg" xmlns:xlink="http://www.w3.org/1999/xlink" x="0px" y="0px"
	 width="405px" height="70px" viewBox="0 0 405 70" enable-background="new 0 0 405 70" xml:space="preserve">
<g>
	<path fill="#FFFFFF" d="M251.539,37.771h-3.006v4.658h3.006c0.902,0,1.608-0.205,2.118-0.617c0.51-0.411,0.765-0.97,0.765-1.677
		c0-0.695-0.229-1.263-0.686-1.704C253.28,37.992,252.547,37.771,251.539,37.771z"/>
	<path fill="#FFFFFF" d="M193.004,32.199c-1.406,0-2.344,0.504-2.813,1.512v7.488c0.516,1.055,1.465,1.582,2.848,1.582
		c1.887,0,2.859-1.629,2.918-4.887v-0.633C195.957,33.887,194.973,32.199,193.004,32.199z"/>
	<path fill="#FFFFFF" d="M0,0v70h405V0H0z M165.67,47h-6.17V30.863L150.307,47h-6.17V21.406h6.17v16.154l9.193-16.154h6.17V47z
		 M182.475,32.551h-7.488V47h-5.941V27.98h13.43V32.551z M201.881,37.631c0,2.953-0.665,5.312-1.995,7.075s-3.126,2.646-5.388,2.646
		c-1.746,0-3.182-0.639-4.307-1.916v8.877h-5.924V27.98h5.537l0.176,1.758c1.137-1.406,2.631-2.109,4.482-2.109
		c2.344,0,4.166,0.864,5.467,2.593s1.951,4.104,1.951,7.128V37.631z M221.129,47h-5.924c-0.211-0.387-0.398-0.955-0.563-1.705
		c-1.09,1.371-2.613,2.057-4.57,2.057c-1.793,0-3.316-0.542-4.57-1.626s-1.881-2.446-1.881-4.087c0-2.063,0.762-3.621,2.285-4.676
		s3.738-1.582,6.645-1.582h1.828v-1.007c0-1.755-0.756-2.632-2.268-2.632c-1.406,0-2.109,0.695-2.109,2.084h-5.924
		c0-1.837,0.782-3.329,2.347-4.477c1.564-1.146,3.56-1.721,5.985-1.721s4.342,0.592,5.748,1.775s2.127,2.807,2.162,4.869v8.42
		c0.023,1.746,0.293,3.082,0.809,4.008V47z M239.973,32.551h-5.994V47h-5.959V32.551h-5.906v-4.57h17.859V32.551z M257.947,45.128
		c-1.588,1.248-3.753,1.872-6.495,1.872h-8.877V27.98h5.959v5.221h3.041c1.758,0,3.305,0.287,4.641,0.861s2.355,1.389,3.059,2.443
		s1.055,2.279,1.055,3.674C260.328,42.23,259.534,43.88,257.947,45.128z"/>
	<path fill="#FFFFFF" d="M209.563,41.322c0,0.539,0.182,0.976,0.545,1.31s0.826,0.501,1.389,0.501c0.738,0,1.351-0.158,1.837-0.475
		s0.835-0.674,1.046-1.072v-3.041h-1.723C210.594,38.545,209.563,39.471,209.563,41.322z"/>
</g>
</svg>
