<?xml version="1.0" encoding="utf-8"?>
<!-- Generator: Adobe Illustrator 17.0.0, SVG Export Plug-In . SVG Version: 6.00 Build 0)  -->
<!DOCTYPE svg PUBLIC "-//W3C//DTD SVG 1.1//EN" "http://www.w3.org/Graphics/SVG/1.1/DTD/svg11.dtd">
<svg version="1.1" id="Слой_2" xmlns="http://www.w3.org/2000/svg" xmlns:xlink="http://www.w3.org/1999/xlink" x="0px" y="0px"
	 width="40px" height="40px" viewBox="0 0 40 40" enable-background="new 0 0 40 40" xml:space="preserve">
<path fill="#FFFFFF" stroke="#000000" stroke-miterlimit="10" d="M32.812,21.51c0-5.228-4.238-9.466-9.466-9.466
	s-9.466,4.238-9.466,9.466c0,0.905,0.127,1.781,0.365,2.61h0c0,0,0,0,0,0.001c0.114,0.399,0.255,0.787,0.418,1.163
	c0.171,0.55,0.33,1.191,0.33,1.676c0,2.783-3.664,4.902-6.918,5.727c-0.294,0.074-8.2,1.174-8.2,1.174s13.373,0,16.509,0
	c5.238,0,9.902-1.95,12.91-4.988C31.44,27.139,32.812,24.485,32.812,21.51z"/>
<circle fill="#FFFFFF" stroke="#000000" stroke-miterlimit="10" cx="23.65" cy="12.044" r="3.693"/>
<path fill="#FFFFFF" stroke="#000000" stroke-miterlimit="10" d="M27.247,12.883c-0.38,1.636-1.846,2.855-3.597,2.855
	c-1.833,0-3.354-1.336-3.643-3.087"/>
<circle stroke="#FFFFFF" stroke-miterlimit="10" cx="23.65" cy="12.044" r="2.174"/>
<path fill="#FFFFFF" stroke="#000000" stroke-miterlimit="10" d="M36.119,28.929l3.86-2.004c0.001-0.047,0-0.094-0.004-0.141
	c-0.007-0.092-0.023-0.182-0.047-0.27l-4.358-0.983l-2.109,0.579c-0.221,0.246-0.378,0.515-0.455,0.797
	c-0.955,0.072-2.071,0.158-3.298,0.254c-0.636,0.24-1.55,0.437-2.575,0.53c-1.122,0.102-2.133,0.056-2.803-0.097
	c-6.487,0.536-13.891,1.207-17.604,1.746c-0.166,0.051-0.427,0.239-0.314,0.593c0.113,0.355,0.294,0.37,0.394,0.45
	c0.406,0.004,0.935-0.009,1.564-0.038c0.012-0.286,0.428-0.55,0.96-0.598c0.554-0.05,1.021,0.152,1.044,0.452
	c0.001,0.01,0,0.02,0,0.031c5.228-0.35,13.894-1.226,19.803-1.85c0.216-0.146,0.491-0.247,0.798-0.274
	c0.286-0.026,0.555,0.016,0.781,0.107c0.499-0.053,0.968-0.104,1.404-0.151c0.171,0.293,0.439,0.55,0.781,0.755L36.119,28.929z"/>
<path d="M33.718,28.943l2.319,0.142l4.087-2.146c0.001-0.051-0.001-0.102-0.005-0.153c-0.008-0.1-0.026-0.199-0.052-0.294
	l-4.645-1.108l-2.239,0.611c-0.371,0.424-0.569,0.913-0.526,1.419C32.709,28.03,33.106,28.562,33.718,28.943z"/>
<path fill="none" stroke="#000000" stroke-miterlimit="10" d="M31.015,27.06"/>
<path fill="none" stroke="#000000" stroke-miterlimit="10" d="M33.159,28.062c0.171,0.293,0.439,0.55,0.781,0.755l2.179,0.112
	l3.86-2.004c0.001-0.047,0-0.094-0.004-0.141c-0.007-0.092-0.023-0.182-0.047-0.27l-4.358-0.983l-2.109,0.579
	c-0.221,0.246-0.378,0.515-0.455,0.797"/>
<path fill="#FFFFFF" d="M23.004,27.941c0.065,0.689-0.441,1.3-1.13,1.365l-1.248,0.117c-0.689,0.065-1.3-0.441-1.365-1.13l0,0
	c-0.065-0.689,0.441-1.3,1.13-1.365l1.248-0.117C22.328,26.746,22.939,27.252,23.004,27.941L23.004,27.941z"/>
<path fill="none" stroke="#000000" stroke-miterlimit="10" d="M22.935,27.633c0.035,0.097,0.058,0.2,0.069,0.308l0,0
	c0.065,0.689-0.441,1.3-1.13,1.365l-1.248,0.117c-0.689,0.065-1.3-0.441-1.365-1.13l0,0c-0.015-0.165,0.013-0.267,0.013-0.267"/>
<rect x="30.164" y="25.907" transform="matrix(0.8419 -0.5397 0.5397 0.8419 -9.4167 20.5902)" fill="#FFFFFF" width="0.522" height="0.912"/>
<rect x="30.164" y="25.907" transform="matrix(0.8419 -0.5397 0.5397 0.8419 -9.4167 20.5902)" fill="#FFFFFF" width="0.522" height="0.912"/>
<polyline fill="#FFFFFF" stroke="#000000" stroke-miterlimit="10" points="32.918,21.555 32.65,20.48 32.349,21.584 31.865,20.501 
	31.691,21.317 "/>
<line fill="#FFFFFF" stroke="#000000" stroke-miterlimit="10" x1="33.23" y1="21.41" x2="33.197" y2="21.277"/>
<polyline fill="#FFFFFF" stroke="#000000" stroke-miterlimit="10" points="31.617,22.07 32.21,22.036 33.043,22.018 33.593,21.996 
	33.884,19.856 32.867,21.335 "/>
<polyline fill="#FFFFFF" stroke="#000000" stroke-miterlimit="10" points="31.76,21.155 31.079,20.07 30.434,21.145 30.169,21.587 
	30.098,21.518 29.33,20.881 28.998,21.518 28.991,21.547 28.961,21.518 28.245,20.924 27.935,21.518 27.921,21.572 27.351,21.01 
	26.174,20.054 26.022,21.308 25.919,21.774 25.299,21.125 24.423,20.208 24.524,21.308 24.625,22.408 25.4,22.225 25.816,22.236 
	25.816,22.236 26.968,22.269 27.804,22.408 27.784,22.211 28.674,22.188 28.826,22.156 28.826,22.156 29.79,22.156 29.829,22.156 
	29.79,22.22 31.079,22.22 32.433,22.147 32.331,21.997 "/>
<rect x="32.359" y="22.613" fill="#FFFFFF" width="1.299" height="0.559"/>
<rect x="24.629" y="21.933" width="9.029" height="1.8"/>
<g>
	<polygon fill="#FFFFFF" points="33.466,22.129 24.133,22.129 24.133,23.174 24.021,23.174 24.021,23.975 30.729,24.114 
		30.634,23.476 33.466,23.492 	"/>
</g>
</svg>
