<?xml version="1.0" encoding="utf-8"?>
<!-- Generator: Adobe Illustrator 17.0.0, SVG Export Plug-In . SVG Version: 6.00 Build 0)  -->
<!DOCTYPE svg PUBLIC "-//W3C//DTD SVG 1.1//EN" "http://www.w3.org/Graphics/SVG/1.1/DTD/svg11.dtd">
<svg version="1.1" id="Слой_1" xmlns="http://www.w3.org/2000/svg" xmlns:xlink="http://www.w3.org/1999/xlink" x="0px" y="0px"
	 width="32px" height="32px" viewBox="0 0 32 32" enable-background="new 0 0 32 32" xml:space="preserve">
<path stroke="#000000" stroke-miterlimit="10" d="M15.71,2.146L9.74,2.42L6.194,2.724l3.738,5.254L2.97,7.039l2.855,3.705
	l1.431,2.241l-3.48-1.439c0,0,0.802,5.327,1.307,7.046c0.184,0.626,0.987,2.415,0.987,2.415l1.477,2.269L8.5,24.868"/>
<path fill="#FFFFFF" stroke="#000000" stroke-miterlimit="10" d="M26.199,22.78c-1.386,5.324-4.304,7.115-9.613,7.115
	s-8.533-3.642-9.613-9.036C5.88,15.402,10.25,2.148,16.586,2.148C23.504,2.148,27.583,17.465,26.199,22.78z"/>
<polyline fill="#FFFFFF" stroke="#000000" stroke-miterlimit="10" points="23.744,12.774 25.929,12.774 25.929,11.099 
	18.938,11.099 "/>
<path fill="#FFFFFF" stroke="#000000" stroke-miterlimit="10" d="M25.929,11.051c0.348-0.784,0.535-3.014,0.535-3.014l-1.716,3.062
	l-0.89-3.005l-0.537,3.005l-1.053-1.238c0,0-0.299,0.867-0.506,1.15c-0.185-0.731-0.714-0.55-0.832,0.088
	c-0.621-0.717-0.444-0.67-0.94,0c-0.335-0.871-1.136-1.066-1.052,0"/>
<circle fill="#FFFFFF" stroke="#000000" stroke-miterlimit="10" cx="21.142" cy="5.725" r="2.668"/>
<path d="M23.353,5.711c0,0.361-0.188,0.654-0.419,0.654h-3.583c-0.232,0-0.419-0.293-0.419-0.654l0,0
	c0-0.361,0.188-0.654,0.419-0.654h3.583C23.165,5.057,23.353,5.35,23.353,5.711L23.353,5.711z"/>
<path fill="#FFFFFF" stroke="#000000" stroke-miterlimit="10" d="M17.387,23.586c1.696-1.586,3.649-3.416,5.086-5.125
	c1.402-1.667,4.084-4.998,4.084-4.998l0.394,0.887l-3.429,4.284L18.11,24.34L17.387,23.586"/>
<polyline stroke="#000000" stroke-miterlimit="10" points="25.83,13.333 27.707,15.464 27.907,18.424 25.389,17.818 23.57,15.872 
	23.614,14.223 25.83,13.333 "/>
<path fill="#FFFFFF" stroke="#000000" stroke-miterlimit="10" d="M26.467,19.826c0.539-0.735,0.353-1.253,1.41-1.358
	c0.578-0.057,1.626-0.142,1.964,0.343c0.512,0.733-0.335,0.915-0.804,1.158c-0.638,0.33-2.569,1.142-2.569,1.142"/>
<path fill="#FFFFFF" stroke="#000000" stroke-miterlimit="10" d="M16.636,21.624c0.446,1.066,0.983,2.053,2.28,1.409
	c0.675-0.335,2.263-1.917,0.789-2.337"/>
</svg>
