<?xml version="1.0" encoding="utf-8"?>
<!-- Generator: Adobe Illustrator 17.0.0, SVG Export Plug-In . SVG Version: 6.00 Build 0)  -->
<!DOCTYPE svg PUBLIC "-//W3C//DTD SVG 1.1//EN" "http://www.w3.org/Graphics/SVG/1.1/DTD/svg11.dtd">
<svg version="1.1" xmlns="http://www.w3.org/2000/svg" xmlns:xlink="http://www.w3.org/1999/xlink" x="0px" y="0px"
	 width="593.255px" height="684.203px" viewBox="0 0 593.255 684.203" enable-background="new 0 0 593.255 684.203"
	 xml:space="preserve">
<g id="Слой_3">
	<g>
		<path fill="#FFFFFF" d="M592.537,170.429L295.91,0L0,171.673l0.718,342.102l296.628,170.429l295.91-171.673L592.537,170.429z M523.466,226.731
			c-2.97,3.068-6.329,5.281-9.873,6.424c-0.443,4.55-0.922,9.449-1.436,14.66c-1.477,2.12-2.515,4.788-2.86,7.764
			c-0.369,3.189,0.12,6.214,1.226,8.718c-2.809,28.172-6.305,62.33-10,96.29c3.175,3.75,5.015,7.568,4.996,11.377
			c-0.024,4.778-2.981,9.541-7.819,14.146c-3.529,31.362-7.125,61.184-10.389,84.365c-0.11-0.024-0.218-0.055-0.331-0.068
			c-3.292-0.381-6.501,3.98-7.167,9.741c-0.64,5.532,1.3,10.331,4.371,11.041c-1.067,6.478-2.076,11.915-3.007,16.055
			c-1.087,0.861-1.647,2.679-5.727,3.103c-4.08,0.424-5.539-2.628-5.731-4.429c1.438-24.672,5.527-64.515,10.45-107.504
			c-8.483,4.763-18.165,9.146-27.534,12.94c-18.823,65.01-80.511,112.689-153.715,112.689c-62.538,0-116.667-34.802-142.851-85.475
			c-10.631,0-25.568,0-25.568,0v-25.876h2.53l-3.916-35.013l9.228,24.136l2.006-14.498c-0.686-5.813-1.051-11.719-1.051-17.709
			c0-7.297,0.535-14.472,1.547-21.499c-13.635-11.113-22.347-28.035-22.347-46.996c0-33.472,27.134-60.606,60.606-60.606
			c8.736,0,17.032,1.863,24.535,5.19c7.212-5.2,14.894-9.823,22.973-13.801c-11.287-12.392-17.953-27.654-17.953-44.165
			c0-27.637,18.675-51.768,46.46-64.791c-12.538,9.825-20.328,23.518-20.328,38.673c0,27.506,25.637,50.204,58.822,53.656
			c1.763-0.056,3.531-0.094,5.308-0.094c3.357,0,6.686,0.112,9.991,0.31c34.287-2.622,61.106-25.736,61.106-53.871
			c0-15.155-7.79-28.848-20.328-38.673c27.785,13.024,46.46,37.155,46.46,64.791c0,17.596-7.568,33.776-20.237,46.573
			c38.416,20.506,67.16,55.877,77.955,98.101c11.22,4.708,22.819,10.259,32.18,16.264c1.072-8.838,2.151-17.62,3.22-26.242
			c3.121-6.53,5.82-16.768,7.171-28.445c1.234-10.66,1.099-20.407-0.11-27.405c1.639-12.741,3.148-24.321,4.447-34.225
			c-2.873-1.371-5.444-3.528-7.621-6.295l-1.658-22.749l20.138-42.51c1.001-0.063,2.01-0.041,3.023,0.077
			c0.517,0.06,1.026,0.146,1.53,0.251l13.249,43.576L523.466,226.731z"/>
		<path d="M144.939,412.487l-7.623,0.111l-0.17,0.094h8.454c-0.006-0.021-0.013-0.042-0.019-0.063L144.939,412.487z"/>
	</g>
	<circle fill="#FFFFFF" cx="181.628" cy="301.112" r="21.717"/>

		<line fill="#FFFFFF" stroke="#FFF" stroke-width="4" stroke-miterlimit="10" x1="126.418" y1="426.657" x2="126.418" y2="404.963"/>
	<polygon fill="none" stroke="#FFF" stroke-width="4" stroke-miterlimit="10" points="241.999,410.754 224.481,410.264
		233.526,380.426 	"/>
	<polygon fill="none" stroke="#FFF" stroke-width="4" stroke-miterlimit="10" points="166.285,410.587 158.042,409.3
		166.285,377.807 	"/>
	<polyline fill="none" stroke="#FFF" stroke-width="4" stroke-miterlimit="10" points="175.11,407.154 179.332,377.518
		182.325,396.775 184.775,381.291 193.395,403.736 199.925,383.106 205.103,398.697 210.711,374.597 224.481,406.96 	"/>
	<polygon fill="none" stroke="#FFF" stroke-width="4" stroke-miterlimit="10" points="150.582,390.876 153.583,410.503
		147.828,410.587 	"/>
	<path fill="none" stroke="#FFF" stroke-width="4" stroke-miterlimit="10" d="M131.152,410.587l-3.894-34.818l9.228,24.136
		l2.729-19.722l2.731,18.026l4.391-17.68c0,0,1.49,31.101,1.49,30.059c0-1.043-4.744-0.01-4.744-0.01l-7.623,0.111L131.152,410.587z
		"/>
	<polygon fill="none" stroke="#FFF" stroke-width="4" stroke-miterlimit="10" points="175.11,410.458 166.285,410.587
		170.507,380.074 	"/>
	<polygon fill="none" stroke="#FFF" stroke-width="4" stroke-miterlimit="10" points="157.462,410.826 153.583,410.883
		155.395,390.402 	"/>
	<path fill="none" stroke="#FFF" stroke-width="4" stroke-miterlimit="10" d="M163.864,436.657c-5.243,0-35.22,0-35.22,0v-25.876
		h111.172"/>
	<path fill="none" stroke="#FFF" stroke-width="4" stroke-miterlimit="10" d="M350.688,122.276
		c12.538,9.825,20.328,23.518,20.328,38.673c0,29.893-30.271,54.126-67.613,54.126c-37.342,0-67.613-24.233-67.613-54.126
		c0-15.155,7.79-28.848,20.328-38.673c-27.786,13.024-46.46,37.155-46.46,64.791c0,41.447,41.971,75.046,93.745,75.046
		c51.774,0,93.745-33.599,93.745-75.046C397.148,159.431,378.473,135.3,350.688,122.276z"/>
	<circle fill="none" stroke="#FFF" stroke-width="4" stroke-miterlimit="10" cx="179.628" cy="301.112" r="60.606"/>
	<path fill="none" stroke="#FFF" stroke-width="4" stroke-miterlimit="10" d="M480.168,398.413
		c-27.777,15.244-67.267,26.432-67.267,26.432"/>
	<path fill="none" stroke="#FFF" stroke-width="4" stroke-miterlimit="10" d="M499.078,354.582
		c8.385,6.241,10.475,10.13,10.442,16.721c-0.035,7.125-3.183,11.773-12.793,18.356"/>
	<path fill="none" stroke="#FFF" stroke-width="4" stroke-miterlimit="10" d="M416.098,316.746c0,0,42.636,12.538,70.302,29.006"
		/>
	<path fill="none" stroke="#FFF" stroke-width="4" stroke-miterlimit="10" d="M416.098,316.746"/>
	<path fill="none" stroke="#FFF" stroke-width="4" stroke-miterlimit="10" d="M528.936,204.04l-13.249-43.576
		c-0.504-0.106-1.013-0.191-1.53-0.251c-1.013-0.117-2.022-0.14-3.023-0.077l-20.138,42.51l1.658,22.749
		c2.177,2.767,4.748,4.924,7.621,6.295c-1.3,9.904-2.808,21.484-4.447,34.225c1.209,6.997,1.344,16.744,0.11,27.405
		c-1.351,11.677-4.051,21.915-7.171,28.445c-8.359,67.396-17.271,144.441-19.548,183.492c0.192,1.8,1.651,4.852,5.731,4.429
		c4.08-0.424,4.64-2.241,5.727-3.103c0.931-4.14,1.94-9.577,3.007-16.055c-3.07-0.71-5.011-5.509-4.371-11.041
		c0.667-5.761,3.876-10.122,7.167-9.741c0.113,0.013,0.221,0.045,0.331,0.068c7.625-54.148,17.064-144.509,23.212-206.178
		c-1.106-2.504-1.596-5.529-1.226-8.718c0.344-2.976,1.383-5.644,2.86-7.764c0.513-5.211,0.992-10.11,1.436-14.66
		c3.544-1.142,6.903-3.356,9.873-6.424L528.936,204.04z"/>
	<path fill="none" stroke="#FFF" stroke-width="4" stroke-miterlimit="10" d="M523.519,226.07l5.971-22.03l-13.249-43.576
		c-0.504-0.106-1.013-0.191-1.53-0.251c-1.013-0.117-2.022-0.14-3.023-0.077l-20.138,42.51l1.658,22.749
		c3.472,4.412,7.943,7.278,13.048,7.869C512.469,233.983,518.538,231.215,523.519,226.07z"/>
</g>
</svg>
