<?xml version="1.0" encoding="utf-8"?>
<!-- Generator: Adobe Illustrator 17.0.0, SVG Export Plug-In . SVG Version: 6.00 Build 0)  -->
<!DOCTYPE svg PUBLIC "-//W3C//DTD SVG 1.1//EN" "http://www.w3.org/Graphics/SVG/1.1/DTD/svg11.dtd">
<svg version="1.1" id="Слой_1" xmlns="http://www.w3.org/2000/svg" xmlns:xlink="http://www.w3.org/1999/xlink" x="0px" y="0px"
	 width="72px" height="72px" viewBox="0 0 72 72" enable-background="new 0 0 72 72" xml:space="preserve">
<path stroke="#000000" stroke-miterlimit="10" d="M34.103,1.324L19.081,2.012l-8.923,0.765l9.405,13.22L2.044,13.635l7.183,9.323
	l3.6,5.638l-8.757-3.62c0,0,2.018,13.404,3.289,17.729c0.463,1.575,2.484,6.076,2.484,6.076l3.716,5.709l2.402,4.01"/>
<path fill="#FFFFFF" stroke="#000000" stroke-miterlimit="10" d="M60.496,53.245c-3.487,13.396-10.83,17.903-24.19,17.903
	s-21.473-9.163-24.19-22.736C9.368,34.68,20.363,1.328,36.306,1.328C53.715,1.328,63.978,39.871,60.496,53.245z"/>
<polyline fill="#FFFFFF" stroke="#000000" stroke-miterlimit="10" points="54.32,28.065 59.817,28.065 59.817,23.85 42.225,23.85 
	"/>
<path fill="#FFFFFF" stroke="#000000" stroke-miterlimit="10" d="M59.817,23.729c0.875-1.972,1.346-7.584,1.346-7.584l-4.318,7.705
	l-2.241-7.563l-1.351,7.563l-2.65-3.114c0,0-0.753,2.181-1.273,2.893c-0.465-1.84-1.797-1.383-2.093,0.221
	c-1.563-1.804-1.117-1.687-2.365,0c-0.843-2.192-2.858-2.683-2.648,0"/>
<circle fill="#FFFFFF" stroke="#000000" stroke-miterlimit="10" cx="47.772" cy="10.33" r="6.714"/>
<path d="M53.335,10.294c0,0.909-0.472,1.646-1.055,1.646h-9.016c-0.583,0-1.055-0.737-1.055-1.646l0,0
	c0-0.909,0.472-1.646,1.055-1.646h9.016C52.863,8.648,53.335,9.385,53.335,10.294L53.335,10.294z"/>
<path fill="#FFFFFF" stroke="#000000" stroke-miterlimit="10" d="M38.322,55.273c4.269-3.992,9.181-8.595,12.798-12.896
	c3.528-4.195,10.275-12.577,10.275-12.577l0.991,2.232l-8.628,10.78L40.142,57.169L38.322,55.273"/>
<polyline stroke="#000000" stroke-miterlimit="10" points="59.567,29.472 64.292,34.836 64.793,42.283 58.459,40.758 53.88,35.862 
	53.991,31.713 59.567,29.472 "/>
<path fill="#FFFFFF" stroke="#000000" stroke-miterlimit="10" d="M61.171,45.81c1.356-1.849,0.889-3.153,3.548-3.416
	c1.454-0.144,4.091-0.356,4.942,0.863c1.287,1.844-0.842,2.302-2.024,2.913c-1.604,0.829-6.465,2.873-6.465,2.873"/>
<path fill="#FFFFFF" stroke="#000000" stroke-miterlimit="10" d="M36.433,50.335c1.122,2.682,2.474,5.166,5.738,3.546
	c1.699-0.843,5.696-4.824,1.985-5.881"/>
</svg>
