<?xml version="1.0" encoding="utf-8"?>
<!-- Generator: Adobe Illustrator 17.0.0, SVG Export Plug-In . SVG Version: 6.00 Build 0)  -->
<!DOCTYPE svg PUBLIC "-//W3C//DTD SVG 1.1//EN" "http://www.w3.org/Graphics/SVG/1.1/DTD/svg11.dtd">
<svg version="1.1" id="Слой_2" xmlns="http://www.w3.org/2000/svg" xmlns:xlink="http://www.w3.org/1999/xlink" x="0px" y="0px"
	 width="80px" height="80px" viewBox="0 0 80 80" enable-background="new 0 0 80 80" xml:space="preserve">
<path fill="#FFFFFF" stroke="#000000" stroke-miterlimit="10" d="M65.578,41.907c0-10.409-8.438-18.848-18.848-18.848
	s-18.848,8.438-18.848,18.848c0,1.803,0.254,3.546,0.726,5.197h0c0,0,0,0.001,0.001,0.002c0.228,0.795,0.507,1.568,0.833,2.316
	c0.341,1.095,0.658,2.371,0.658,3.337c0,5.541-7.296,9.76-13.773,11.402C15.742,64.309,0,66.499,0,66.499s26.625,0,32.869,0
	c10.428,0,19.715-3.883,25.705-9.931C62.846,53.113,65.578,47.829,65.578,41.907z"/>
<circle fill="#FFFFFF" stroke="#000000" stroke-miterlimit="10" cx="47.336" cy="23.059" r="7.353"/>
<path fill="#FFFFFF" stroke="#000000" stroke-miterlimit="10" d="M54.498,24.729c-0.756,3.257-3.676,5.683-7.163,5.683
	c-3.65,0-6.678-2.659-7.254-6.146"/>
<circle stroke="#FFFFFF" stroke-miterlimit="10" cx="47.336" cy="23.059" r="4.328"/>
<path fill="#FFFFFF" stroke="#000000" stroke-miterlimit="10" d="M72.162,56.678l7.685-3.991c0.002-0.093,0-0.186-0.008-0.28
	c-0.014-0.184-0.046-0.363-0.094-0.538l-8.677-1.956l-4.2,1.153c-0.44,0.49-0.752,1.026-0.906,1.586
	c-1.901,0.144-4.122,0.315-6.566,0.506c-1.267,0.478-3.087,0.87-5.127,1.055c-2.234,0.202-4.247,0.111-5.581-0.194
	c-12.916,1.068-27.658,2.403-35.05,3.475c-0.33,0.102-0.849,0.475-0.624,1.181c0.225,0.706,0.585,0.736,0.785,0.896
	c0.808,0.008,1.862-0.019,3.113-0.075c0.023-0.57,0.852-1.095,1.911-1.19c1.102-0.1,2.033,0.303,2.079,0.9
	c0.002,0.02,0,0.041-0.001,0.061c10.409-0.697,27.663-2.442,39.428-3.684c0.429-0.29,0.978-0.491,1.588-0.546
	c0.569-0.052,1.106,0.031,1.556,0.213c0.994-0.106,1.928-0.206,2.796-0.3c0.34,0.584,0.875,1.094,1.555,1.504L72.162,56.678z"/>
<path d="M67.382,56.705l4.616,0.283l8.138-4.272c0.001-0.101-0.002-0.203-0.011-0.305c-0.017-0.2-0.052-0.395-0.105-0.586
	l-9.249-2.206l-4.457,1.216c-0.74,0.843-1.132,1.818-1.047,2.826C65.372,54.887,66.162,55.948,67.382,56.705z"/>
<path fill="none" stroke="#000000" stroke-miterlimit="10" d="M61.999,52.956"/>
<path fill="none" stroke="#000000" stroke-miterlimit="10" d="M66.269,54.951c0.34,0.584,0.875,1.094,1.555,1.504l4.338,0.224
	l7.685-3.991c0.002-0.093,0-0.186-0.008-0.28c-0.014-0.184-0.046-0.363-0.094-0.538l-8.677-1.956l-4.2,1.153
	c-0.44,0.49-0.752,1.026-0.906,1.586"/>
<path fill="#FFFFFF" d="M46.049,54.71c0.129,1.372-0.879,2.588-2.251,2.717l-2.484,0.233c-1.372,0.129-2.588-0.879-2.717-2.251l0,0
	c-0.129-1.372,0.879-2.588,2.251-2.717l2.484-0.233C44.704,52.331,45.92,53.338,46.049,54.71L46.049,54.71z"/>
<path fill="none" stroke="#000000" stroke-miterlimit="10" d="M45.912,54.097c0.07,0.194,0.116,0.399,0.136,0.613l0,0
	c0.129,1.372-0.879,2.588-2.251,2.717l-2.484,0.233c-1.372,0.129-2.588-0.879-2.717-2.251l0,0c-0.031-0.328,0.026-0.531,0.026-0.531
	"/>
<rect x="60.306" y="50.661" transform="matrix(0.8419 -0.5397 0.5397 0.8419 -18.2125 40.9838)" fill="#FFFFFF" width="1.04" height="1.815"/>
<rect x="60.306" y="50.661" transform="matrix(0.8419 -0.5397 0.5397 0.8419 -18.2125 40.9838)" fill="#FFFFFF" width="1.04" height="1.815"/>
<polyline fill="#FFFFFF" stroke="#000000" stroke-miterlimit="10" points="65.789,41.996 65.256,39.855 64.656,42.054 
	63.693,39.897 63.346,41.521 "/>
<line fill="#FFFFFF" stroke="#000000" stroke-miterlimit="10" x1="66.409" y1="41.706" x2="66.343" y2="41.442"/>
<polyline fill="#FFFFFF" stroke="#000000" stroke-miterlimit="10" points="63.198,43.022 64.38,42.952 66.037,42.918 67.132,42.873 
	67.713,38.613 65.688,41.557 "/>
<polyline fill="#FFFFFF" stroke="#000000" stroke-miterlimit="10" points="63.483,41.2 62.126,39.04 60.843,41.18 60.316,42.06 
	60.174,41.923 58.646,40.654 57.984,41.923 57.969,41.98 57.91,41.923 56.485,40.739 55.868,41.923 55.839,42.029 54.704,40.911 
	52.362,39.007 52.059,41.503 51.853,42.432 50.618,41.139 48.875,39.313 49.076,41.503 49.278,43.693 50.82,43.329 51.648,43.352 
	51.648,43.352 53.943,43.416 55.606,43.693 55.567,43.301 57.338,43.256 57.641,43.191 57.641,43.191 59.561,43.191 59.637,43.191 
	59.561,43.32 62.126,43.32 64.823,43.175 64.619,42.875 "/>
<rect x="64.676" y="44.102" fill="#FFFFFF" width="2.587" height="1.113"/>
<rect x="49.285" y="42.749" width="17.977" height="3.584"/>
<g>
	<polygon fill="#FFFFFF" points="66.879,43.139 48.297,43.139 48.297,45.22 48.075,45.22 48.075,46.813 61.429,47.09 61.242,45.82 
		66.879,45.852 	"/>
</g>
</svg>
