<?xml version="1.0" encoding="utf-8"?>
<!-- Generator: Adobe Illustrator 17.0.0, SVG Export Plug-In . SVG Version: 6.00 Build 0)  -->
<!DOCTYPE svg PUBLIC "-//W3C//DTD SVG 1.1//EN" "http://www.w3.org/Graphics/SVG/1.1/DTD/svg11.dtd">
<svg version="1.1" id="Слой_2" xmlns="http://www.w3.org/2000/svg" xmlns:xlink="http://www.w3.org/1999/xlink" x="0px" y="0px"
	 width="72px" height="72px" viewBox="0 0 72 72" enable-background="new 0 0 72 72" xml:space="preserve">
<g>
	<path fill="#FFFFFF" stroke="#000000" stroke-miterlimit="10" d="M-0.234,68.676h0.325c-0.109,0-0.216-0.007-0.325-0.01V68.676z"/>
	<path fill="#FFFFFF" stroke="#000000" stroke-miterlimit="10" d="M71.772,68.676h0.325v-0.01
		C71.988,68.668,71.881,68.676,71.772,68.676z"/>
	<path fill="#FFFFFF" stroke="#000000" stroke-miterlimit="10" d="M56.612,50.588c0-1.344,0.13-2.967,0.361-3.911
		c0.893-3.644,3.323-9.313,3.323-14.661c0-16.054-10.908-29.069-24.365-29.069S11.567,15.963,11.567,32.017
		c0,5.347,2.43,11.016,3.323,14.661c0.231,0.944,0.361,2.567,0.361,3.911c0,9.989-6.787,18.087-15.16,18.087h71.681
		C63.399,68.676,56.612,60.578,56.612,50.588z"/>
</g>
<circle fill="#FFFFFF" stroke="#000000" stroke-miterlimit="10" cx="22.515" cy="7.797" r="6.712"/>
<path d="M25.308,5.003c-0.715,0.714-1.702,1.156-2.793,1.156s-2.078-0.442-2.793-1.156c-0.715,0.715-1.158,1.703-1.158,2.794
	c0,1.149,0.493,2.18,1.276,2.902c0.704-0.649,1.641-1.049,2.675-1.049c1.033,0,1.971,0.4,2.674,1.049
	c0.783-0.722,1.276-1.753,1.276-2.902C26.466,6.706,26.024,5.718,25.308,5.003z"/>
<polygon fill="#FFFFFF" stroke="#000000" stroke-miterlimit="10" points="15.594,35.307 16.663,34.123 17.647,34.739 18.564,35.307 
	19.431,34.739 20.477,33.631 21.461,34.739 21.999,34.328 22.445,34.739 23.525,34.03 24.341,34.739 24.712,35.307 26.447,33.144 
	29.638,31.034 30.05,33.8 30.332,34.83 32.014,33.397 34.389,31.373 34.114,33.8 33.84,36.228 31.739,35.824 30.61,35.85 
	30.61,35.85 27.485,35.921 25.219,36.228 25.271,35.793 22.858,35.743 22.445,35.671 22.445,35.671 19.831,35.671 19.726,35.671 
	19.831,35.814 16.335,35.814 12.661,35.653 "/>
<rect x="9.337" y="36.988" fill="#FFFFFF" width="3.524" height="1.234"/>
<rect x="9.256" y="35.488" width="24.852" height="3.309"/>
<line fill="#FFFFFF" stroke="#000000" stroke-miterlimit="10" x1="11.466" y1="34.03" x2="11.556" y2="33.737"/>
<polyline fill="#FFFFFF" stroke="#000000" stroke-miterlimit="10" points="14.857,35.653 13.248,35.576 10.99,35.538 9.499,35.488 
	9.469,35.307 "/>
<polyline fill="#FFFFFF" stroke="#000000" stroke-miterlimit="10" points="14.707,35.488 13.098,35.411 10.839,35.373 9.349,35.323 
	8.557,30.602 11.316,33.865 "/>
<polyline fill="#FFFFFF" stroke="#000000" stroke-miterlimit="10" points="11.466,34.03 12.163,30.602 14.857,35.653 "/>
<g>
	<ellipse cx="16.663" cy="24.826" rx="0.984" ry="1.47"/>
	<ellipse cx="21.461" cy="24.885" rx="0.984" ry="1.47"/>
</g>
<path fill="#FFFFFF" stroke="#000000" stroke-miterlimit="10" d="M47.662,40.354c0.851-2.157,4.766-6.723,4.766-6.723l10.458-19.65
	l-2.08-1.044L40.889,50.126c0,0,2.693,1.523,3.221,1.278c0.614-0.976,1.128-3.736,1.128-3.736S46.915,42.247,47.662,40.354z"/>
<polygon points="65.998,17.117 55.497,11.077 51.384,12.012 50.177,14.109 50.975,19.749 54.267,22.397 60.275,25.852 
	66.995,24.325 67.811,22.907 "/>
<rect x="9.256" y="38.427" width="8.381" height="0.973"/>
<g>
	<polygon fill="#FFFFFF" points="9.615,35.921 35.349,35.921 35.349,38.227 35.657,38.227 35.657,39.993 17.162,40.3 17.422,38.892 
		9.615,38.927 	"/>
</g>
<g>
	<path fill="#FFFFFF" d="M46.053,43.744c-1.629-0.773-2.47-2.412-1.878-3.66l1.072-2.26c0.592-1.248,2.393-1.633,4.023-0.86l0,0
		c1.629,0.773,2.47,2.412,1.878,3.66l-1.072,2.26C49.484,44.132,47.683,44.517,46.053,43.744L46.053,43.744z"/>
	<path fill="none" stroke="#000000" stroke-miterlimit="10" d="M46.825,44.023c-0.258-0.065-0.516-0.158-0.771-0.279l0,0
		c-1.629-0.773-2.47-2.412-1.878-3.66l1.072-2.26c0.592-1.248,2.393-1.633,4.023-0.86l0,0c0.39,0.185,0.59,0.364,0.59,0.364"/>
</g>
<path fill="none" stroke="#000000" stroke-miterlimit="10" d="M28.319,4.422c0.578,0.992,0.909,2.145,0.909,3.375
	c0,3.707-3.005,6.712-6.712,6.712c-1.796,0-3.427-0.705-4.631-1.853"/>
</svg>
