<?xml version="1.0" encoding="utf-8"?>
<!-- Generator: Adobe Illustrator 17.0.0, SVG Export Plug-In . SVG Version: 6.00 Build 0)  -->
<!DOCTYPE svg PUBLIC "-//W3C//DTD SVG 1.1//EN" "http://www.w3.org/Graphics/SVG/1.1/DTD/svg11.dtd">
<svg version="1.1" id="new_x5F_chip1" xmlns="http://www.w3.org/2000/svg" xmlns:xlink="http://www.w3.org/1999/xlink" x="0px"
	 y="0px" width="215.22px" height="229.744px" viewBox="0 0 215.22 229.744" enable-background="new 0 0 215.22 229.744"
	 xml:space="preserve">
<g id="r_x5F_hand">
	<path fill="none" stroke="#000000" stroke-miterlimit="10" d="M198.557,194.143c0.173-0.268,0.27-0.532,0.296-0.789
		c0.035,0.074,0.061,0.147,0.102,0.221C198.985,193.835,198.724,193.976,198.557,194.143z"/>
	<path fill="#FFFFFF" stroke="#000000" stroke-miterlimit="10" d="M176.211,164.29l6.204-1.525l-0.005,0.013
		c4.316-0.665,8.509-2.362,11.564,2.277c0.359,2.805-1.782,5.498-1.499,8.466c0.281,2.96,4.257,5.621,4.257,5.621
		s7.851,0.598,5.118,5.949c-0.422,2.372-2.507,4.589-2.181,7.045c-0.707-0.96-2.247-1.62-3.417-1.611
		c-1.772,0.014-4.419,2.191-5.558,3.377c-3.463,3.605-1.387,7.856,2.496,10.319c8.672,5.501,16.741-7.148,20.176-14.165
		c4.218-8.616-2.514-27.274-5.254-39.839c-1.734-7.954-3.424-16.282-4.052-24.171c-0.178-2.241-0.431-15.897-0.431-15.897
		l-0.694-3.408c0,0-2.278-6.546-6.326-7.81c-6.722-2.098-16.737,10.833-22.37,28.881S176.211,164.29,176.211,164.29z
		 M200.142,193.576c0.029,0.26-0.232,0.401-0.399,0.567c0.173-0.268,0.27-0.532,0.296-0.789
		C200.075,193.428,200.101,193.501,200.142,193.576z"/>
</g>
<g id="l_x5F_hand">
	<g>
		<path fill="none" stroke="#000000" stroke-miterlimit="10" d="M16.663,198.503c-0.173-0.268-0.27-0.532-0.296-0.789
			c-0.035,0.074-0.061,0.147-0.102,0.221C16.235,198.196,16.496,198.337,16.663,198.503z"/>
		<path fill="#FFFFFF" stroke="#000000" stroke-miterlimit="10" d="M40.981,132.173c-5.633-18.049-15.648-30.979-22.37-28.881
			c-4.048,1.263-6.326,7.81-6.326,7.81l-0.694,3.408c0,0-0.252,13.655-0.431,15.897c-0.628,7.889-2.318,16.218-4.052,24.171
			c-2.74,12.565-9.472,31.223-5.254,39.839c3.435,7.017,11.504,19.666,20.176,14.165c3.883-2.463,5.959-6.714,2.496-10.319
			c-1.139-1.186-3.786-3.363-5.558-3.377c-1.169-0.009-2.709,0.651-3.417,1.611c0.326-2.455-1.759-4.672-2.181-7.045
			c-2.732-5.35,5.118-5.949,5.118-5.949s3.976-2.662,4.257-5.621c0.282-2.968-1.859-5.661-1.499-8.466
			c3.055-4.638,7.248-2.942,11.564-2.277l-0.005-0.013l6.204,1.525C39.009,168.651,46.614,150.221,40.981,132.173z M15.18,197.715
			c0.027,0.256,0.123,0.52,0.296,0.789c-0.167-0.167-0.428-0.308-0.399-0.567C15.119,197.862,15.145,197.789,15.18,197.715z"/>
	</g>
</g>
<g id="body">
	<path fill="#FEFEFE" stroke="#000000" stroke-miterlimit="10" d="M200.992,86c-4.437-21.232-31.188-25.599-49.187-34.482
		c-19.25-9.5-33.25-16-56.25-17.5c-18.842-1.229-42.643,9.497-61.412,21.668C27.223,56.946,19.1,73.073,16.304,78.768
		c-6.75,13.75-12.75,18.25,6.814,62.469c2.844,6.427,4.706,13.438,6.852,20.294c2.105,6.728,5.583,11.343,8.35,17.785
		c3.538,8.236,6.368,16.796,9.199,25.293c0.934,2.803,1.384,7.244,4.076,7.783c2.195,0.439,6.609,1.043,8.734,0.362
		c2.875-0.922,6.504-1.966,8.725-2.393c3.501-0.674,35.482-10.755,48.082-12.259c16.457-1.965,47.438,0.697,64.815-17.935
		c5.781-6.198,4.13-23.026,8.518-32.815c4.111-9.17,10.291-17.442,12.183-27.368C204.719,109.15,203.236,96.737,200.992,86z"/>
	<path fill="none" stroke="#000000" stroke-miterlimit="10" d="M181.534,180.257c5.781-6.198,4.13-23.026,8.518-32.815
		c4.111-9.17,10.291-17.442,12.183-27.368c2.065-10.833,0.582-23.247-1.662-33.983c-4.437-21.232-31.188-25.599-49.187-34.482
		c-19.25-9.5-33.25-16-56.25-17.5c-18.842-1.229-42.643,9.497-61.412,21.668c-6.919,1.261-15.042,17.388-17.838,23.082
		c-6.75,13.75-12.75,18.25,6.814,62.469c2.844,6.427,4.706,13.438,6.852,20.294c2.105,6.728,5.583,11.343,8.35,17.785
		c3.538,8.236,6.368,16.796,9.199,25.293c0.675,2.026,1.097,4.907,2.295,6.552"/>
	<path fill="none" stroke="#000000" stroke-miterlimit="10" d="M84.128,206.084c11.079-3.159,25.184-7.007,32.59-7.891
		c5.836-0.697,13.498-0.812,21.732-1.5"/>
</g>
<g id="r_x5F_leg">
	<path fill="#FFFFFF" d="M182.388,177.351c0,0,0.83-4.797-0.13-5.926c-1.354-1.592-8.219-1.523-8.219-1.523
		s-5.145,0.228-17.171,7.467s-18.235,9.611-19.381,15.748c-0.156,0.835,1.117,3.123,1.17,3.188c0,0,2.705,1.35,4.232,1.851
		c3.827,1.254,8.216,1.878,8.749,6.445c0.504,4.318-1.893,7.42-1.5,11.306c0.92,9.1,19.635,4.133,21.112,3.645
		c3.638-1.201,11.138-12.951,10.832-21.456c-0.117-3.25,0.056-13.008,0.056-13.008L182.388,177.351z"/>
	<path fill="none" stroke="#000000" stroke-miterlimit="10" d="M138.656,196.305c0,0,2.705,1.35,4.232,1.851
		c3.827,1.254,8.216,1.878,8.749,6.445c0.504,4.318-1.893,7.42-1.5,11.306c0.92,9.1,19.635,4.133,21.112,3.645
		c3.638-1.201,11.138-12.951,10.832-21.456c-0.117-3.25,0.056-13.008,0.056-13.008l0.25-7.737"/>
</g>
<g id="l_x5F_leg">
	<path fill="#FFFFFF" d="M81.951,195.692c-0.809-2.584-4.813-3.943-10.813-0.591c-3.526,1.97,1.94,0.79-12.814,6.002
		c-8.436,2.98-6.933,3.339-8.02,6.091c-0.357,0.905-0.752,2.87-0.647,3.836c0.272,2.491,4.192,5.991,6.108,7.946
		c2.594,2.647,10.784,6.099,10.784,6.099l7.327,1.985c0,0,6.614,0.565,8.617-0.228c3.411-1.35,8.697-7.741,9.498-11.186
		c0.881-3.79-7.629-8.437-8.964-11.918c-0.077-0.202-0.223-0.962-0.254-4.342C82.765,198.463,82.228,196.575,81.951,195.692z"/>
	<path fill="#FFFFFF" stroke="#000000" stroke-miterlimit="10" d="M48.99,211.099c0.272,2.491,4.192,5.991,6.108,7.946
		c2.594,2.647,10.784,6.099,10.784,6.099l7.327,1.985c0,0,6.614,0.565,8.617-0.228c3.411-1.35,8.697-7.741,9.498-11.186
		c0.756-3.253-5.407-7.138-8.012-10.375"/>
</g>
<g id="teeth">
	<path fill="none" stroke="#000000" stroke-miterlimit="10" d="M41.496,88.506c7.305,7.104,27.637,14.324,37.49,17.453
		c10.266,3.26,42.395,7.681,42.395,7.681"/>
	<path stroke="#000000" stroke-miterlimit="10" d="M41.83,89.511c2.388-3.925,5.59-9.062,8.973-12.012
		c2.097,2.585,2.043,6.859,2.929,10.143c1.249,4.629,5.592,11.066,5.592,11.066"/>
	<path stroke="#000000" stroke-miterlimit="10" d="M57.845,97.89c2.142-4.065,5.022-9.389,8.217-12.541
		c2.252,2.451,3.46,6.764,4.546,9.986c1.532,4.543,2.736,5.87,5.41,9.658"/>
	<line fill="none" stroke="#000000" stroke-miterlimit="10" x1="121.381" y1="113.64" x2="117.471" y2="123.524"/>
	<line fill="none" stroke="#000000" stroke-miterlimit="10" x1="41.83" y1="88.511" x2="41.496" y2="97.708"/>
</g>
<g id="eye">
	<circle stroke="#000000" stroke-miterlimit="10" cx="123.638" cy="54.851" r="37.834"/>
	
		<ellipse transform="matrix(0.9627 0.2706 -0.2706 0.9627 18.5005 -32.061)" fill="#FEFDF2" stroke="#000000" stroke-miterlimit="10" cx="125.53" cy="51.067" rx="37.834" ry="34.05"/>
</g>
<g id="pupil">
	<circle cx="126.88" cy="51.067" r="13.242"/>
</g>
<g id="brow">
	<path stroke="#000000" stroke-miterlimit="10" d="M114.711,0.193c5.882,14.029,40.385,50.184,54.186,24.895
		c-22.308,7.186-37.004-14.246-54.186-24.242"/>
</g>
</svg>
