<?xml version="1.0" encoding="utf-8"?>
<!-- Generator: Adobe Illustrator 17.0.0, SVG Export Plug-In . SVG Version: 6.00 Build 0)  -->
<!DOCTYPE svg PUBLIC "-//W3C//DTD SVG 1.1//EN" "http://www.w3.org/Graphics/SVG/1.1/DTD/svg11.dtd">
<svg version="1.1" id="Слой_2" xmlns="http://www.w3.org/2000/svg" xmlns:xlink="http://www.w3.org/1999/xlink" x="0px" y="0px"
	 width="400px" height="400px" viewBox="0 0 400 400" enable-background="new 0 0 400 400" xml:space="preserve">
<g id="body">
	<circle fill="#FFFFFF" stroke="#000000" stroke-miterlimit="10" cx="233.874" cy="196.64" r="94.407"/>
	<path fill="none" stroke="#000000" stroke-miterlimit="10" d="M309.691,253.83"/>
	
		<rect x="301.262" y="242.402" transform="matrix(0.8419 -0.5397 0.5397 0.8419 -85.2118 203.0408)" fill="#FFFFFF" width="5.176" height="9.037"/>
	
		<rect x="301.262" y="242.402" transform="matrix(0.8419 -0.5397 0.5397 0.8419 -85.2118 203.0408)" fill="#FFFFFF" width="5.176" height="9.037"/>
</g>
<g id="tail">
	<path fill="#FFFFFF" stroke="#000000" stroke-miterlimit="10" d="M139.829,205.315c0,8.976,1.262,17.657,3.616,25.877h-0.001
		c0,0,0.002,0.005,0.004,0.01c1.134,3.958,2.524,7.806,4.146,11.531c1.699,5.453,3.274,11.804,3.274,16.615
		c0,27.59-36.327,48.594-68.576,56.768C79.379,316.855,1,327.758,1,327.758s132.565,0,163.654,0
		c51.921,0,98.162-19.336,127.982-49.446c21.27-17.203,34.875-43.509,34.875-72.996"/>
</g>
<g id="spear">
	<path fill="#FDFDF1" stroke="#000000" stroke-miterlimit="10" d="M351.291,282.361l38.262-19.869
		c0.009-0.463-0.002-0.929-0.038-1.395c-0.071-0.914-0.229-1.807-0.466-2.677l-43.205-9.74l-20.91,5.74
		c-2.192,2.438-3.746,5.109-4.513,7.897c-9.463,0.719-20.525,1.569-32.693,2.522c-6.307,2.382-15.369,4.334-25.525,5.253
		c-11.125,1.007-21.148,0.555-27.789-0.965c-64.308,5.317-137.708,11.962-174.512,17.303c-1.644,0.508-4.229,2.367-3.109,5.881
		c1.12,3.514,2.914,3.665,3.91,4.461c4.024,0.041,9.272-0.093,15.5-0.372c0.116-2.838,4.244-5.45,9.515-5.927
		c5.488-0.497,10.124,1.51,10.354,4.481c0.008,0.102-0.002,0.203-0.005,0.305c51.828-3.471,137.734-12.157,196.31-18.344
		c2.138-1.446,4.87-2.446,7.909-2.721c2.835-0.257,5.507,0.156,7.746,1.058c4.948-0.528,9.6-1.028,13.92-1.493
		c1.695,2.907,4.355,5.449,7.743,7.488L351.291,282.361z"/>
	<path d="M327.495,282.495l22.984,1.407l40.52-21.271c0.005-0.504-0.01-1.01-0.053-1.518c-0.084-0.995-0.26-1.968-0.52-2.917
		l-46.05-10.985l-22.191,6.057c-3.682,4.199-5.637,9.053-5.215,14.069C317.483,273.441,321.42,278.723,327.495,282.495z"/>
	<path fill="none" stroke="#000000" stroke-miterlimit="10" d="M321.952,273.759c1.695,2.907,4.355,5.449,7.743,7.488l21.596,1.114
		l38.262-19.869c0.009-0.463-0.002-0.929-0.038-1.395c-0.071-0.914-0.229-1.807-0.466-2.677l-43.205-9.74l-20.91,5.74
		c-2.192,2.438-3.746,5.109-4.513,7.897"/>
	<path fill="#FFFFFF" d="M221.277,272.562c0.641,6.83-4.376,12.887-11.206,13.529l-12.367,1.161
		c-6.83,0.641-12.887-4.376-13.529-11.206l0,0c-0.641-6.83,4.376-12.887,11.206-13.529l12.367-1.161
		C214.578,260.715,220.635,265.732,221.277,272.562L221.277,272.562z"/>
	<path fill="none" stroke="#000000" stroke-miterlimit="10" d="M220.597,269.508c0.347,0.964,0.579,1.987,0.68,3.054l0,0
		c0.641,6.83-4.376,12.887-11.206,13.529l-12.367,1.161c-6.83,0.641-12.887-4.376-13.529-11.206l0,0
		c-0.153-1.634,0.13-2.645,0.13-2.645"/>
</g>
<g id="teeth">
	<polyline fill="none" stroke="#000000" stroke-miterlimit="10" points="297.546,189.647 301.215,181.302 287.21,179.216 
		241.717,161.742 241.944,168.763 	"/>
	<path stroke="#000000" stroke-miterlimit="10" d="M252.348,166.536c-1.672-8.508-5.48-15.326-7.28-23.703
		c0.047,6.659-1.334,13.778-3.276,19.984"/>
	<path stroke="#000000" stroke-miterlimit="10" d="M252.4,166.887c1.808-4.866,5.26-11.132,7.833-16.236
		c0.591,6.656,3.161,12.297,2.381,19.623"/>
</g>
<g id="eye">
	<circle fill="#FEFDF2" stroke="#000000" stroke-miterlimit="10" cx="249.547" cy="96.833" r="33.362"/>
	<path d="M270.558,70.579c-18.58-16.403-43.106-0.027-43.106-0.027s26.177,11.093,33.29,17.186
		c5.9,5.054,18.326,25.099,18.326,25.099S290.221,87.89,270.558,70.579z"/>
</g>
<g id="pupil">
	<circle cx="258.787" cy="101.641" r="14.027"/>
</g>
</svg>
