<?xml version="1.0" encoding="utf-8"?>
<!-- Generator: Adobe Illustrator 17.0.0, SVG Export Plug-In . SVG Version: 6.00 Build 0)  -->
<!DOCTYPE svg PUBLIC "-//W3C//DTD SVG 1.1//EN" "http://www.w3.org/Graphics/SVG/1.1/DTD/svg11.dtd">
<svg version="1.1" xmlns="http://www.w3.org/2000/svg" xmlns:xlink="http://www.w3.org/1999/xlink" x="0px" y="0px"
	 width="353.042px" height="407.658px" viewBox="0 0 353.042 407.658" enable-background="new 0 0 353.042 407.658"
	 xml:space="preserve">
<g id="Слой_1" display="none">
	<polygon display="inline" points="354.042,303.743 177.521,405.658 1,303.743 1,99.914 177.521,-2 354.042,99.914 	"/>
</g>
<g id="Слой_4" display="none">
	<path display="inline" fill="#D24A43" d="M386.531,397.533c0,6.627-5.373,12-12,12H5.955c-6.627,0-12-5.373-12-12V15.875
		c0-6.627,5.373-12,12-12h368.576c6.627,0,12,5.373,12,12V397.533z"/>
</g>
<g id="Слой_2">
	<circle fill="#FFFFFF" cx="190.409" cy="123.346" r="26.525"/>
	<path fill="#FFFFFF" d="M256.218,191.338c0-37.551-30.441-67.992-67.992-67.992s-67.992,30.441-67.992,67.992
		c0,6.504,0.915,12.793,2.62,18.749h-0.001c0,0,0.001,0.003,0.003,0.008c0.821,2.868,1.829,5.656,3.004,8.355
		c1.231,3.951,2.372,8.553,2.372,12.038c0,19.99-26.32,35.209-49.686,41.131c-2.111,0.535-58.899,8.434-58.899,8.434
		s96.049,0,118.574,0c37.619,0,71.122-14.009,92.729-35.826C246.361,231.763,256.218,212.703,256.218,191.338z"/>
	<path fill="#FFFFFF" stroke="#000000" stroke-miterlimit="10" d="M216.247,129.369c-2.727,11.748-13.261,20.503-25.839,20.503
		c-13.166,0-24.092-9.592-26.169-22.17"/>
	<circle stroke="#FFFFFF" stroke-miterlimit="10" cx="190.409" cy="123.346" r="15.613"/>
	<polygon fill="#FFFFFF" stroke="#000000" stroke-miterlimit="10" points="248.659,187.788 243.765,179.996 239.137,187.716 
		237.233,190.891 236.723,190.395 231.209,185.819 228.824,190.395 228.768,190.601 228.557,190.395 223.413,186.126 
		221.188,190.395 221.085,190.778 216.991,186.746 208.54,179.879 207.449,188.883 206.704,192.233 202.25,187.568 195.96,180.982 
		196.688,188.883 197.415,196.783 202.977,195.469 205.966,195.552 205.966,195.552 214.243,195.783 220.243,196.783 
		220.103,195.369 226.493,195.205 227.586,194.972 227.586,194.972 234.509,194.972 234.787,194.972 234.509,195.435 
		243.765,195.435 253.493,194.913 	"/>
	<rect x="252.962" y="199.257" fill="#FFFFFF" width="9.332" height="4.015"/>
	<path fill="#FFFFFF" d="M279.968,244.626l27.723-14.396c0.006-0.336-0.001-0.673-0.027-1.011c-0.051-0.662-0.166-1.309-0.338-1.94
		l-31.304-7.057l-15.15,4.159c-1.588,1.767-2.714,3.701-3.27,5.722c-6.856,0.521-14.872,1.137-23.687,1.827
		c-4.57,1.726-11.135,3.14-18.494,3.806c-8.06,0.729-15.322,0.402-20.134-0.699c-46.594,3.853-99.775,8.667-126.442,12.537
		c-1.191,0.368-3.064,1.715-2.253,4.261c0.812,2.546,2.111,2.656,2.833,3.232c2.916,0.03,6.718-0.067,11.23-0.27
		c0.084-2.056,3.075-3.949,6.894-4.294c3.976-0.36,7.335,1.094,7.502,3.246c0.006,0.074-0.002,0.147-0.003,0.221
		c37.552-2.515,99.794-8.808,142.235-13.291c1.549-1.047,3.529-1.772,5.73-1.971c2.054-0.186,3.99,0.113,5.612,0.767
		c3.585-0.383,6.955-0.745,10.086-1.082c1.228,2.106,3.156,3.948,5.61,5.425L279.968,244.626z"/>
	<path d="M262.726,244.723l16.653,1.019l29.359-15.412c0.004-0.365-0.007-0.732-0.038-1.1c-0.061-0.721-0.189-1.426-0.377-2.113
		l-33.365-7.959l-16.079,4.388c-2.668,3.042-4.084,6.559-3.779,10.194C255.472,238.163,258.325,241.99,262.726,244.723z"/>
	<path fill="none" stroke="#000000" stroke-miterlimit="10" d="M243.306,231.199"/>
	<path fill="none" stroke="#000000" stroke-miterlimit="10" d="M258.71,238.393c1.228,2.106,3.156,3.948,5.61,5.425l15.648,0.807
		l27.723-14.396c0.006-0.336-0.001-0.673-0.027-1.011c-0.051-0.662-0.166-1.309-0.338-1.94l-31.304-7.057l-15.15,4.159
		c-1.588,1.767-2.714,3.701-3.27,5.722"/>
	<path fill="none" stroke="#000000" stroke-miterlimit="10" d="M116.452,252.296c44.907-3.824,118.254-11.344,118.254-11.344"/>
	<path fill="none" stroke="#000000" stroke-miterlimit="10" d="M125.65,241.197c-22.883,2.203-43.263,4.412-56.805,6.377
		c-1.191,0.368-3.064,1.715-2.253,4.261c0.812,2.546,2.111,2.656,2.833,3.232c2.916,0.03,6.718-0.067,11.23-0.27
		c0.084-2.056,3.075-3.949,6.894-4.294c3.976-0.36,7.335,1.094,7.502,3.246c0.006,0.074-0.002,0.147-0.003,0.221
		c5.723-0.383,13.075-0.965,21.405-1.675"/>
	<path fill="none" stroke="#000000" stroke-miterlimit="10" d="M243.306,231.199c-3.01,0.233-6.146,0.477-9.391,0.731
		c-4.57,1.726-11.135,3.14-18.494,3.806c-8.06,0.729-15.322,0.402-20.134-0.699c-22.932,1.896-47.459,4.025-69.636,6.16"/>
	<path fill="#FFFFFF" d="M185.767,237.526c0.465,4.949-3.17,9.337-8.119,9.802l-8.961,0.841c-4.949,0.465-9.337-3.17-9.802-8.119
		l0,0c-0.465-4.949,3.17-9.337,8.119-9.802l8.961-0.841C180.914,228.942,185.302,232.577,185.767,237.526L185.767,237.526z"/>
	<path fill="none" stroke="#000000" stroke-miterlimit="10" d="M185.274,235.313c0.251,0.698,0.42,1.44,0.492,2.213l0,0
		c0.465,4.949-3.17,9.337-8.119,9.802l-8.961,0.841c-4.949,0.465-9.337-3.17-9.802-8.119l0,0c-0.111-1.184,0.094-1.916,0.094-1.916"
		/>
	<rect x="197.442" y="194.376" width="65.804" height="12.929"/>
	<g>
		<polygon fill="#FFFFFF" points="263.271,195.783 194.894,195.783 194.894,203.29 194.076,203.29 194.076,209.038 243.218,210.038 
			242.528,205.455 263.271,205.569 		"/>
	</g>
</g>
<g id="Слой_3">
	<polyline fill="#FFFFFF" stroke="#000000" stroke-miterlimit="10" points="256.42,188.677 254.497,180.952 252.334,188.885 
		248.858,181.105 247.607,186.962 	"/>
	<line fill="#FFFFFF" stroke="#000000" stroke-miterlimit="10" x1="256.657" y1="189.631" x2="256.42" y2="188.677"/>
	<polyline fill="#FFFFFF" stroke="#000000" stroke-miterlimit="10" points="247.678,194.913 251.94,194.663 257.919,194.538 
		261.866,194.376 261.947,193.788 	"/>
	<polyline fill="#FFFFFF" points="248.076,194.376 252.337,194.126 258.317,194.001 262.264,193.839 264.361,178.473 
		257.055,189.094 	"/>
	
		<rect x="247.198" y="186.919" transform="matrix(0.8419 -0.5397 0.5397 0.8419 -63.2582 164.5062)" fill="#FFFFFF" width="3.75" height="6.548"/>
</g>
</svg>
