<?xml version="1.0" encoding="utf-8"?>
<!-- Generator: Adobe Illustrator 17.0.0, SVG Export Plug-In . SVG Version: 6.00 Build 0)  -->
<!DOCTYPE svg PUBLIC "-//W3C//DTD SVG 1.1//EN" "http://www.w3.org/Graphics/SVG/1.1/DTD/svg11.dtd">
<svg version="1.1" id="Слой_2" xmlns="http://www.w3.org/2000/svg" xmlns:xlink="http://www.w3.org/1999/xlink" x="0px" y="0px"
	 width="32px" height="32px" viewBox="0 0 32 32" enable-background="new 0 0 32 32" xml:space="preserve">
<g>
	<path fill="#FFFFFF" stroke="#000000" stroke-miterlimit="10" d="M1.232,30.069h0.134c-0.045,0-0.089-0.003-0.134-0.004V30.069z"/>
	<path fill="#FFFFFF" stroke="#000000" stroke-miterlimit="10" d="M30.866,30.069H31v-0.004
		C30.955,30.066,30.911,30.069,30.866,30.069z"/>
	<path fill="#FFFFFF" stroke="#000000" stroke-miterlimit="10" d="M24.627,22.625c0-0.553,0.053-1.221,0.149-1.61
		c0.367-1.5,1.368-3.833,1.368-6.034c0-6.607-4.489-11.963-10.027-11.963S6.089,8.375,6.089,14.982c0,2.201,1,4.534,1.368,6.034
		c0.095,0.389,0.149,1.057,0.149,1.61c0,4.111-2.793,7.444-6.239,7.444h29.501C27.42,30.069,24.627,26.736,24.627,22.625z"/>
</g>
<circle fill="#FFFFFF" stroke="#000000" stroke-miterlimit="10" cx="10.594" cy="5.014" r="2.762"/>
<path d="M11.744,3.864C11.45,4.158,11.043,4.34,10.594,4.34S9.739,4.158,9.445,3.864c-0.294,0.294-0.477,0.701-0.477,1.15
	c0,0.473,0.203,0.897,0.525,1.194c0.29-0.267,0.676-0.432,1.101-0.432s0.811,0.165,1.101,0.432c0.322-0.297,0.525-0.721,0.525-1.194
	C12.22,4.565,12.038,4.158,11.744,3.864z"/>
<polygon fill="#FFFFFF" stroke="#000000" stroke-miterlimit="10" points="7.746,16.336 8.186,15.849 8.591,16.102 8.968,16.336 
	9.325,16.102 9.755,15.646 10.161,16.102 10.382,15.933 10.566,16.102 11.01,15.81 11.346,16.102 11.498,16.336 12.212,15.446 
	13.526,14.577 13.695,15.716 13.811,16.139 14.504,15.55 15.481,14.717 15.368,15.716 15.255,16.715 14.391,16.549 13.926,16.559 
	13.926,16.559 12.64,16.588 11.707,16.715 11.729,16.536 10.736,16.515 10.566,16.486 10.566,16.486 9.49,16.486 9.446,16.486 
	9.49,16.544 8.051,16.544 6.539,16.478 "/>
<rect x="5.171" y="17.028" fill="#FFFFFF" width="1.45" height="0.508"/>
<rect x="5.137" y="16.41" width="10.228" height="1.362"/>
<line fill="#FFFFFF" stroke="#000000" stroke-miterlimit="10" x1="6.047" y1="15.81" x2="6.084" y2="15.69"/>
<polyline fill="#FFFFFF" stroke="#000000" stroke-miterlimit="10" points="7.443,16.478 6.78,16.447 5.851,16.431 5.238,16.41 
	5.225,16.336 "/>
<polyline fill="#FFFFFF" stroke="#000000" stroke-miterlimit="10" points="7.381,16.41 6.719,16.379 5.789,16.363 5.176,16.343 
	4.85,14.4 5.985,15.743 "/>
<polyline fill="#FFFFFF" stroke="#000000" stroke-miterlimit="10" points="6.047,15.81 6.334,14.4 7.443,16.478 "/>
<g>
	<ellipse cx="8.186" cy="12.022" rx="0.405" ry="0.605"/>
	<ellipse cx="10.161" cy="12.047" rx="0.405" ry="0.605"/>
</g>
<path fill="#FFFFFF" stroke="#000000" stroke-miterlimit="10" d="M20.944,18.413c0.35-0.888,1.962-2.767,1.962-2.767l4.304-8.087
	l-0.856-0.43l-8.197,15.305c0,0,1.108,0.627,1.326,0.526c0.252-0.402,0.464-1.538,0.464-1.538S20.636,19.192,20.944,18.413z"/>
<polygon points="28.49,8.85 24.168,6.364 22.475,6.749 21.979,7.612 22.307,9.933 23.662,11.023 26.135,12.445 28.901,11.816 
	29.236,11.233 "/>
<rect x="5.137" y="17.62" width="3.449" height="0.4"/>
<g>
	<polygon fill="#FFFFFF" points="5.285,16.588 15.876,16.588 15.876,17.538 16.003,17.538 16.003,18.264 8.391,18.391 8.498,17.811 
		5.285,17.826 	"/>
</g>
<g>
	<path fill="#FFFFFF" d="M20.282,19.808c-0.671-0.318-1.017-0.993-0.773-1.506l0.441-0.93c0.244-0.514,0.985-0.672,1.655-0.354l0,0
		c0.671,0.318,1.017,0.993,0.773,1.506l-0.441,0.93C21.693,19.968,20.952,20.126,20.282,19.808L20.282,19.808z"/>
	<path fill="none" stroke="#000000" stroke-miterlimit="10" d="M20.599,19.923c-0.106-0.027-0.213-0.065-0.317-0.115l0,0
		c-0.671-0.318-1.017-0.993-0.773-1.506l0.441-0.93c0.244-0.514,0.985-0.672,1.655-0.354l0,0c0.16,0.076,0.243,0.15,0.243,0.15"/>
</g>
<path fill="none" stroke="#000000" stroke-miterlimit="10" d="M12.983,3.625c0.238,0.408,0.374,0.883,0.374,1.389
	c0,1.526-1.237,2.762-2.762,2.762c-0.739,0-1.41-0.29-1.906-0.763"/>
</svg>
