<?xml version="1.0" encoding="utf-8"?>
<!-- Generator: Adobe Illustrator 17.0.0, SVG Export Plug-In . SVG Version: 6.00 Build 0)  -->
<!DOCTYPE svg PUBLIC "-//W3C//DTD SVG 1.1//EN" "http://www.w3.org/Graphics/SVG/1.1/DTD/svg11.dtd">
<svg version="1.1" xmlns="http://www.w3.org/2000/svg" xmlns:xlink="http://www.w3.org/1999/xlink" x="0px" y="0px"
	 width="353.042px" height="407.658px" viewBox="0 0 353.042 407.658" enable-background="new 0 0 353.042 407.658"
	 xml:space="preserve">
<g id="Слой_1" display="none">
	<polygon display="inline" points="354.042,303.743 177.521,405.658 1,303.743 1,99.914 177.521,-2 354.042,99.914 	"/>
</g>
<g id="Слой_4" display="none">
	<path display="inline" fill="#D24A43" d="M386.531,397.533c0,6.627-5.373,12-12,12H5.955c-6.627,0-12-5.373-12-12V15.875
		c0-6.627,5.373-12,12-12h368.576c6.627,0,12,5.373,12,12V397.533z"/>
</g>
<g id="Слой_2">
	<path fill="#FFFFFF" stroke="#000000" stroke-miterlimit="10" d="M256.218,191.338c0-37.551-30.441-67.992-67.992-67.992
		s-67.992,30.441-67.992,67.992c0,6.504,0.915,12.793,2.62,18.749h-0.001c0,0,0.001,0.003,0.003,0.008
		c0.821,2.868,1.829,5.656,3.004,8.355c1.231,3.951,2.372,8.553,2.372,12.038c0,19.99-26.32,35.209-49.686,41.131
		c-2.111,0.535-58.899,8.434-58.899,8.434s96.049,0,118.574,0c37.619,0,71.122-14.009,92.729-35.826
		C246.361,231.763,256.218,212.703,256.218,191.338z"/>
	<circle fill="#FFFFFF" stroke="#000000" stroke-miterlimit="10" cx="190.409" cy="123.346" r="26.525"/>
	<path fill="#FFFFFF" stroke="#000000" stroke-miterlimit="10" d="M216.247,129.369c-2.727,11.748-13.261,20.503-25.839,20.503
		c-13.166,0-24.092-9.592-26.169-22.17"/>
	<circle stroke="#FFFFFF" stroke-miterlimit="10" cx="190.409" cy="123.346" r="15.613"/>
	<polygon fill="#FFFFFF" stroke="#000000" stroke-miterlimit="10" points="248.659,187.788 243.765,179.996 239.137,187.716 
		237.233,190.891 236.723,190.395 231.209,185.819 228.824,190.395 228.768,190.601 228.557,190.395 223.413,186.126 
		221.188,190.395 221.085,190.778 216.991,186.746 208.54,179.879 207.449,188.883 206.704,192.233 202.25,187.568 195.96,180.982 
		196.688,188.883 197.415,196.783 202.977,195.469 205.966,195.552 205.966,195.552 214.243,195.783 220.243,196.783 
		220.103,195.369 226.493,195.205 227.586,194.972 227.586,194.972 234.509,194.972 234.787,194.972 234.509,195.435 
		243.765,195.435 253.493,194.913 	"/>
	<rect x="252.962" y="199.257" fill="#FFFFFF" width="9.332" height="4.015"/>
	<path fill="#FFFFFF" stroke="#000000" stroke-miterlimit="10" d="M279.968,244.626l27.723-14.396
		c0.006-0.336-0.001-0.673-0.027-1.011c-0.051-0.662-0.166-1.309-0.338-1.94l-31.304-7.057l-15.15,4.159
		c-1.588,1.767-2.714,3.701-3.27,5.722c-6.856,0.521-14.872,1.137-23.687,1.827c-4.57,1.726-11.135,3.14-18.494,3.806
		c-8.06,0.729-15.322,0.402-20.134-0.699c-46.594,3.853-99.775,8.667-126.442,12.537c-1.191,0.368-3.064,1.715-2.253,4.261
		c0.812,2.546,2.111,2.656,2.833,3.232c2.916,0.03,6.718-0.067,11.23-0.27c0.084-2.056,3.075-3.949,6.894-4.294
		c3.976-0.36,7.335,1.094,7.502,3.246c0.006,0.074-0.002,0.147-0.003,0.221c37.552-2.515,99.794-8.808,142.235-13.291
		c1.549-1.047,3.529-1.772,5.73-1.971c2.054-0.186,3.99,0.113,5.612,0.767c3.585-0.383,6.955-0.745,10.086-1.082
		c1.228,2.106,3.156,3.948,5.61,5.425L279.968,244.626z"/>
	<path d="M262.726,244.723l16.653,1.019l29.359-15.412c0.004-0.365-0.007-0.732-0.038-1.1c-0.061-0.721-0.189-1.426-0.377-2.113
		l-33.365-7.959l-16.079,4.388c-2.668,3.042-4.084,6.559-3.779,10.194C255.472,238.163,258.325,241.99,262.726,244.723z"/>
	<path fill="none" stroke="#000000" stroke-miterlimit="10" d="M243.306,231.199"/>
	<path fill="none" stroke="#000000" stroke-miterlimit="10" d="M258.71,238.393c1.228,2.106,3.156,3.948,5.61,5.425l15.648,0.807
		l27.723-14.396c0.006-0.336-0.001-0.673-0.027-1.011c-0.051-0.662-0.166-1.309-0.338-1.94l-31.304-7.057l-15.15,4.159
		c-1.588,1.767-2.714,3.701-3.27,5.722"/>
	<path fill="#FFFFFF" d="M185.767,237.526c0.465,4.949-3.17,9.337-8.119,9.802l-8.961,0.841c-4.949,0.465-9.337-3.17-9.802-8.119
		l0,0c-0.465-4.949,3.17-9.337,8.119-9.802l8.961-0.841C180.914,228.942,185.302,232.577,185.767,237.526L185.767,237.526z"/>
	<path fill="none" stroke="#000000" stroke-miterlimit="10" d="M185.274,235.313c0.251,0.698,0.42,1.44,0.492,2.213l0,0
		c0.465,4.949-3.17,9.337-8.119,9.802l-8.961,0.841c-4.949,0.465-9.337-3.17-9.802-8.119l0,0c-0.111-1.184,0.094-1.916,0.094-1.916"
		/>
	<rect x="197.442" y="194.376" width="65.804" height="12.929"/>
	<g>
		<polygon fill="#FFFFFF" points="261.947,195.783 193.89,195.783 193.89,203.29 193.076,203.29 193.076,209.038 241.988,210.038 
			241.301,205.455 261.947,205.569 		"/>
	</g>
	<line fill="#FFFFFF" stroke="#000000" stroke-miterlimit="10" x1="246.657" y1="225.631" x2="246.42" y2="224.677"/>
	
		<rect x="237.198" y="222.919" transform="matrix(0.8419 -0.5397 0.5397 0.8419 -84.2692 164.8025)" fill="#FFFFFF" width="3.75" height="6.548"/>
	
		<rect x="237.198" y="222.919" transform="matrix(0.8419 -0.5397 0.5397 0.8419 -84.2692 164.8025)" fill="#FFFFFF" width="3.75" height="6.548"/>
</g>
<g id="Слой_3">
	<polyline fill="#FFFFFF" stroke="#000000" stroke-miterlimit="10" points="256.42,188.677 254.497,180.952 252.334,188.885 
		248.858,181.105 247.607,186.962 	"/>
	<line fill="#FFFFFF" stroke="#000000" stroke-miterlimit="10" x1="256.657" y1="189.631" x2="256.42" y2="188.677"/>
	<polyline fill="#FFFFFF" stroke="#000000" stroke-miterlimit="10" points="247.678,194.913 251.94,194.663 257.919,194.538 
		261.866,194.376 261.947,193.788 	"/>
	<polyline fill="#FFFFFF" stroke="#000000" stroke-miterlimit="10" points="248.076,194.376 252.337,194.126 258.317,194.001 
		262.264,193.839 264.361,178.473 257.055,189.094 	"/>
	
		<rect x="247.198" y="186.919" transform="matrix(0.8419 -0.5397 0.5397 0.8419 -63.2582 164.5062)" fill="#FFFFFF" width="3.75" height="6.548"/>
</g>
<g id="Слой_5" display="none">
	<g display="inline">
		<path fill="#FFFFFF" stroke="#000000" stroke-miterlimit="10" d="M43.156,306.788h1.169c-0.392,0-0.779-0.025-1.169-0.035V306.788
			z"/>
		<path fill="#FFFFFF" stroke="#000000" stroke-miterlimit="10" d="M302.229,306.788h1.169v-0.035
			C303.008,306.763,302.621,306.788,302.229,306.788z"/>
		<path fill="#FFFFFF" stroke="#000000" stroke-miterlimit="10" d="M247.684,241.712c0-4.835,0.468-10.674,1.3-14.071
			c3.213-13.112,11.956-33.509,11.956-52.749c0-57.762-39.248-104.587-87.663-104.587S85.615,117.13,85.615,174.892
			c0,19.239,8.743,39.636,11.956,52.749c0.832,3.397,1.3,9.237,1.3,14.071c0,35.941-24.421,65.077-54.546,65.077h257.905
			C272.105,306.788,247.684,277.652,247.684,241.712z"/>
	</g>
	<circle display="inline" fill="#FFFFFF" stroke="#000000" stroke-miterlimit="10" cx="125.006" cy="87.75" r="24.15"/>
	<path display="inline" stroke="#FFFFFF" stroke-miterlimit="10" d="M135.055,77.696c-2.572,2.571-6.124,4.16-10.048,4.16
		s-7.476-1.59-10.048-4.16c-2.574,2.573-4.167,6.128-4.167,10.054c0,4.134,1.775,7.844,4.592,10.441
		c2.533-2.336,5.906-3.774,9.623-3.774s7.09,1.438,9.623,3.774c2.817-2.597,4.592-6.307,4.592-10.441
		C139.221,83.823,137.629,80.268,135.055,77.696z"/>
	<polygon display="inline" fill="#FFFFFF" stroke="#000000" stroke-miterlimit="10" points="100.103,186.731 103.948,182.47 
		107.49,184.685 110.791,186.731 113.909,184.685 117.671,180.7 121.213,184.685 123.148,183.208 124.755,184.685 128.64,182.136 
		131.576,184.685 132.909,186.731 139.151,178.947 150.635,171.357 152.116,181.309 153.129,185.012 159.181,179.856 
		167.728,172.575 166.739,181.309 165.751,190.042 158.193,188.59 154.132,188.681 154.132,188.681 142.885,188.937 
		134.733,190.042 134.923,188.479 126.24,188.297 124.755,188.04 124.755,188.04 115.347,188.04 114.97,188.04 115.347,188.552 
		102.771,188.552 89.553,187.975 	"/>
	<rect x="77.593" y="192.776" display="inline" fill="#FFFFFF" width="12.68" height="4.438"/>
	<rect x="77.299" y="187.381" display="inline" width="89.415" height="11.907"/>
	
		<line display="inline" fill="#FFFFFF" stroke="#000000" stroke-miterlimit="10" x1="85.253" y1="182.136" x2="85.575" y2="181.082"/>
	<polyline display="inline" fill="#FFFFFF" stroke="#000000" stroke-miterlimit="10" points="97.454,187.975 91.663,187.699 
		83.537,187.561 78.174,187.381 78.065,186.731 	"/>
	<polyline display="inline" fill="#FFFFFF" stroke="#000000" stroke-miterlimit="10" points="96.913,187.381 91.123,187.105 
		82.997,186.967 77.634,186.788 74.785,169.803 84.712,181.542 	"/>
	<polyline display="inline" fill="#FFFFFF" stroke="#000000" stroke-miterlimit="10" points="85.253,182.136 87.759,169.803 
		97.454,187.975 	"/>
	<g display="inline">
		<ellipse stroke="#000000" stroke-miterlimit="10" cx="103.948" cy="149.02" rx="3.542" ry="5.291"/>
		<ellipse stroke="#000000" stroke-miterlimit="10" cx="121.213" cy="149.233" rx="3.542" ry="5.291"/>
	</g>
	<path display="inline" fill="#FFFFFF" stroke="#000000" stroke-miterlimit="10" d="M215.483,204.89
		c3.063-7.759,17.149-24.19,17.149-24.19l37.626-70.701l-7.484-3.755l-71.661,133.803c0,0,9.69,5.479,11.589,4.599
		c2.207-3.511,4.057-13.442,4.057-13.442S212.795,211.701,215.483,204.89z"/>
	<polygon display="inline" points="281.455,121.282 243.674,99.552 228.873,102.916 224.534,110.46 227.404,130.751 
		239.248,140.279 260.863,152.711 285.044,147.216 287.978,142.115 	"/>
	<rect x="77.299" y="197.954" display="inline" width="30.155" height="3.5"/>
	<g display="inline">
		<polygon fill="#FFFFFF" points="78.593,188.937 171.18,188.937 171.18,197.235 172.288,197.235 172.288,203.589 105.746,204.694 
			106.68,199.628 78.593,199.754 		"/>
	</g>
	<g display="inline">
		<path fill="#FFFFFF" d="M209.696,217.086c-5.862-2.782-8.887-8.677-6.756-13.168l3.858-8.131
			c2.131-4.491,8.611-5.876,14.473-3.094l0,0c5.862,2.782,8.887,8.677,6.756,13.168l-3.858,8.131
			C222.038,218.483,215.558,219.868,209.696,217.086L209.696,217.086z"/>
		<path fill="none" stroke="#000000" stroke-miterlimit="10" d="M212.47,218.089c-0.927-0.235-1.858-0.568-2.774-1.003l0,0
			c-5.862-2.782-8.887-8.677-6.756-13.168l3.858-8.131c2.131-4.491,8.611-5.876,14.473-3.094l0,0
			c1.403,0.666,2.123,1.309,2.123,1.309"/>
	</g>
	<path display="inline" fill="none" stroke="#000000" stroke-miterlimit="10" d="M145.886,75.607
		c2.079,3.567,3.27,7.716,3.27,12.143c0,13.338-10.812,24.15-24.15,24.15c-6.46,0-12.328-2.537-16.662-6.669"/>
</g>
</svg>
