<?xml version="1.0" encoding="utf-8"?>
<!-- Generator: Adobe Illustrator 17.0.0, SVG Export Plug-In . SVG Version: 6.00 Build 0)  -->
<!DOCTYPE svg PUBLIC "-//W3C//DTD SVG 1.1//EN" "http://www.w3.org/Graphics/SVG/1.1/DTD/svg11.dtd">
<svg version="1.1" id="Слой_1" xmlns="http://www.w3.org/2000/svg" xmlns:xlink="http://www.w3.org/1999/xlink" x="0px" y="0px"
	 width="40px" height="40px" viewBox="0 0 40 40" enable-background="new 0 0 40 40" xml:space="preserve">
<path stroke="#000000" stroke-miterlimit="10" d="M20.222,2.292l-7.62,0.349L8.076,3.029l4.77,6.706L3.961,8.537l3.643,4.728
	l1.826,2.86l-4.442-1.836c0,0,1.024,6.798,1.668,8.992c0.235,0.799,1.26,3.082,1.26,3.082l1.885,2.896l1.218,2.034"/>
<path fill="#FFFFFF" stroke="#000000" stroke-miterlimit="10" d="M33.608,28.627c-1.769,6.794-5.493,9.08-12.269,9.08
	S10.448,33.06,9.07,26.176C7.676,19.211,13.252,2.294,21.339,2.294C30.169,2.294,35.374,21.844,33.608,28.627z"/>
<polyline fill="#FFFFFF" stroke="#000000" stroke-miterlimit="10" points="30.476,15.856 33.264,15.856 33.264,13.718 
	24.341,13.718 "/>
<path fill="#FFFFFF" stroke="#000000" stroke-miterlimit="10" d="M33.264,13.657c0.444-1,0.683-3.847,0.683-3.847l-2.19,3.908
	L30.62,9.882l-0.685,3.836l-1.344-1.58c0,0-0.382,1.106-0.646,1.468c-0.236-0.933-0.911-0.701-1.062,0.112
	c-0.793-0.915-0.567-0.856-1.199,0c-0.428-1.112-1.449-1.361-1.343,0"/>
<circle fill="#FFFFFF" stroke="#000000" stroke-miterlimit="10" cx="27.155" cy="6.86" r="3.405"/>
<path d="M29.976,6.842c0,0.461-0.24,0.835-0.535,0.835h-4.573c-0.296,0-0.535-0.374-0.535-0.835l0,0c0-0.461,0.24-0.835,0.535-0.835
	h4.573C29.737,6.007,29.976,6.381,29.976,6.842L29.976,6.842z"/>
<path fill="#FFFFFF" stroke="#000000" stroke-miterlimit="10" d="M22.361,29.656c2.165-2.025,4.657-4.359,6.491-6.541
	c1.789-2.128,5.212-6.379,5.212-6.379l0.503,1.132l-4.376,5.468l-6.906,7.283L22.361,29.656"/>
<polyline stroke="#000000" stroke-miterlimit="10" points="33.137,16.569 35.533,19.29 35.788,23.067 32.575,22.294 30.252,19.81 
	30.309,17.706 33.137,16.569 "/>
<path fill="#FFFFFF" stroke="#000000" stroke-miterlimit="10" d="M33.951,24.856c0.688-0.938,0.451-1.599,1.799-1.733
	c0.738-0.073,2.075-0.181,2.506,0.438c0.653,0.935-0.427,1.168-1.027,1.478c-0.814,0.421-3.279,1.457-3.279,1.457"/>
<path fill="#FFFFFF" stroke="#000000" stroke-miterlimit="10" d="M21.403,27.151c0.569,1.36,1.255,2.62,2.91,1.799
	c0.862-0.428,2.889-2.447,1.007-2.983"/>
</svg>
