<?xml version="1.0" encoding="utf-8"?>
<!-- Generator: Adobe Illustrator 17.0.0, SVG Export Plug-In . SVG Version: 6.00 Build 0)  -->
<!DOCTYPE svg PUBLIC "-//W3C//DTD SVG 1.1//EN" "http://www.w3.org/Graphics/SVG/1.1/DTD/svg11.dtd">
<svg version="1.1" id="Слой_2" xmlns="http://www.w3.org/2000/svg" xmlns:xlink="http://www.w3.org/1999/xlink" x="0px" y="0px"
	 width="40px" height="40px" viewBox="0 0 40 40" enable-background="new 0 0 40 40" xml:space="preserve">
<g>
	<path fill="#FFFFFF" stroke="#000000" stroke-miterlimit="10" d="M1.821,36.62h0.166c-0.056,0-0.111-0.004-0.166-0.005V36.62z"/>
	<path fill="#FFFFFF" stroke="#000000" stroke-miterlimit="10" d="M38.589,36.62h0.166v-0.005
		C38.7,36.617,38.645,36.62,38.589,36.62z"/>
	<path fill="#FFFFFF" stroke="#000000" stroke-miterlimit="10" d="M30.848,27.384c0-0.686,0.066-1.515,0.184-1.997
		c0.456-1.861,1.697-4.756,1.697-7.486c0-8.198-5.57-14.843-12.441-14.843S7.847,9.703,7.847,17.901
		c0,2.731,1.241,5.625,1.697,7.486c0.118,0.482,0.184,1.311,0.184,1.997c0,5.101-3.466,9.236-7.741,9.236h36.603
		C34.314,36.62,30.848,32.485,30.848,27.384z"/>
</g>
<circle fill="#FFFFFF" stroke="#000000" stroke-miterlimit="10" cx="13.437" cy="5.533" r="3.427"/>
<path d="M14.863,4.106c-0.365,0.365-0.869,0.59-1.426,0.59c-0.557,0-1.061-0.226-1.426-0.59c-0.365,0.365-0.591,0.87-0.591,1.427
	c0,0.587,0.252,1.113,0.652,1.482c0.359-0.331,0.838-0.536,1.366-0.536c0.528,0,1.006,0.204,1.366,0.536
	c0.4-0.369,0.652-0.895,0.652-1.482C15.455,4.976,15.229,4.471,14.863,4.106z"/>
<polygon fill="#FFFFFF" stroke="#000000" stroke-miterlimit="10" points="9.903,19.581 10.449,18.976 10.951,19.291 11.42,19.581 
	11.862,19.291 12.396,18.725 12.899,19.291 13.174,19.081 13.401,19.291 13.953,18.929 14.37,19.291 14.559,19.581 15.445,18.476 
	17.074,17.399 17.285,18.812 17.429,19.337 18.287,18.605 19.5,17.572 19.36,18.812 19.22,20.051 18.147,19.845 17.571,19.858 
	17.571,19.858 15.975,19.894 14.818,20.051 14.845,19.829 13.612,19.803 13.402,19.767 13.402,19.767 12.066,19.767 12.013,19.767 
	12.066,19.84 10.282,19.84 8.405,19.758 "/>
<rect x="6.708" y="20.439" fill="#FFFFFF" width="1.8" height="0.63"/>
<rect x="6.666" y="19.673" width="12.69" height="1.69"/>
<line fill="#FFFFFF" stroke="#000000" stroke-miterlimit="10" x1="7.795" y1="18.929" x2="7.841" y2="18.779"/>
<polyline fill="#FFFFFF" stroke="#000000" stroke-miterlimit="10" points="9.527,19.758 8.705,19.718 7.552,19.699 6.791,19.673 
	6.775,19.581 "/>
<polyline fill="#FFFFFF" stroke="#000000" stroke-miterlimit="10" points="9.45,19.673 8.628,19.634 7.475,19.615 6.714,19.589 
	6.31,17.179 7.719,18.845 "/>
<polyline fill="#FFFFFF" stroke="#000000" stroke-miterlimit="10" points="7.795,18.929 8.151,17.179 9.527,19.758 "/>
<g>
	<ellipse cx="10.449" cy="14.229" rx="0.503" ry="0.751"/>
	<ellipse cx="12.899" cy="14.259" rx="0.503" ry="0.751"/>
</g>
<path fill="#FFFFFF" stroke="#000000" stroke-miterlimit="10" d="M26.278,22.158c0.435-1.101,2.434-3.433,2.434-3.433l5.34-10.034
	L32.99,8.158l-10.17,18.99c0,0,1.375,0.778,1.645,0.653c0.313-0.498,0.576-1.908,0.576-1.908S25.897,23.125,26.278,22.158z"/>
<polygon points="35.641,10.292 30.279,7.208 28.178,7.686 27.563,8.756 27.97,11.636 29.651,12.988 32.719,14.753 36.15,13.973 
	36.567,13.249 "/>
<rect x="6.666" y="21.174" width="4.28" height="0.497"/>
<g>
	<polygon fill="#FFFFFF" points="6.85,19.894 19.99,19.894 19.99,21.072 20.148,21.072 20.148,21.974 10.704,22.131 10.836,21.411 
		6.85,21.429 	"/>
</g>
<g>
	<path fill="#FFFFFF" d="M25.457,23.889c-0.832-0.395-1.261-1.232-0.959-1.869l0.548-1.154c0.302-0.637,1.222-0.834,2.054-0.439l0,0
		c0.832,0.395,1.261,1.232,0.959,1.869l-0.548,1.154C27.208,24.088,26.289,24.284,25.457,23.889L25.457,23.889z"/>
	<path fill="none" stroke="#000000" stroke-miterlimit="10" d="M25.85,24.032c-0.132-0.033-0.264-0.081-0.394-0.142l0,0
		c-0.832-0.395-1.261-1.232-0.959-1.869l0.548-1.154c0.302-0.637,1.222-0.834,2.054-0.439l0,0c0.199,0.094,0.301,0.186,0.301,0.186"
		/>
</g>
<path fill="none" stroke="#000000" stroke-miterlimit="10" d="M16.401,3.81c0.295,0.506,0.464,1.095,0.464,1.723
	c0,1.893-1.535,3.427-3.427,3.427c-0.917,0-1.75-0.36-2.365-0.946"/>
</svg>
